M48
;DRILL file {KiCad (5.0.2)-1} date 3/31/2019 6:57:20 PM
;FORMAT={-:-/ absolute / inch / decimal}
FMAT,2
INCH,TZ
T1C0.0157
T2C0.0315
T3C0.0362
T4C0.0380
T5C0.0394
T6C0.0433
T7C0.0472
T8C0.0917
T9C0.0920
%
G90
G05
T1
X3.74Y-2.75
X3.76Y-3.02
X3.89Y-2.19
X3.89Y-2.54
X3.94Y-3.76
X3.95Y-4.7
X4.Y-3.48
X4.Y-4.325
X4.0673Y-2.
X4.0673Y-2.7
X4.0673Y-3.05
X4.075Y-2.35
X4.1Y-3.82
X4.1Y-3.93
X4.1602Y-5.5148
X4.2Y-3.825
X4.2Y-4.675
X4.3Y-3.47
X4.35Y-3.94
X4.35Y-4.16
X4.35Y-4.325
X4.35Y-4.66
X4.41Y-3.22
X4.42Y-5.3
X4.425Y-3.525
X4.425Y-3.775
X4.44Y-2.2
X4.475Y-3.45
X4.475Y-3.85
X4.475Y-4.25
X4.475Y-4.7
X4.5Y-4.87
X4.519Y-2.73
X4.55Y-4.42
X4.62Y-3.76
X4.62Y-4.16
X4.62Y-4.52
X4.7451Y-3.7145
X4.83Y-4.31
X4.84Y-1.86
X4.95Y-3.837
X4.9518Y-3.4591
X4.99Y-4.59
X4.9958Y-4.1708
X4.9986Y-3.461
X5.15Y-4.3
X5.2999Y-3.4565
X5.3Y-3.4565
X5.31Y-4.36
X5.37Y-3.91
X5.37Y-4.92
X5.43Y-3.93
X5.43Y-4.92
X5.5Y-4.36
X5.62Y-1.97
X6.08Y-4.36
X6.19Y-4.4
X6.29Y-5.5
X6.3Y-4.4
X6.37Y-4.4
X6.47Y-4.4
X6.51Y-3.27
X6.52Y-4.81
X6.58Y-4.65
X6.62Y-4.81
X6.68Y-2.28
X6.68Y-2.42
X6.68Y-2.48
X6.68Y-2.35
X6.7Y-4.66
X6.77Y-4.28
X6.77Y-4.36
X6.8Y-2.48
X6.83Y-4.7685
X6.9Y-3.11
X6.95Y-3.27
X7.Y-4.36
X7.03Y-2.36
X7.09Y-3.55
X7.1Y-3.27
X7.18Y-2.67
X7.2Y-3.27
X7.2Y-5.25
X7.27Y-2.59
X7.3Y-3.27
X7.34Y-4.59
X7.37Y-2.49
X7.4Y-3.27
X7.44Y-5.04
X7.52Y-2.86
X7.55Y-3.27
X7.55Y-4.23
X7.61Y-2.8
X7.64Y-4.71
X7.7Y-2.75
X7.7Y-3.27
X7.78Y-4.5
X7.79Y-3.66
X7.8Y-3.27
X7.88Y-4.55
X7.95Y-2.99
X7.95Y-3.27
X8.Y-4.14
X8.05Y-4.77
X8.08Y-3.08
X8.12Y-3.27
X8.15Y-5.4
X8.21Y-5.15
X8.2394Y-4.92
X8.27Y-2.13
X8.27Y-3.84
X8.32Y-3.23
X8.33Y-3.84
X8.43Y-3.87
X8.63Y-3.96
X8.66Y-4.67
X8.68Y-3.78
X8.68Y-3.86
X8.68Y-3.96
X8.71Y-4.63
X8.8Y-1.98
X8.8Y-2.38
X8.83Y-5.57
X8.84Y-5.36
X8.86Y-4.72
X8.91Y-4.25
X8.97Y-1.97
X8.97Y-2.38
X8.97Y-3.13
X9.05Y-1.98
X9.1Y-2.5
X9.1Y-2.6
X9.1Y-2.7
X9.1Y-2.8
X9.1Y-2.9
X9.1Y-3.
X9.2Y-4.79
X9.21Y-5.07
X9.22Y-5.54
X9.22Y-5.24
X9.32Y-2.29
T2
X4.7Y-2.1
X4.7Y-2.2
X4.7Y-2.3
X4.7Y-2.4
X5.Y-2.1
X5.Y-2.2
X5.Y-2.3
X5.Y-2.4
X8.72Y-5.24
X8.72Y-5.34
X8.72Y-5.44
X8.72Y-5.54
X9.02Y-5.24
X9.02Y-5.34
X9.02Y-5.44
X9.02Y-5.54
X4.7Y-2.6
X4.7Y-2.7
X4.7Y-2.8
X4.7Y-2.9
X5.Y-2.6
X5.Y-2.7
X5.Y-2.8
X5.Y-2.9
X8.72Y-4.77
X8.72Y-4.87
X8.72Y-4.97
X8.72Y-5.07
X9.02Y-4.77
X9.02Y-4.87
X9.02Y-4.97
X9.02Y-5.07
T3
X9.06Y-3.67
X9.06Y-3.7684
X9.1387Y-3.67
X9.1387Y-3.7684
T4
X7.2756Y-4.925
X7.2756Y-5.025
X7.2756Y-5.125
T5
X3.65Y-3.225
X3.65Y-3.325
X3.65Y-3.425
X3.65Y-3.525
X3.65Y-3.625
X3.65Y-3.725
X3.65Y-3.825
X3.65Y-3.925
X9.5Y-4.25
X9.5Y-4.35
X9.5Y-4.45
X9.5Y-4.55
X9.5Y-4.65
X9.5Y-4.75
X9.5Y-4.85
X9.5Y-4.95
X9.5Y-5.05
X9.5Y-5.15
X9.5Y-5.25
X9.5Y-5.35
X9.5Y-5.45
X9.5Y-5.55
X9.51Y-1.9
X9.51Y-2.
X9.51Y-2.1
X9.51Y-2.2
X9.51Y-2.3
X9.51Y-2.4
X9.51Y-2.5
X9.51Y-2.6
X9.51Y-2.7
X9.51Y-2.8
X9.51Y-2.9
X9.51Y-3.
X9.51Y-3.1
X9.51Y-3.2
X3.625Y-4.2
X3.625Y-4.3
X3.625Y-4.4
X3.625Y-4.5
X3.625Y-4.6
X3.625Y-4.7
X3.625Y-4.8
X3.625Y-4.9
T6
X6.2Y-3.45
X6.2Y-3.75
X6.2Y-3.85
X6.2Y-4.05
X6.3Y-3.45
X6.3Y-3.75
X6.3Y-3.85
X6.3Y-4.05
X6.4Y-3.45
X6.4Y-3.75
X6.4Y-3.85
X6.4Y-4.05
X6.5Y-3.45
X6.5Y-3.75
X6.5Y-3.85
X6.5Y-4.05
X6.6Y-3.45
X6.6Y-3.75
X6.6Y-3.85
X6.6Y-4.05
X6.7Y-3.45
X6.7Y-3.55
X6.7Y-3.65
X6.7Y-3.75
X6.7Y-3.85
X6.7Y-3.95
X6.7Y-4.05
X6.8Y-3.45
X6.8Y-3.75
X6.8Y-3.85
X6.8Y-4.05
X6.9Y-3.45
X6.9Y-3.75
X6.9Y-3.85
X6.9Y-4.05
X7.Y-3.45
X7.Y-3.75
X7.Y-3.85
X7.Y-4.05
X7.1Y-3.45
X7.1Y-4.05
X7.2Y-3.45
X7.2Y-4.05
X7.3Y-3.45
X7.3Y-4.05
X7.4Y-3.45
X7.4Y-4.05
X7.5Y-3.45
X7.5Y-4.05
X7.6Y-3.45
X7.6Y-3.75
X7.6Y-3.85
X7.6Y-4.05
X7.7Y-3.45
X7.7Y-3.75
X7.7Y-3.85
X7.7Y-4.05
X7.8Y-3.45
X7.8Y-3.75
X7.8Y-3.85
X7.8Y-4.05
X7.85Y-3.5681
X7.9Y-3.45
X7.9Y-3.75
X7.9Y-3.85
X7.9Y-4.05
X7.95Y-3.5681
X8.Y-3.45
X8.Y-3.95
X8.Y-4.05
X8.05Y-3.5681
X8.1Y-3.45
X8.1Y-3.95
X8.1Y-4.05
X8.15Y-3.5681
X8.2Y-3.45
X8.2Y-3.95
X8.2Y-4.05
X8.25Y-3.5681
X8.3Y-3.45
X8.3Y-4.05
X8.4Y-3.45
X8.4Y-3.95
X8.4Y-4.05
X8.5Y-3.45
X8.5Y-4.05
T7
X5.46Y-5.12
X5.46Y-5.3169
X3.65Y-5.25
X3.65Y-5.45
X3.65Y-2.05
X3.65Y-2.25
X3.65Y-2.45
X3.65Y-2.65
X3.65Y-2.85
X4.81Y-5.12
X4.81Y-5.3169
X6.5Y-5.05
X6.5Y-5.2469
T8
X9.2454Y-3.4822
X9.2454Y-3.9562
T9
X8.2756Y-4.8
X8.2756Y-5.25
T0
M30
