G04 #@! TF.GenerationSoftware,KiCad,Pcbnew,5.1.4*
G04 #@! TF.CreationDate,2019-10-01T18:25:40-04:00*
G04 #@! TF.ProjectId,SolarCarECU,536f6c61-7243-4617-9245-43552e6b6963,rev?*
G04 #@! TF.SameCoordinates,Original*
G04 #@! TF.FileFunction,Paste,Bot*
G04 #@! TF.FilePolarity,Positive*
%FSLAX46Y46*%
G04 Gerber Fmt 4.6, Leading zero omitted, Abs format (unit mm)*
G04 Created by KiCad (PCBNEW 5.1.4) date 2019-10-01 18:25:40*
%MOMM*%
%LPD*%
G04 APERTURE LIST*
%ADD10C,0.100000*%
%ADD11C,0.875000*%
%ADD12R,0.900000X1.200000*%
%ADD13C,1.250000*%
G04 APERTURE END LIST*
D10*
G36*
X220229691Y-84108053D02*
G01*
X220250926Y-84111203D01*
X220271750Y-84116419D01*
X220291962Y-84123651D01*
X220311368Y-84132830D01*
X220329781Y-84143866D01*
X220347024Y-84156654D01*
X220362930Y-84171070D01*
X220377346Y-84186976D01*
X220390134Y-84204219D01*
X220401170Y-84222632D01*
X220410349Y-84242038D01*
X220417581Y-84262250D01*
X220422797Y-84283074D01*
X220425947Y-84304309D01*
X220427000Y-84325750D01*
X220427000Y-84838250D01*
X220425947Y-84859691D01*
X220422797Y-84880926D01*
X220417581Y-84901750D01*
X220410349Y-84921962D01*
X220401170Y-84941368D01*
X220390134Y-84959781D01*
X220377346Y-84977024D01*
X220362930Y-84992930D01*
X220347024Y-85007346D01*
X220329781Y-85020134D01*
X220311368Y-85031170D01*
X220291962Y-85040349D01*
X220271750Y-85047581D01*
X220250926Y-85052797D01*
X220229691Y-85055947D01*
X220208250Y-85057000D01*
X219770750Y-85057000D01*
X219749309Y-85055947D01*
X219728074Y-85052797D01*
X219707250Y-85047581D01*
X219687038Y-85040349D01*
X219667632Y-85031170D01*
X219649219Y-85020134D01*
X219631976Y-85007346D01*
X219616070Y-84992930D01*
X219601654Y-84977024D01*
X219588866Y-84959781D01*
X219577830Y-84941368D01*
X219568651Y-84921962D01*
X219561419Y-84901750D01*
X219556203Y-84880926D01*
X219553053Y-84859691D01*
X219552000Y-84838250D01*
X219552000Y-84325750D01*
X219553053Y-84304309D01*
X219556203Y-84283074D01*
X219561419Y-84262250D01*
X219568651Y-84242038D01*
X219577830Y-84222632D01*
X219588866Y-84204219D01*
X219601654Y-84186976D01*
X219616070Y-84171070D01*
X219631976Y-84156654D01*
X219649219Y-84143866D01*
X219667632Y-84132830D01*
X219687038Y-84123651D01*
X219707250Y-84116419D01*
X219728074Y-84111203D01*
X219749309Y-84108053D01*
X219770750Y-84107000D01*
X220208250Y-84107000D01*
X220229691Y-84108053D01*
X220229691Y-84108053D01*
G37*
D11*
X219989500Y-84582000D03*
D10*
G36*
X218654691Y-84108053D02*
G01*
X218675926Y-84111203D01*
X218696750Y-84116419D01*
X218716962Y-84123651D01*
X218736368Y-84132830D01*
X218754781Y-84143866D01*
X218772024Y-84156654D01*
X218787930Y-84171070D01*
X218802346Y-84186976D01*
X218815134Y-84204219D01*
X218826170Y-84222632D01*
X218835349Y-84242038D01*
X218842581Y-84262250D01*
X218847797Y-84283074D01*
X218850947Y-84304309D01*
X218852000Y-84325750D01*
X218852000Y-84838250D01*
X218850947Y-84859691D01*
X218847797Y-84880926D01*
X218842581Y-84901750D01*
X218835349Y-84921962D01*
X218826170Y-84941368D01*
X218815134Y-84959781D01*
X218802346Y-84977024D01*
X218787930Y-84992930D01*
X218772024Y-85007346D01*
X218754781Y-85020134D01*
X218736368Y-85031170D01*
X218716962Y-85040349D01*
X218696750Y-85047581D01*
X218675926Y-85052797D01*
X218654691Y-85055947D01*
X218633250Y-85057000D01*
X218195750Y-85057000D01*
X218174309Y-85055947D01*
X218153074Y-85052797D01*
X218132250Y-85047581D01*
X218112038Y-85040349D01*
X218092632Y-85031170D01*
X218074219Y-85020134D01*
X218056976Y-85007346D01*
X218041070Y-84992930D01*
X218026654Y-84977024D01*
X218013866Y-84959781D01*
X218002830Y-84941368D01*
X217993651Y-84921962D01*
X217986419Y-84901750D01*
X217981203Y-84880926D01*
X217978053Y-84859691D01*
X217977000Y-84838250D01*
X217977000Y-84325750D01*
X217978053Y-84304309D01*
X217981203Y-84283074D01*
X217986419Y-84262250D01*
X217993651Y-84242038D01*
X218002830Y-84222632D01*
X218013866Y-84204219D01*
X218026654Y-84186976D01*
X218041070Y-84171070D01*
X218056976Y-84156654D01*
X218074219Y-84143866D01*
X218092632Y-84132830D01*
X218112038Y-84123651D01*
X218132250Y-84116419D01*
X218153074Y-84111203D01*
X218174309Y-84108053D01*
X218195750Y-84107000D01*
X218633250Y-84107000D01*
X218654691Y-84108053D01*
X218654691Y-84108053D01*
G37*
D11*
X218414500Y-84582000D03*
D10*
G36*
X220229691Y-81314053D02*
G01*
X220250926Y-81317203D01*
X220271750Y-81322419D01*
X220291962Y-81329651D01*
X220311368Y-81338830D01*
X220329781Y-81349866D01*
X220347024Y-81362654D01*
X220362930Y-81377070D01*
X220377346Y-81392976D01*
X220390134Y-81410219D01*
X220401170Y-81428632D01*
X220410349Y-81448038D01*
X220417581Y-81468250D01*
X220422797Y-81489074D01*
X220425947Y-81510309D01*
X220427000Y-81531750D01*
X220427000Y-82044250D01*
X220425947Y-82065691D01*
X220422797Y-82086926D01*
X220417581Y-82107750D01*
X220410349Y-82127962D01*
X220401170Y-82147368D01*
X220390134Y-82165781D01*
X220377346Y-82183024D01*
X220362930Y-82198930D01*
X220347024Y-82213346D01*
X220329781Y-82226134D01*
X220311368Y-82237170D01*
X220291962Y-82246349D01*
X220271750Y-82253581D01*
X220250926Y-82258797D01*
X220229691Y-82261947D01*
X220208250Y-82263000D01*
X219770750Y-82263000D01*
X219749309Y-82261947D01*
X219728074Y-82258797D01*
X219707250Y-82253581D01*
X219687038Y-82246349D01*
X219667632Y-82237170D01*
X219649219Y-82226134D01*
X219631976Y-82213346D01*
X219616070Y-82198930D01*
X219601654Y-82183024D01*
X219588866Y-82165781D01*
X219577830Y-82147368D01*
X219568651Y-82127962D01*
X219561419Y-82107750D01*
X219556203Y-82086926D01*
X219553053Y-82065691D01*
X219552000Y-82044250D01*
X219552000Y-81531750D01*
X219553053Y-81510309D01*
X219556203Y-81489074D01*
X219561419Y-81468250D01*
X219568651Y-81448038D01*
X219577830Y-81428632D01*
X219588866Y-81410219D01*
X219601654Y-81392976D01*
X219616070Y-81377070D01*
X219631976Y-81362654D01*
X219649219Y-81349866D01*
X219667632Y-81338830D01*
X219687038Y-81329651D01*
X219707250Y-81322419D01*
X219728074Y-81317203D01*
X219749309Y-81314053D01*
X219770750Y-81313000D01*
X220208250Y-81313000D01*
X220229691Y-81314053D01*
X220229691Y-81314053D01*
G37*
D11*
X219989500Y-81788000D03*
D10*
G36*
X218654691Y-81314053D02*
G01*
X218675926Y-81317203D01*
X218696750Y-81322419D01*
X218716962Y-81329651D01*
X218736368Y-81338830D01*
X218754781Y-81349866D01*
X218772024Y-81362654D01*
X218787930Y-81377070D01*
X218802346Y-81392976D01*
X218815134Y-81410219D01*
X218826170Y-81428632D01*
X218835349Y-81448038D01*
X218842581Y-81468250D01*
X218847797Y-81489074D01*
X218850947Y-81510309D01*
X218852000Y-81531750D01*
X218852000Y-82044250D01*
X218850947Y-82065691D01*
X218847797Y-82086926D01*
X218842581Y-82107750D01*
X218835349Y-82127962D01*
X218826170Y-82147368D01*
X218815134Y-82165781D01*
X218802346Y-82183024D01*
X218787930Y-82198930D01*
X218772024Y-82213346D01*
X218754781Y-82226134D01*
X218736368Y-82237170D01*
X218716962Y-82246349D01*
X218696750Y-82253581D01*
X218675926Y-82258797D01*
X218654691Y-82261947D01*
X218633250Y-82263000D01*
X218195750Y-82263000D01*
X218174309Y-82261947D01*
X218153074Y-82258797D01*
X218132250Y-82253581D01*
X218112038Y-82246349D01*
X218092632Y-82237170D01*
X218074219Y-82226134D01*
X218056976Y-82213346D01*
X218041070Y-82198930D01*
X218026654Y-82183024D01*
X218013866Y-82165781D01*
X218002830Y-82147368D01*
X217993651Y-82127962D01*
X217986419Y-82107750D01*
X217981203Y-82086926D01*
X217978053Y-82065691D01*
X217977000Y-82044250D01*
X217977000Y-81531750D01*
X217978053Y-81510309D01*
X217981203Y-81489074D01*
X217986419Y-81468250D01*
X217993651Y-81448038D01*
X218002830Y-81428632D01*
X218013866Y-81410219D01*
X218026654Y-81392976D01*
X218041070Y-81377070D01*
X218056976Y-81362654D01*
X218074219Y-81349866D01*
X218092632Y-81338830D01*
X218112038Y-81329651D01*
X218132250Y-81322419D01*
X218153074Y-81317203D01*
X218174309Y-81314053D01*
X218195750Y-81313000D01*
X218633250Y-81313000D01*
X218654691Y-81314053D01*
X218654691Y-81314053D01*
G37*
D11*
X218414500Y-81788000D03*
D10*
G36*
X220229691Y-79028053D02*
G01*
X220250926Y-79031203D01*
X220271750Y-79036419D01*
X220291962Y-79043651D01*
X220311368Y-79052830D01*
X220329781Y-79063866D01*
X220347024Y-79076654D01*
X220362930Y-79091070D01*
X220377346Y-79106976D01*
X220390134Y-79124219D01*
X220401170Y-79142632D01*
X220410349Y-79162038D01*
X220417581Y-79182250D01*
X220422797Y-79203074D01*
X220425947Y-79224309D01*
X220427000Y-79245750D01*
X220427000Y-79758250D01*
X220425947Y-79779691D01*
X220422797Y-79800926D01*
X220417581Y-79821750D01*
X220410349Y-79841962D01*
X220401170Y-79861368D01*
X220390134Y-79879781D01*
X220377346Y-79897024D01*
X220362930Y-79912930D01*
X220347024Y-79927346D01*
X220329781Y-79940134D01*
X220311368Y-79951170D01*
X220291962Y-79960349D01*
X220271750Y-79967581D01*
X220250926Y-79972797D01*
X220229691Y-79975947D01*
X220208250Y-79977000D01*
X219770750Y-79977000D01*
X219749309Y-79975947D01*
X219728074Y-79972797D01*
X219707250Y-79967581D01*
X219687038Y-79960349D01*
X219667632Y-79951170D01*
X219649219Y-79940134D01*
X219631976Y-79927346D01*
X219616070Y-79912930D01*
X219601654Y-79897024D01*
X219588866Y-79879781D01*
X219577830Y-79861368D01*
X219568651Y-79841962D01*
X219561419Y-79821750D01*
X219556203Y-79800926D01*
X219553053Y-79779691D01*
X219552000Y-79758250D01*
X219552000Y-79245750D01*
X219553053Y-79224309D01*
X219556203Y-79203074D01*
X219561419Y-79182250D01*
X219568651Y-79162038D01*
X219577830Y-79142632D01*
X219588866Y-79124219D01*
X219601654Y-79106976D01*
X219616070Y-79091070D01*
X219631976Y-79076654D01*
X219649219Y-79063866D01*
X219667632Y-79052830D01*
X219687038Y-79043651D01*
X219707250Y-79036419D01*
X219728074Y-79031203D01*
X219749309Y-79028053D01*
X219770750Y-79027000D01*
X220208250Y-79027000D01*
X220229691Y-79028053D01*
X220229691Y-79028053D01*
G37*
D11*
X219989500Y-79502000D03*
D10*
G36*
X218654691Y-79028053D02*
G01*
X218675926Y-79031203D01*
X218696750Y-79036419D01*
X218716962Y-79043651D01*
X218736368Y-79052830D01*
X218754781Y-79063866D01*
X218772024Y-79076654D01*
X218787930Y-79091070D01*
X218802346Y-79106976D01*
X218815134Y-79124219D01*
X218826170Y-79142632D01*
X218835349Y-79162038D01*
X218842581Y-79182250D01*
X218847797Y-79203074D01*
X218850947Y-79224309D01*
X218852000Y-79245750D01*
X218852000Y-79758250D01*
X218850947Y-79779691D01*
X218847797Y-79800926D01*
X218842581Y-79821750D01*
X218835349Y-79841962D01*
X218826170Y-79861368D01*
X218815134Y-79879781D01*
X218802346Y-79897024D01*
X218787930Y-79912930D01*
X218772024Y-79927346D01*
X218754781Y-79940134D01*
X218736368Y-79951170D01*
X218716962Y-79960349D01*
X218696750Y-79967581D01*
X218675926Y-79972797D01*
X218654691Y-79975947D01*
X218633250Y-79977000D01*
X218195750Y-79977000D01*
X218174309Y-79975947D01*
X218153074Y-79972797D01*
X218132250Y-79967581D01*
X218112038Y-79960349D01*
X218092632Y-79951170D01*
X218074219Y-79940134D01*
X218056976Y-79927346D01*
X218041070Y-79912930D01*
X218026654Y-79897024D01*
X218013866Y-79879781D01*
X218002830Y-79861368D01*
X217993651Y-79841962D01*
X217986419Y-79821750D01*
X217981203Y-79800926D01*
X217978053Y-79779691D01*
X217977000Y-79758250D01*
X217977000Y-79245750D01*
X217978053Y-79224309D01*
X217981203Y-79203074D01*
X217986419Y-79182250D01*
X217993651Y-79162038D01*
X218002830Y-79142632D01*
X218013866Y-79124219D01*
X218026654Y-79106976D01*
X218041070Y-79091070D01*
X218056976Y-79076654D01*
X218074219Y-79063866D01*
X218092632Y-79052830D01*
X218112038Y-79043651D01*
X218132250Y-79036419D01*
X218153074Y-79031203D01*
X218174309Y-79028053D01*
X218195750Y-79027000D01*
X218633250Y-79027000D01*
X218654691Y-79028053D01*
X218654691Y-79028053D01*
G37*
D11*
X218414500Y-79502000D03*
D10*
G36*
X220229691Y-76234053D02*
G01*
X220250926Y-76237203D01*
X220271750Y-76242419D01*
X220291962Y-76249651D01*
X220311368Y-76258830D01*
X220329781Y-76269866D01*
X220347024Y-76282654D01*
X220362930Y-76297070D01*
X220377346Y-76312976D01*
X220390134Y-76330219D01*
X220401170Y-76348632D01*
X220410349Y-76368038D01*
X220417581Y-76388250D01*
X220422797Y-76409074D01*
X220425947Y-76430309D01*
X220427000Y-76451750D01*
X220427000Y-76964250D01*
X220425947Y-76985691D01*
X220422797Y-77006926D01*
X220417581Y-77027750D01*
X220410349Y-77047962D01*
X220401170Y-77067368D01*
X220390134Y-77085781D01*
X220377346Y-77103024D01*
X220362930Y-77118930D01*
X220347024Y-77133346D01*
X220329781Y-77146134D01*
X220311368Y-77157170D01*
X220291962Y-77166349D01*
X220271750Y-77173581D01*
X220250926Y-77178797D01*
X220229691Y-77181947D01*
X220208250Y-77183000D01*
X219770750Y-77183000D01*
X219749309Y-77181947D01*
X219728074Y-77178797D01*
X219707250Y-77173581D01*
X219687038Y-77166349D01*
X219667632Y-77157170D01*
X219649219Y-77146134D01*
X219631976Y-77133346D01*
X219616070Y-77118930D01*
X219601654Y-77103024D01*
X219588866Y-77085781D01*
X219577830Y-77067368D01*
X219568651Y-77047962D01*
X219561419Y-77027750D01*
X219556203Y-77006926D01*
X219553053Y-76985691D01*
X219552000Y-76964250D01*
X219552000Y-76451750D01*
X219553053Y-76430309D01*
X219556203Y-76409074D01*
X219561419Y-76388250D01*
X219568651Y-76368038D01*
X219577830Y-76348632D01*
X219588866Y-76330219D01*
X219601654Y-76312976D01*
X219616070Y-76297070D01*
X219631976Y-76282654D01*
X219649219Y-76269866D01*
X219667632Y-76258830D01*
X219687038Y-76249651D01*
X219707250Y-76242419D01*
X219728074Y-76237203D01*
X219749309Y-76234053D01*
X219770750Y-76233000D01*
X220208250Y-76233000D01*
X220229691Y-76234053D01*
X220229691Y-76234053D01*
G37*
D11*
X219989500Y-76708000D03*
D10*
G36*
X218654691Y-76234053D02*
G01*
X218675926Y-76237203D01*
X218696750Y-76242419D01*
X218716962Y-76249651D01*
X218736368Y-76258830D01*
X218754781Y-76269866D01*
X218772024Y-76282654D01*
X218787930Y-76297070D01*
X218802346Y-76312976D01*
X218815134Y-76330219D01*
X218826170Y-76348632D01*
X218835349Y-76368038D01*
X218842581Y-76388250D01*
X218847797Y-76409074D01*
X218850947Y-76430309D01*
X218852000Y-76451750D01*
X218852000Y-76964250D01*
X218850947Y-76985691D01*
X218847797Y-77006926D01*
X218842581Y-77027750D01*
X218835349Y-77047962D01*
X218826170Y-77067368D01*
X218815134Y-77085781D01*
X218802346Y-77103024D01*
X218787930Y-77118930D01*
X218772024Y-77133346D01*
X218754781Y-77146134D01*
X218736368Y-77157170D01*
X218716962Y-77166349D01*
X218696750Y-77173581D01*
X218675926Y-77178797D01*
X218654691Y-77181947D01*
X218633250Y-77183000D01*
X218195750Y-77183000D01*
X218174309Y-77181947D01*
X218153074Y-77178797D01*
X218132250Y-77173581D01*
X218112038Y-77166349D01*
X218092632Y-77157170D01*
X218074219Y-77146134D01*
X218056976Y-77133346D01*
X218041070Y-77118930D01*
X218026654Y-77103024D01*
X218013866Y-77085781D01*
X218002830Y-77067368D01*
X217993651Y-77047962D01*
X217986419Y-77027750D01*
X217981203Y-77006926D01*
X217978053Y-76985691D01*
X217977000Y-76964250D01*
X217977000Y-76451750D01*
X217978053Y-76430309D01*
X217981203Y-76409074D01*
X217986419Y-76388250D01*
X217993651Y-76368038D01*
X218002830Y-76348632D01*
X218013866Y-76330219D01*
X218026654Y-76312976D01*
X218041070Y-76297070D01*
X218056976Y-76282654D01*
X218074219Y-76269866D01*
X218092632Y-76258830D01*
X218112038Y-76249651D01*
X218132250Y-76242419D01*
X218153074Y-76237203D01*
X218174309Y-76234053D01*
X218195750Y-76233000D01*
X218633250Y-76233000D01*
X218654691Y-76234053D01*
X218654691Y-76234053D01*
G37*
D11*
X218414500Y-76708000D03*
D10*
G36*
X220229691Y-73694053D02*
G01*
X220250926Y-73697203D01*
X220271750Y-73702419D01*
X220291962Y-73709651D01*
X220311368Y-73718830D01*
X220329781Y-73729866D01*
X220347024Y-73742654D01*
X220362930Y-73757070D01*
X220377346Y-73772976D01*
X220390134Y-73790219D01*
X220401170Y-73808632D01*
X220410349Y-73828038D01*
X220417581Y-73848250D01*
X220422797Y-73869074D01*
X220425947Y-73890309D01*
X220427000Y-73911750D01*
X220427000Y-74424250D01*
X220425947Y-74445691D01*
X220422797Y-74466926D01*
X220417581Y-74487750D01*
X220410349Y-74507962D01*
X220401170Y-74527368D01*
X220390134Y-74545781D01*
X220377346Y-74563024D01*
X220362930Y-74578930D01*
X220347024Y-74593346D01*
X220329781Y-74606134D01*
X220311368Y-74617170D01*
X220291962Y-74626349D01*
X220271750Y-74633581D01*
X220250926Y-74638797D01*
X220229691Y-74641947D01*
X220208250Y-74643000D01*
X219770750Y-74643000D01*
X219749309Y-74641947D01*
X219728074Y-74638797D01*
X219707250Y-74633581D01*
X219687038Y-74626349D01*
X219667632Y-74617170D01*
X219649219Y-74606134D01*
X219631976Y-74593346D01*
X219616070Y-74578930D01*
X219601654Y-74563024D01*
X219588866Y-74545781D01*
X219577830Y-74527368D01*
X219568651Y-74507962D01*
X219561419Y-74487750D01*
X219556203Y-74466926D01*
X219553053Y-74445691D01*
X219552000Y-74424250D01*
X219552000Y-73911750D01*
X219553053Y-73890309D01*
X219556203Y-73869074D01*
X219561419Y-73848250D01*
X219568651Y-73828038D01*
X219577830Y-73808632D01*
X219588866Y-73790219D01*
X219601654Y-73772976D01*
X219616070Y-73757070D01*
X219631976Y-73742654D01*
X219649219Y-73729866D01*
X219667632Y-73718830D01*
X219687038Y-73709651D01*
X219707250Y-73702419D01*
X219728074Y-73697203D01*
X219749309Y-73694053D01*
X219770750Y-73693000D01*
X220208250Y-73693000D01*
X220229691Y-73694053D01*
X220229691Y-73694053D01*
G37*
D11*
X219989500Y-74168000D03*
D10*
G36*
X218654691Y-73694053D02*
G01*
X218675926Y-73697203D01*
X218696750Y-73702419D01*
X218716962Y-73709651D01*
X218736368Y-73718830D01*
X218754781Y-73729866D01*
X218772024Y-73742654D01*
X218787930Y-73757070D01*
X218802346Y-73772976D01*
X218815134Y-73790219D01*
X218826170Y-73808632D01*
X218835349Y-73828038D01*
X218842581Y-73848250D01*
X218847797Y-73869074D01*
X218850947Y-73890309D01*
X218852000Y-73911750D01*
X218852000Y-74424250D01*
X218850947Y-74445691D01*
X218847797Y-74466926D01*
X218842581Y-74487750D01*
X218835349Y-74507962D01*
X218826170Y-74527368D01*
X218815134Y-74545781D01*
X218802346Y-74563024D01*
X218787930Y-74578930D01*
X218772024Y-74593346D01*
X218754781Y-74606134D01*
X218736368Y-74617170D01*
X218716962Y-74626349D01*
X218696750Y-74633581D01*
X218675926Y-74638797D01*
X218654691Y-74641947D01*
X218633250Y-74643000D01*
X218195750Y-74643000D01*
X218174309Y-74641947D01*
X218153074Y-74638797D01*
X218132250Y-74633581D01*
X218112038Y-74626349D01*
X218092632Y-74617170D01*
X218074219Y-74606134D01*
X218056976Y-74593346D01*
X218041070Y-74578930D01*
X218026654Y-74563024D01*
X218013866Y-74545781D01*
X218002830Y-74527368D01*
X217993651Y-74507962D01*
X217986419Y-74487750D01*
X217981203Y-74466926D01*
X217978053Y-74445691D01*
X217977000Y-74424250D01*
X217977000Y-73911750D01*
X217978053Y-73890309D01*
X217981203Y-73869074D01*
X217986419Y-73848250D01*
X217993651Y-73828038D01*
X218002830Y-73808632D01*
X218013866Y-73790219D01*
X218026654Y-73772976D01*
X218041070Y-73757070D01*
X218056976Y-73742654D01*
X218074219Y-73729866D01*
X218092632Y-73718830D01*
X218112038Y-73709651D01*
X218132250Y-73702419D01*
X218153074Y-73697203D01*
X218174309Y-73694053D01*
X218195750Y-73693000D01*
X218633250Y-73693000D01*
X218654691Y-73694053D01*
X218654691Y-73694053D01*
G37*
D11*
X218414500Y-74168000D03*
D10*
G36*
X79208691Y-106460053D02*
G01*
X79229926Y-106463203D01*
X79250750Y-106468419D01*
X79270962Y-106475651D01*
X79290368Y-106484830D01*
X79308781Y-106495866D01*
X79326024Y-106508654D01*
X79341930Y-106523070D01*
X79356346Y-106538976D01*
X79369134Y-106556219D01*
X79380170Y-106574632D01*
X79389349Y-106594038D01*
X79396581Y-106614250D01*
X79401797Y-106635074D01*
X79404947Y-106656309D01*
X79406000Y-106677750D01*
X79406000Y-107190250D01*
X79404947Y-107211691D01*
X79401797Y-107232926D01*
X79396581Y-107253750D01*
X79389349Y-107273962D01*
X79380170Y-107293368D01*
X79369134Y-107311781D01*
X79356346Y-107329024D01*
X79341930Y-107344930D01*
X79326024Y-107359346D01*
X79308781Y-107372134D01*
X79290368Y-107383170D01*
X79270962Y-107392349D01*
X79250750Y-107399581D01*
X79229926Y-107404797D01*
X79208691Y-107407947D01*
X79187250Y-107409000D01*
X78749750Y-107409000D01*
X78728309Y-107407947D01*
X78707074Y-107404797D01*
X78686250Y-107399581D01*
X78666038Y-107392349D01*
X78646632Y-107383170D01*
X78628219Y-107372134D01*
X78610976Y-107359346D01*
X78595070Y-107344930D01*
X78580654Y-107329024D01*
X78567866Y-107311781D01*
X78556830Y-107293368D01*
X78547651Y-107273962D01*
X78540419Y-107253750D01*
X78535203Y-107232926D01*
X78532053Y-107211691D01*
X78531000Y-107190250D01*
X78531000Y-106677750D01*
X78532053Y-106656309D01*
X78535203Y-106635074D01*
X78540419Y-106614250D01*
X78547651Y-106594038D01*
X78556830Y-106574632D01*
X78567866Y-106556219D01*
X78580654Y-106538976D01*
X78595070Y-106523070D01*
X78610976Y-106508654D01*
X78628219Y-106495866D01*
X78646632Y-106484830D01*
X78666038Y-106475651D01*
X78686250Y-106468419D01*
X78707074Y-106463203D01*
X78728309Y-106460053D01*
X78749750Y-106459000D01*
X79187250Y-106459000D01*
X79208691Y-106460053D01*
X79208691Y-106460053D01*
G37*
D11*
X78968500Y-106934000D03*
D10*
G36*
X80783691Y-106460053D02*
G01*
X80804926Y-106463203D01*
X80825750Y-106468419D01*
X80845962Y-106475651D01*
X80865368Y-106484830D01*
X80883781Y-106495866D01*
X80901024Y-106508654D01*
X80916930Y-106523070D01*
X80931346Y-106538976D01*
X80944134Y-106556219D01*
X80955170Y-106574632D01*
X80964349Y-106594038D01*
X80971581Y-106614250D01*
X80976797Y-106635074D01*
X80979947Y-106656309D01*
X80981000Y-106677750D01*
X80981000Y-107190250D01*
X80979947Y-107211691D01*
X80976797Y-107232926D01*
X80971581Y-107253750D01*
X80964349Y-107273962D01*
X80955170Y-107293368D01*
X80944134Y-107311781D01*
X80931346Y-107329024D01*
X80916930Y-107344930D01*
X80901024Y-107359346D01*
X80883781Y-107372134D01*
X80865368Y-107383170D01*
X80845962Y-107392349D01*
X80825750Y-107399581D01*
X80804926Y-107404797D01*
X80783691Y-107407947D01*
X80762250Y-107409000D01*
X80324750Y-107409000D01*
X80303309Y-107407947D01*
X80282074Y-107404797D01*
X80261250Y-107399581D01*
X80241038Y-107392349D01*
X80221632Y-107383170D01*
X80203219Y-107372134D01*
X80185976Y-107359346D01*
X80170070Y-107344930D01*
X80155654Y-107329024D01*
X80142866Y-107311781D01*
X80131830Y-107293368D01*
X80122651Y-107273962D01*
X80115419Y-107253750D01*
X80110203Y-107232926D01*
X80107053Y-107211691D01*
X80106000Y-107190250D01*
X80106000Y-106677750D01*
X80107053Y-106656309D01*
X80110203Y-106635074D01*
X80115419Y-106614250D01*
X80122651Y-106594038D01*
X80131830Y-106574632D01*
X80142866Y-106556219D01*
X80155654Y-106538976D01*
X80170070Y-106523070D01*
X80185976Y-106508654D01*
X80203219Y-106495866D01*
X80221632Y-106484830D01*
X80241038Y-106475651D01*
X80261250Y-106468419D01*
X80282074Y-106463203D01*
X80303309Y-106460053D01*
X80324750Y-106459000D01*
X80762250Y-106459000D01*
X80783691Y-106460053D01*
X80783691Y-106460053D01*
G37*
D11*
X80543500Y-106934000D03*
D10*
G36*
X87907691Y-128113053D02*
G01*
X87928926Y-128116203D01*
X87949750Y-128121419D01*
X87969962Y-128128651D01*
X87989368Y-128137830D01*
X88007781Y-128148866D01*
X88025024Y-128161654D01*
X88040930Y-128176070D01*
X88055346Y-128191976D01*
X88068134Y-128209219D01*
X88079170Y-128227632D01*
X88088349Y-128247038D01*
X88095581Y-128267250D01*
X88100797Y-128288074D01*
X88103947Y-128309309D01*
X88105000Y-128330750D01*
X88105000Y-128768250D01*
X88103947Y-128789691D01*
X88100797Y-128810926D01*
X88095581Y-128831750D01*
X88088349Y-128851962D01*
X88079170Y-128871368D01*
X88068134Y-128889781D01*
X88055346Y-128907024D01*
X88040930Y-128922930D01*
X88025024Y-128937346D01*
X88007781Y-128950134D01*
X87989368Y-128961170D01*
X87969962Y-128970349D01*
X87949750Y-128977581D01*
X87928926Y-128982797D01*
X87907691Y-128985947D01*
X87886250Y-128987000D01*
X87373750Y-128987000D01*
X87352309Y-128985947D01*
X87331074Y-128982797D01*
X87310250Y-128977581D01*
X87290038Y-128970349D01*
X87270632Y-128961170D01*
X87252219Y-128950134D01*
X87234976Y-128937346D01*
X87219070Y-128922930D01*
X87204654Y-128907024D01*
X87191866Y-128889781D01*
X87180830Y-128871368D01*
X87171651Y-128851962D01*
X87164419Y-128831750D01*
X87159203Y-128810926D01*
X87156053Y-128789691D01*
X87155000Y-128768250D01*
X87155000Y-128330750D01*
X87156053Y-128309309D01*
X87159203Y-128288074D01*
X87164419Y-128267250D01*
X87171651Y-128247038D01*
X87180830Y-128227632D01*
X87191866Y-128209219D01*
X87204654Y-128191976D01*
X87219070Y-128176070D01*
X87234976Y-128161654D01*
X87252219Y-128148866D01*
X87270632Y-128137830D01*
X87290038Y-128128651D01*
X87310250Y-128121419D01*
X87331074Y-128116203D01*
X87352309Y-128113053D01*
X87373750Y-128112000D01*
X87886250Y-128112000D01*
X87907691Y-128113053D01*
X87907691Y-128113053D01*
G37*
D11*
X87630000Y-128549500D03*
D10*
G36*
X87907691Y-126538053D02*
G01*
X87928926Y-126541203D01*
X87949750Y-126546419D01*
X87969962Y-126553651D01*
X87989368Y-126562830D01*
X88007781Y-126573866D01*
X88025024Y-126586654D01*
X88040930Y-126601070D01*
X88055346Y-126616976D01*
X88068134Y-126634219D01*
X88079170Y-126652632D01*
X88088349Y-126672038D01*
X88095581Y-126692250D01*
X88100797Y-126713074D01*
X88103947Y-126734309D01*
X88105000Y-126755750D01*
X88105000Y-127193250D01*
X88103947Y-127214691D01*
X88100797Y-127235926D01*
X88095581Y-127256750D01*
X88088349Y-127276962D01*
X88079170Y-127296368D01*
X88068134Y-127314781D01*
X88055346Y-127332024D01*
X88040930Y-127347930D01*
X88025024Y-127362346D01*
X88007781Y-127375134D01*
X87989368Y-127386170D01*
X87969962Y-127395349D01*
X87949750Y-127402581D01*
X87928926Y-127407797D01*
X87907691Y-127410947D01*
X87886250Y-127412000D01*
X87373750Y-127412000D01*
X87352309Y-127410947D01*
X87331074Y-127407797D01*
X87310250Y-127402581D01*
X87290038Y-127395349D01*
X87270632Y-127386170D01*
X87252219Y-127375134D01*
X87234976Y-127362346D01*
X87219070Y-127347930D01*
X87204654Y-127332024D01*
X87191866Y-127314781D01*
X87180830Y-127296368D01*
X87171651Y-127276962D01*
X87164419Y-127256750D01*
X87159203Y-127235926D01*
X87156053Y-127214691D01*
X87155000Y-127193250D01*
X87155000Y-126755750D01*
X87156053Y-126734309D01*
X87159203Y-126713074D01*
X87164419Y-126692250D01*
X87171651Y-126672038D01*
X87180830Y-126652632D01*
X87191866Y-126634219D01*
X87204654Y-126616976D01*
X87219070Y-126601070D01*
X87234976Y-126586654D01*
X87252219Y-126573866D01*
X87270632Y-126562830D01*
X87290038Y-126553651D01*
X87310250Y-126546419D01*
X87331074Y-126541203D01*
X87352309Y-126538053D01*
X87373750Y-126537000D01*
X87886250Y-126537000D01*
X87907691Y-126538053D01*
X87907691Y-126538053D01*
G37*
D11*
X87630000Y-126974500D03*
D10*
G36*
X79208691Y-107984053D02*
G01*
X79229926Y-107987203D01*
X79250750Y-107992419D01*
X79270962Y-107999651D01*
X79290368Y-108008830D01*
X79308781Y-108019866D01*
X79326024Y-108032654D01*
X79341930Y-108047070D01*
X79356346Y-108062976D01*
X79369134Y-108080219D01*
X79380170Y-108098632D01*
X79389349Y-108118038D01*
X79396581Y-108138250D01*
X79401797Y-108159074D01*
X79404947Y-108180309D01*
X79406000Y-108201750D01*
X79406000Y-108714250D01*
X79404947Y-108735691D01*
X79401797Y-108756926D01*
X79396581Y-108777750D01*
X79389349Y-108797962D01*
X79380170Y-108817368D01*
X79369134Y-108835781D01*
X79356346Y-108853024D01*
X79341930Y-108868930D01*
X79326024Y-108883346D01*
X79308781Y-108896134D01*
X79290368Y-108907170D01*
X79270962Y-108916349D01*
X79250750Y-108923581D01*
X79229926Y-108928797D01*
X79208691Y-108931947D01*
X79187250Y-108933000D01*
X78749750Y-108933000D01*
X78728309Y-108931947D01*
X78707074Y-108928797D01*
X78686250Y-108923581D01*
X78666038Y-108916349D01*
X78646632Y-108907170D01*
X78628219Y-108896134D01*
X78610976Y-108883346D01*
X78595070Y-108868930D01*
X78580654Y-108853024D01*
X78567866Y-108835781D01*
X78556830Y-108817368D01*
X78547651Y-108797962D01*
X78540419Y-108777750D01*
X78535203Y-108756926D01*
X78532053Y-108735691D01*
X78531000Y-108714250D01*
X78531000Y-108201750D01*
X78532053Y-108180309D01*
X78535203Y-108159074D01*
X78540419Y-108138250D01*
X78547651Y-108118038D01*
X78556830Y-108098632D01*
X78567866Y-108080219D01*
X78580654Y-108062976D01*
X78595070Y-108047070D01*
X78610976Y-108032654D01*
X78628219Y-108019866D01*
X78646632Y-108008830D01*
X78666038Y-107999651D01*
X78686250Y-107992419D01*
X78707074Y-107987203D01*
X78728309Y-107984053D01*
X78749750Y-107983000D01*
X79187250Y-107983000D01*
X79208691Y-107984053D01*
X79208691Y-107984053D01*
G37*
D11*
X78968500Y-108458000D03*
D10*
G36*
X80783691Y-107984053D02*
G01*
X80804926Y-107987203D01*
X80825750Y-107992419D01*
X80845962Y-107999651D01*
X80865368Y-108008830D01*
X80883781Y-108019866D01*
X80901024Y-108032654D01*
X80916930Y-108047070D01*
X80931346Y-108062976D01*
X80944134Y-108080219D01*
X80955170Y-108098632D01*
X80964349Y-108118038D01*
X80971581Y-108138250D01*
X80976797Y-108159074D01*
X80979947Y-108180309D01*
X80981000Y-108201750D01*
X80981000Y-108714250D01*
X80979947Y-108735691D01*
X80976797Y-108756926D01*
X80971581Y-108777750D01*
X80964349Y-108797962D01*
X80955170Y-108817368D01*
X80944134Y-108835781D01*
X80931346Y-108853024D01*
X80916930Y-108868930D01*
X80901024Y-108883346D01*
X80883781Y-108896134D01*
X80865368Y-108907170D01*
X80845962Y-108916349D01*
X80825750Y-108923581D01*
X80804926Y-108928797D01*
X80783691Y-108931947D01*
X80762250Y-108933000D01*
X80324750Y-108933000D01*
X80303309Y-108931947D01*
X80282074Y-108928797D01*
X80261250Y-108923581D01*
X80241038Y-108916349D01*
X80221632Y-108907170D01*
X80203219Y-108896134D01*
X80185976Y-108883346D01*
X80170070Y-108868930D01*
X80155654Y-108853024D01*
X80142866Y-108835781D01*
X80131830Y-108817368D01*
X80122651Y-108797962D01*
X80115419Y-108777750D01*
X80110203Y-108756926D01*
X80107053Y-108735691D01*
X80106000Y-108714250D01*
X80106000Y-108201750D01*
X80107053Y-108180309D01*
X80110203Y-108159074D01*
X80115419Y-108138250D01*
X80122651Y-108118038D01*
X80131830Y-108098632D01*
X80142866Y-108080219D01*
X80155654Y-108062976D01*
X80170070Y-108047070D01*
X80185976Y-108032654D01*
X80203219Y-108019866D01*
X80221632Y-108008830D01*
X80241038Y-107999651D01*
X80261250Y-107992419D01*
X80282074Y-107987203D01*
X80303309Y-107984053D01*
X80324750Y-107983000D01*
X80762250Y-107983000D01*
X80783691Y-107984053D01*
X80783691Y-107984053D01*
G37*
D11*
X80543500Y-108458000D03*
D10*
G36*
X84351691Y-128113053D02*
G01*
X84372926Y-128116203D01*
X84393750Y-128121419D01*
X84413962Y-128128651D01*
X84433368Y-128137830D01*
X84451781Y-128148866D01*
X84469024Y-128161654D01*
X84484930Y-128176070D01*
X84499346Y-128191976D01*
X84512134Y-128209219D01*
X84523170Y-128227632D01*
X84532349Y-128247038D01*
X84539581Y-128267250D01*
X84544797Y-128288074D01*
X84547947Y-128309309D01*
X84549000Y-128330750D01*
X84549000Y-128768250D01*
X84547947Y-128789691D01*
X84544797Y-128810926D01*
X84539581Y-128831750D01*
X84532349Y-128851962D01*
X84523170Y-128871368D01*
X84512134Y-128889781D01*
X84499346Y-128907024D01*
X84484930Y-128922930D01*
X84469024Y-128937346D01*
X84451781Y-128950134D01*
X84433368Y-128961170D01*
X84413962Y-128970349D01*
X84393750Y-128977581D01*
X84372926Y-128982797D01*
X84351691Y-128985947D01*
X84330250Y-128987000D01*
X83817750Y-128987000D01*
X83796309Y-128985947D01*
X83775074Y-128982797D01*
X83754250Y-128977581D01*
X83734038Y-128970349D01*
X83714632Y-128961170D01*
X83696219Y-128950134D01*
X83678976Y-128937346D01*
X83663070Y-128922930D01*
X83648654Y-128907024D01*
X83635866Y-128889781D01*
X83624830Y-128871368D01*
X83615651Y-128851962D01*
X83608419Y-128831750D01*
X83603203Y-128810926D01*
X83600053Y-128789691D01*
X83599000Y-128768250D01*
X83599000Y-128330750D01*
X83600053Y-128309309D01*
X83603203Y-128288074D01*
X83608419Y-128267250D01*
X83615651Y-128247038D01*
X83624830Y-128227632D01*
X83635866Y-128209219D01*
X83648654Y-128191976D01*
X83663070Y-128176070D01*
X83678976Y-128161654D01*
X83696219Y-128148866D01*
X83714632Y-128137830D01*
X83734038Y-128128651D01*
X83754250Y-128121419D01*
X83775074Y-128116203D01*
X83796309Y-128113053D01*
X83817750Y-128112000D01*
X84330250Y-128112000D01*
X84351691Y-128113053D01*
X84351691Y-128113053D01*
G37*
D11*
X84074000Y-128549500D03*
D10*
G36*
X84351691Y-126538053D02*
G01*
X84372926Y-126541203D01*
X84393750Y-126546419D01*
X84413962Y-126553651D01*
X84433368Y-126562830D01*
X84451781Y-126573866D01*
X84469024Y-126586654D01*
X84484930Y-126601070D01*
X84499346Y-126616976D01*
X84512134Y-126634219D01*
X84523170Y-126652632D01*
X84532349Y-126672038D01*
X84539581Y-126692250D01*
X84544797Y-126713074D01*
X84547947Y-126734309D01*
X84549000Y-126755750D01*
X84549000Y-127193250D01*
X84547947Y-127214691D01*
X84544797Y-127235926D01*
X84539581Y-127256750D01*
X84532349Y-127276962D01*
X84523170Y-127296368D01*
X84512134Y-127314781D01*
X84499346Y-127332024D01*
X84484930Y-127347930D01*
X84469024Y-127362346D01*
X84451781Y-127375134D01*
X84433368Y-127386170D01*
X84413962Y-127395349D01*
X84393750Y-127402581D01*
X84372926Y-127407797D01*
X84351691Y-127410947D01*
X84330250Y-127412000D01*
X83817750Y-127412000D01*
X83796309Y-127410947D01*
X83775074Y-127407797D01*
X83754250Y-127402581D01*
X83734038Y-127395349D01*
X83714632Y-127386170D01*
X83696219Y-127375134D01*
X83678976Y-127362346D01*
X83663070Y-127347930D01*
X83648654Y-127332024D01*
X83635866Y-127314781D01*
X83624830Y-127296368D01*
X83615651Y-127276962D01*
X83608419Y-127256750D01*
X83603203Y-127235926D01*
X83600053Y-127214691D01*
X83599000Y-127193250D01*
X83599000Y-126755750D01*
X83600053Y-126734309D01*
X83603203Y-126713074D01*
X83608419Y-126692250D01*
X83615651Y-126672038D01*
X83624830Y-126652632D01*
X83635866Y-126634219D01*
X83648654Y-126616976D01*
X83663070Y-126601070D01*
X83678976Y-126586654D01*
X83696219Y-126573866D01*
X83714632Y-126562830D01*
X83734038Y-126553651D01*
X83754250Y-126546419D01*
X83775074Y-126541203D01*
X83796309Y-126538053D01*
X83817750Y-126537000D01*
X84330250Y-126537000D01*
X84351691Y-126538053D01*
X84351691Y-126538053D01*
G37*
D11*
X84074000Y-126974500D03*
D10*
G36*
X79208691Y-101888053D02*
G01*
X79229926Y-101891203D01*
X79250750Y-101896419D01*
X79270962Y-101903651D01*
X79290368Y-101912830D01*
X79308781Y-101923866D01*
X79326024Y-101936654D01*
X79341930Y-101951070D01*
X79356346Y-101966976D01*
X79369134Y-101984219D01*
X79380170Y-102002632D01*
X79389349Y-102022038D01*
X79396581Y-102042250D01*
X79401797Y-102063074D01*
X79404947Y-102084309D01*
X79406000Y-102105750D01*
X79406000Y-102618250D01*
X79404947Y-102639691D01*
X79401797Y-102660926D01*
X79396581Y-102681750D01*
X79389349Y-102701962D01*
X79380170Y-102721368D01*
X79369134Y-102739781D01*
X79356346Y-102757024D01*
X79341930Y-102772930D01*
X79326024Y-102787346D01*
X79308781Y-102800134D01*
X79290368Y-102811170D01*
X79270962Y-102820349D01*
X79250750Y-102827581D01*
X79229926Y-102832797D01*
X79208691Y-102835947D01*
X79187250Y-102837000D01*
X78749750Y-102837000D01*
X78728309Y-102835947D01*
X78707074Y-102832797D01*
X78686250Y-102827581D01*
X78666038Y-102820349D01*
X78646632Y-102811170D01*
X78628219Y-102800134D01*
X78610976Y-102787346D01*
X78595070Y-102772930D01*
X78580654Y-102757024D01*
X78567866Y-102739781D01*
X78556830Y-102721368D01*
X78547651Y-102701962D01*
X78540419Y-102681750D01*
X78535203Y-102660926D01*
X78532053Y-102639691D01*
X78531000Y-102618250D01*
X78531000Y-102105750D01*
X78532053Y-102084309D01*
X78535203Y-102063074D01*
X78540419Y-102042250D01*
X78547651Y-102022038D01*
X78556830Y-102002632D01*
X78567866Y-101984219D01*
X78580654Y-101966976D01*
X78595070Y-101951070D01*
X78610976Y-101936654D01*
X78628219Y-101923866D01*
X78646632Y-101912830D01*
X78666038Y-101903651D01*
X78686250Y-101896419D01*
X78707074Y-101891203D01*
X78728309Y-101888053D01*
X78749750Y-101887000D01*
X79187250Y-101887000D01*
X79208691Y-101888053D01*
X79208691Y-101888053D01*
G37*
D11*
X78968500Y-102362000D03*
D10*
G36*
X80783691Y-101888053D02*
G01*
X80804926Y-101891203D01*
X80825750Y-101896419D01*
X80845962Y-101903651D01*
X80865368Y-101912830D01*
X80883781Y-101923866D01*
X80901024Y-101936654D01*
X80916930Y-101951070D01*
X80931346Y-101966976D01*
X80944134Y-101984219D01*
X80955170Y-102002632D01*
X80964349Y-102022038D01*
X80971581Y-102042250D01*
X80976797Y-102063074D01*
X80979947Y-102084309D01*
X80981000Y-102105750D01*
X80981000Y-102618250D01*
X80979947Y-102639691D01*
X80976797Y-102660926D01*
X80971581Y-102681750D01*
X80964349Y-102701962D01*
X80955170Y-102721368D01*
X80944134Y-102739781D01*
X80931346Y-102757024D01*
X80916930Y-102772930D01*
X80901024Y-102787346D01*
X80883781Y-102800134D01*
X80865368Y-102811170D01*
X80845962Y-102820349D01*
X80825750Y-102827581D01*
X80804926Y-102832797D01*
X80783691Y-102835947D01*
X80762250Y-102837000D01*
X80324750Y-102837000D01*
X80303309Y-102835947D01*
X80282074Y-102832797D01*
X80261250Y-102827581D01*
X80241038Y-102820349D01*
X80221632Y-102811170D01*
X80203219Y-102800134D01*
X80185976Y-102787346D01*
X80170070Y-102772930D01*
X80155654Y-102757024D01*
X80142866Y-102739781D01*
X80131830Y-102721368D01*
X80122651Y-102701962D01*
X80115419Y-102681750D01*
X80110203Y-102660926D01*
X80107053Y-102639691D01*
X80106000Y-102618250D01*
X80106000Y-102105750D01*
X80107053Y-102084309D01*
X80110203Y-102063074D01*
X80115419Y-102042250D01*
X80122651Y-102022038D01*
X80131830Y-102002632D01*
X80142866Y-101984219D01*
X80155654Y-101966976D01*
X80170070Y-101951070D01*
X80185976Y-101936654D01*
X80203219Y-101923866D01*
X80221632Y-101912830D01*
X80241038Y-101903651D01*
X80261250Y-101896419D01*
X80282074Y-101891203D01*
X80303309Y-101888053D01*
X80324750Y-101887000D01*
X80762250Y-101887000D01*
X80783691Y-101888053D01*
X80783691Y-101888053D01*
G37*
D11*
X80543500Y-102362000D03*
D10*
G36*
X85875691Y-128113053D02*
G01*
X85896926Y-128116203D01*
X85917750Y-128121419D01*
X85937962Y-128128651D01*
X85957368Y-128137830D01*
X85975781Y-128148866D01*
X85993024Y-128161654D01*
X86008930Y-128176070D01*
X86023346Y-128191976D01*
X86036134Y-128209219D01*
X86047170Y-128227632D01*
X86056349Y-128247038D01*
X86063581Y-128267250D01*
X86068797Y-128288074D01*
X86071947Y-128309309D01*
X86073000Y-128330750D01*
X86073000Y-128768250D01*
X86071947Y-128789691D01*
X86068797Y-128810926D01*
X86063581Y-128831750D01*
X86056349Y-128851962D01*
X86047170Y-128871368D01*
X86036134Y-128889781D01*
X86023346Y-128907024D01*
X86008930Y-128922930D01*
X85993024Y-128937346D01*
X85975781Y-128950134D01*
X85957368Y-128961170D01*
X85937962Y-128970349D01*
X85917750Y-128977581D01*
X85896926Y-128982797D01*
X85875691Y-128985947D01*
X85854250Y-128987000D01*
X85341750Y-128987000D01*
X85320309Y-128985947D01*
X85299074Y-128982797D01*
X85278250Y-128977581D01*
X85258038Y-128970349D01*
X85238632Y-128961170D01*
X85220219Y-128950134D01*
X85202976Y-128937346D01*
X85187070Y-128922930D01*
X85172654Y-128907024D01*
X85159866Y-128889781D01*
X85148830Y-128871368D01*
X85139651Y-128851962D01*
X85132419Y-128831750D01*
X85127203Y-128810926D01*
X85124053Y-128789691D01*
X85123000Y-128768250D01*
X85123000Y-128330750D01*
X85124053Y-128309309D01*
X85127203Y-128288074D01*
X85132419Y-128267250D01*
X85139651Y-128247038D01*
X85148830Y-128227632D01*
X85159866Y-128209219D01*
X85172654Y-128191976D01*
X85187070Y-128176070D01*
X85202976Y-128161654D01*
X85220219Y-128148866D01*
X85238632Y-128137830D01*
X85258038Y-128128651D01*
X85278250Y-128121419D01*
X85299074Y-128116203D01*
X85320309Y-128113053D01*
X85341750Y-128112000D01*
X85854250Y-128112000D01*
X85875691Y-128113053D01*
X85875691Y-128113053D01*
G37*
D11*
X85598000Y-128549500D03*
D10*
G36*
X85875691Y-126538053D02*
G01*
X85896926Y-126541203D01*
X85917750Y-126546419D01*
X85937962Y-126553651D01*
X85957368Y-126562830D01*
X85975781Y-126573866D01*
X85993024Y-126586654D01*
X86008930Y-126601070D01*
X86023346Y-126616976D01*
X86036134Y-126634219D01*
X86047170Y-126652632D01*
X86056349Y-126672038D01*
X86063581Y-126692250D01*
X86068797Y-126713074D01*
X86071947Y-126734309D01*
X86073000Y-126755750D01*
X86073000Y-127193250D01*
X86071947Y-127214691D01*
X86068797Y-127235926D01*
X86063581Y-127256750D01*
X86056349Y-127276962D01*
X86047170Y-127296368D01*
X86036134Y-127314781D01*
X86023346Y-127332024D01*
X86008930Y-127347930D01*
X85993024Y-127362346D01*
X85975781Y-127375134D01*
X85957368Y-127386170D01*
X85937962Y-127395349D01*
X85917750Y-127402581D01*
X85896926Y-127407797D01*
X85875691Y-127410947D01*
X85854250Y-127412000D01*
X85341750Y-127412000D01*
X85320309Y-127410947D01*
X85299074Y-127407797D01*
X85278250Y-127402581D01*
X85258038Y-127395349D01*
X85238632Y-127386170D01*
X85220219Y-127375134D01*
X85202976Y-127362346D01*
X85187070Y-127347930D01*
X85172654Y-127332024D01*
X85159866Y-127314781D01*
X85148830Y-127296368D01*
X85139651Y-127276962D01*
X85132419Y-127256750D01*
X85127203Y-127235926D01*
X85124053Y-127214691D01*
X85123000Y-127193250D01*
X85123000Y-126755750D01*
X85124053Y-126734309D01*
X85127203Y-126713074D01*
X85132419Y-126692250D01*
X85139651Y-126672038D01*
X85148830Y-126652632D01*
X85159866Y-126634219D01*
X85172654Y-126616976D01*
X85187070Y-126601070D01*
X85202976Y-126586654D01*
X85220219Y-126573866D01*
X85238632Y-126562830D01*
X85258038Y-126553651D01*
X85278250Y-126546419D01*
X85299074Y-126541203D01*
X85320309Y-126538053D01*
X85341750Y-126537000D01*
X85854250Y-126537000D01*
X85875691Y-126538053D01*
X85875691Y-126538053D01*
G37*
D11*
X85598000Y-126974500D03*
D10*
G36*
X79208691Y-104936053D02*
G01*
X79229926Y-104939203D01*
X79250750Y-104944419D01*
X79270962Y-104951651D01*
X79290368Y-104960830D01*
X79308781Y-104971866D01*
X79326024Y-104984654D01*
X79341930Y-104999070D01*
X79356346Y-105014976D01*
X79369134Y-105032219D01*
X79380170Y-105050632D01*
X79389349Y-105070038D01*
X79396581Y-105090250D01*
X79401797Y-105111074D01*
X79404947Y-105132309D01*
X79406000Y-105153750D01*
X79406000Y-105666250D01*
X79404947Y-105687691D01*
X79401797Y-105708926D01*
X79396581Y-105729750D01*
X79389349Y-105749962D01*
X79380170Y-105769368D01*
X79369134Y-105787781D01*
X79356346Y-105805024D01*
X79341930Y-105820930D01*
X79326024Y-105835346D01*
X79308781Y-105848134D01*
X79290368Y-105859170D01*
X79270962Y-105868349D01*
X79250750Y-105875581D01*
X79229926Y-105880797D01*
X79208691Y-105883947D01*
X79187250Y-105885000D01*
X78749750Y-105885000D01*
X78728309Y-105883947D01*
X78707074Y-105880797D01*
X78686250Y-105875581D01*
X78666038Y-105868349D01*
X78646632Y-105859170D01*
X78628219Y-105848134D01*
X78610976Y-105835346D01*
X78595070Y-105820930D01*
X78580654Y-105805024D01*
X78567866Y-105787781D01*
X78556830Y-105769368D01*
X78547651Y-105749962D01*
X78540419Y-105729750D01*
X78535203Y-105708926D01*
X78532053Y-105687691D01*
X78531000Y-105666250D01*
X78531000Y-105153750D01*
X78532053Y-105132309D01*
X78535203Y-105111074D01*
X78540419Y-105090250D01*
X78547651Y-105070038D01*
X78556830Y-105050632D01*
X78567866Y-105032219D01*
X78580654Y-105014976D01*
X78595070Y-104999070D01*
X78610976Y-104984654D01*
X78628219Y-104971866D01*
X78646632Y-104960830D01*
X78666038Y-104951651D01*
X78686250Y-104944419D01*
X78707074Y-104939203D01*
X78728309Y-104936053D01*
X78749750Y-104935000D01*
X79187250Y-104935000D01*
X79208691Y-104936053D01*
X79208691Y-104936053D01*
G37*
D11*
X78968500Y-105410000D03*
D10*
G36*
X80783691Y-104936053D02*
G01*
X80804926Y-104939203D01*
X80825750Y-104944419D01*
X80845962Y-104951651D01*
X80865368Y-104960830D01*
X80883781Y-104971866D01*
X80901024Y-104984654D01*
X80916930Y-104999070D01*
X80931346Y-105014976D01*
X80944134Y-105032219D01*
X80955170Y-105050632D01*
X80964349Y-105070038D01*
X80971581Y-105090250D01*
X80976797Y-105111074D01*
X80979947Y-105132309D01*
X80981000Y-105153750D01*
X80981000Y-105666250D01*
X80979947Y-105687691D01*
X80976797Y-105708926D01*
X80971581Y-105729750D01*
X80964349Y-105749962D01*
X80955170Y-105769368D01*
X80944134Y-105787781D01*
X80931346Y-105805024D01*
X80916930Y-105820930D01*
X80901024Y-105835346D01*
X80883781Y-105848134D01*
X80865368Y-105859170D01*
X80845962Y-105868349D01*
X80825750Y-105875581D01*
X80804926Y-105880797D01*
X80783691Y-105883947D01*
X80762250Y-105885000D01*
X80324750Y-105885000D01*
X80303309Y-105883947D01*
X80282074Y-105880797D01*
X80261250Y-105875581D01*
X80241038Y-105868349D01*
X80221632Y-105859170D01*
X80203219Y-105848134D01*
X80185976Y-105835346D01*
X80170070Y-105820930D01*
X80155654Y-105805024D01*
X80142866Y-105787781D01*
X80131830Y-105769368D01*
X80122651Y-105749962D01*
X80115419Y-105729750D01*
X80110203Y-105708926D01*
X80107053Y-105687691D01*
X80106000Y-105666250D01*
X80106000Y-105153750D01*
X80107053Y-105132309D01*
X80110203Y-105111074D01*
X80115419Y-105090250D01*
X80122651Y-105070038D01*
X80131830Y-105050632D01*
X80142866Y-105032219D01*
X80155654Y-105014976D01*
X80170070Y-104999070D01*
X80185976Y-104984654D01*
X80203219Y-104971866D01*
X80221632Y-104960830D01*
X80241038Y-104951651D01*
X80261250Y-104944419D01*
X80282074Y-104939203D01*
X80303309Y-104936053D01*
X80324750Y-104935000D01*
X80762250Y-104935000D01*
X80783691Y-104936053D01*
X80783691Y-104936053D01*
G37*
D11*
X80543500Y-105410000D03*
D10*
G36*
X89431691Y-128113053D02*
G01*
X89452926Y-128116203D01*
X89473750Y-128121419D01*
X89493962Y-128128651D01*
X89513368Y-128137830D01*
X89531781Y-128148866D01*
X89549024Y-128161654D01*
X89564930Y-128176070D01*
X89579346Y-128191976D01*
X89592134Y-128209219D01*
X89603170Y-128227632D01*
X89612349Y-128247038D01*
X89619581Y-128267250D01*
X89624797Y-128288074D01*
X89627947Y-128309309D01*
X89629000Y-128330750D01*
X89629000Y-128768250D01*
X89627947Y-128789691D01*
X89624797Y-128810926D01*
X89619581Y-128831750D01*
X89612349Y-128851962D01*
X89603170Y-128871368D01*
X89592134Y-128889781D01*
X89579346Y-128907024D01*
X89564930Y-128922930D01*
X89549024Y-128937346D01*
X89531781Y-128950134D01*
X89513368Y-128961170D01*
X89493962Y-128970349D01*
X89473750Y-128977581D01*
X89452926Y-128982797D01*
X89431691Y-128985947D01*
X89410250Y-128987000D01*
X88897750Y-128987000D01*
X88876309Y-128985947D01*
X88855074Y-128982797D01*
X88834250Y-128977581D01*
X88814038Y-128970349D01*
X88794632Y-128961170D01*
X88776219Y-128950134D01*
X88758976Y-128937346D01*
X88743070Y-128922930D01*
X88728654Y-128907024D01*
X88715866Y-128889781D01*
X88704830Y-128871368D01*
X88695651Y-128851962D01*
X88688419Y-128831750D01*
X88683203Y-128810926D01*
X88680053Y-128789691D01*
X88679000Y-128768250D01*
X88679000Y-128330750D01*
X88680053Y-128309309D01*
X88683203Y-128288074D01*
X88688419Y-128267250D01*
X88695651Y-128247038D01*
X88704830Y-128227632D01*
X88715866Y-128209219D01*
X88728654Y-128191976D01*
X88743070Y-128176070D01*
X88758976Y-128161654D01*
X88776219Y-128148866D01*
X88794632Y-128137830D01*
X88814038Y-128128651D01*
X88834250Y-128121419D01*
X88855074Y-128116203D01*
X88876309Y-128113053D01*
X88897750Y-128112000D01*
X89410250Y-128112000D01*
X89431691Y-128113053D01*
X89431691Y-128113053D01*
G37*
D11*
X89154000Y-128549500D03*
D10*
G36*
X89431691Y-126538053D02*
G01*
X89452926Y-126541203D01*
X89473750Y-126546419D01*
X89493962Y-126553651D01*
X89513368Y-126562830D01*
X89531781Y-126573866D01*
X89549024Y-126586654D01*
X89564930Y-126601070D01*
X89579346Y-126616976D01*
X89592134Y-126634219D01*
X89603170Y-126652632D01*
X89612349Y-126672038D01*
X89619581Y-126692250D01*
X89624797Y-126713074D01*
X89627947Y-126734309D01*
X89629000Y-126755750D01*
X89629000Y-127193250D01*
X89627947Y-127214691D01*
X89624797Y-127235926D01*
X89619581Y-127256750D01*
X89612349Y-127276962D01*
X89603170Y-127296368D01*
X89592134Y-127314781D01*
X89579346Y-127332024D01*
X89564930Y-127347930D01*
X89549024Y-127362346D01*
X89531781Y-127375134D01*
X89513368Y-127386170D01*
X89493962Y-127395349D01*
X89473750Y-127402581D01*
X89452926Y-127407797D01*
X89431691Y-127410947D01*
X89410250Y-127412000D01*
X88897750Y-127412000D01*
X88876309Y-127410947D01*
X88855074Y-127407797D01*
X88834250Y-127402581D01*
X88814038Y-127395349D01*
X88794632Y-127386170D01*
X88776219Y-127375134D01*
X88758976Y-127362346D01*
X88743070Y-127347930D01*
X88728654Y-127332024D01*
X88715866Y-127314781D01*
X88704830Y-127296368D01*
X88695651Y-127276962D01*
X88688419Y-127256750D01*
X88683203Y-127235926D01*
X88680053Y-127214691D01*
X88679000Y-127193250D01*
X88679000Y-126755750D01*
X88680053Y-126734309D01*
X88683203Y-126713074D01*
X88688419Y-126692250D01*
X88695651Y-126672038D01*
X88704830Y-126652632D01*
X88715866Y-126634219D01*
X88728654Y-126616976D01*
X88743070Y-126601070D01*
X88758976Y-126586654D01*
X88776219Y-126573866D01*
X88794632Y-126562830D01*
X88814038Y-126553651D01*
X88834250Y-126546419D01*
X88855074Y-126541203D01*
X88876309Y-126538053D01*
X88897750Y-126537000D01*
X89410250Y-126537000D01*
X89431691Y-126538053D01*
X89431691Y-126538053D01*
G37*
D11*
X89154000Y-126974500D03*
D10*
G36*
X79208691Y-103412053D02*
G01*
X79229926Y-103415203D01*
X79250750Y-103420419D01*
X79270962Y-103427651D01*
X79290368Y-103436830D01*
X79308781Y-103447866D01*
X79326024Y-103460654D01*
X79341930Y-103475070D01*
X79356346Y-103490976D01*
X79369134Y-103508219D01*
X79380170Y-103526632D01*
X79389349Y-103546038D01*
X79396581Y-103566250D01*
X79401797Y-103587074D01*
X79404947Y-103608309D01*
X79406000Y-103629750D01*
X79406000Y-104142250D01*
X79404947Y-104163691D01*
X79401797Y-104184926D01*
X79396581Y-104205750D01*
X79389349Y-104225962D01*
X79380170Y-104245368D01*
X79369134Y-104263781D01*
X79356346Y-104281024D01*
X79341930Y-104296930D01*
X79326024Y-104311346D01*
X79308781Y-104324134D01*
X79290368Y-104335170D01*
X79270962Y-104344349D01*
X79250750Y-104351581D01*
X79229926Y-104356797D01*
X79208691Y-104359947D01*
X79187250Y-104361000D01*
X78749750Y-104361000D01*
X78728309Y-104359947D01*
X78707074Y-104356797D01*
X78686250Y-104351581D01*
X78666038Y-104344349D01*
X78646632Y-104335170D01*
X78628219Y-104324134D01*
X78610976Y-104311346D01*
X78595070Y-104296930D01*
X78580654Y-104281024D01*
X78567866Y-104263781D01*
X78556830Y-104245368D01*
X78547651Y-104225962D01*
X78540419Y-104205750D01*
X78535203Y-104184926D01*
X78532053Y-104163691D01*
X78531000Y-104142250D01*
X78531000Y-103629750D01*
X78532053Y-103608309D01*
X78535203Y-103587074D01*
X78540419Y-103566250D01*
X78547651Y-103546038D01*
X78556830Y-103526632D01*
X78567866Y-103508219D01*
X78580654Y-103490976D01*
X78595070Y-103475070D01*
X78610976Y-103460654D01*
X78628219Y-103447866D01*
X78646632Y-103436830D01*
X78666038Y-103427651D01*
X78686250Y-103420419D01*
X78707074Y-103415203D01*
X78728309Y-103412053D01*
X78749750Y-103411000D01*
X79187250Y-103411000D01*
X79208691Y-103412053D01*
X79208691Y-103412053D01*
G37*
D11*
X78968500Y-103886000D03*
D10*
G36*
X80783691Y-103412053D02*
G01*
X80804926Y-103415203D01*
X80825750Y-103420419D01*
X80845962Y-103427651D01*
X80865368Y-103436830D01*
X80883781Y-103447866D01*
X80901024Y-103460654D01*
X80916930Y-103475070D01*
X80931346Y-103490976D01*
X80944134Y-103508219D01*
X80955170Y-103526632D01*
X80964349Y-103546038D01*
X80971581Y-103566250D01*
X80976797Y-103587074D01*
X80979947Y-103608309D01*
X80981000Y-103629750D01*
X80981000Y-104142250D01*
X80979947Y-104163691D01*
X80976797Y-104184926D01*
X80971581Y-104205750D01*
X80964349Y-104225962D01*
X80955170Y-104245368D01*
X80944134Y-104263781D01*
X80931346Y-104281024D01*
X80916930Y-104296930D01*
X80901024Y-104311346D01*
X80883781Y-104324134D01*
X80865368Y-104335170D01*
X80845962Y-104344349D01*
X80825750Y-104351581D01*
X80804926Y-104356797D01*
X80783691Y-104359947D01*
X80762250Y-104361000D01*
X80324750Y-104361000D01*
X80303309Y-104359947D01*
X80282074Y-104356797D01*
X80261250Y-104351581D01*
X80241038Y-104344349D01*
X80221632Y-104335170D01*
X80203219Y-104324134D01*
X80185976Y-104311346D01*
X80170070Y-104296930D01*
X80155654Y-104281024D01*
X80142866Y-104263781D01*
X80131830Y-104245368D01*
X80122651Y-104225962D01*
X80115419Y-104205750D01*
X80110203Y-104184926D01*
X80107053Y-104163691D01*
X80106000Y-104142250D01*
X80106000Y-103629750D01*
X80107053Y-103608309D01*
X80110203Y-103587074D01*
X80115419Y-103566250D01*
X80122651Y-103546038D01*
X80131830Y-103526632D01*
X80142866Y-103508219D01*
X80155654Y-103490976D01*
X80170070Y-103475070D01*
X80185976Y-103460654D01*
X80203219Y-103447866D01*
X80221632Y-103436830D01*
X80241038Y-103427651D01*
X80261250Y-103420419D01*
X80282074Y-103415203D01*
X80303309Y-103412053D01*
X80324750Y-103411000D01*
X80762250Y-103411000D01*
X80783691Y-103412053D01*
X80783691Y-103412053D01*
G37*
D11*
X80543500Y-103886000D03*
D10*
G36*
X182282191Y-109635053D02*
G01*
X182303426Y-109638203D01*
X182324250Y-109643419D01*
X182344462Y-109650651D01*
X182363868Y-109659830D01*
X182382281Y-109670866D01*
X182399524Y-109683654D01*
X182415430Y-109698070D01*
X182429846Y-109713976D01*
X182442634Y-109731219D01*
X182453670Y-109749632D01*
X182462849Y-109769038D01*
X182470081Y-109789250D01*
X182475297Y-109810074D01*
X182478447Y-109831309D01*
X182479500Y-109852750D01*
X182479500Y-110365250D01*
X182478447Y-110386691D01*
X182475297Y-110407926D01*
X182470081Y-110428750D01*
X182462849Y-110448962D01*
X182453670Y-110468368D01*
X182442634Y-110486781D01*
X182429846Y-110504024D01*
X182415430Y-110519930D01*
X182399524Y-110534346D01*
X182382281Y-110547134D01*
X182363868Y-110558170D01*
X182344462Y-110567349D01*
X182324250Y-110574581D01*
X182303426Y-110579797D01*
X182282191Y-110582947D01*
X182260750Y-110584000D01*
X181823250Y-110584000D01*
X181801809Y-110582947D01*
X181780574Y-110579797D01*
X181759750Y-110574581D01*
X181739538Y-110567349D01*
X181720132Y-110558170D01*
X181701719Y-110547134D01*
X181684476Y-110534346D01*
X181668570Y-110519930D01*
X181654154Y-110504024D01*
X181641366Y-110486781D01*
X181630330Y-110468368D01*
X181621151Y-110448962D01*
X181613919Y-110428750D01*
X181608703Y-110407926D01*
X181605553Y-110386691D01*
X181604500Y-110365250D01*
X181604500Y-109852750D01*
X181605553Y-109831309D01*
X181608703Y-109810074D01*
X181613919Y-109789250D01*
X181621151Y-109769038D01*
X181630330Y-109749632D01*
X181641366Y-109731219D01*
X181654154Y-109713976D01*
X181668570Y-109698070D01*
X181684476Y-109683654D01*
X181701719Y-109670866D01*
X181720132Y-109659830D01*
X181739538Y-109650651D01*
X181759750Y-109643419D01*
X181780574Y-109638203D01*
X181801809Y-109635053D01*
X181823250Y-109634000D01*
X182260750Y-109634000D01*
X182282191Y-109635053D01*
X182282191Y-109635053D01*
G37*
D11*
X182042000Y-110109000D03*
D10*
G36*
X180707191Y-109635053D02*
G01*
X180728426Y-109638203D01*
X180749250Y-109643419D01*
X180769462Y-109650651D01*
X180788868Y-109659830D01*
X180807281Y-109670866D01*
X180824524Y-109683654D01*
X180840430Y-109698070D01*
X180854846Y-109713976D01*
X180867634Y-109731219D01*
X180878670Y-109749632D01*
X180887849Y-109769038D01*
X180895081Y-109789250D01*
X180900297Y-109810074D01*
X180903447Y-109831309D01*
X180904500Y-109852750D01*
X180904500Y-110365250D01*
X180903447Y-110386691D01*
X180900297Y-110407926D01*
X180895081Y-110428750D01*
X180887849Y-110448962D01*
X180878670Y-110468368D01*
X180867634Y-110486781D01*
X180854846Y-110504024D01*
X180840430Y-110519930D01*
X180824524Y-110534346D01*
X180807281Y-110547134D01*
X180788868Y-110558170D01*
X180769462Y-110567349D01*
X180749250Y-110574581D01*
X180728426Y-110579797D01*
X180707191Y-110582947D01*
X180685750Y-110584000D01*
X180248250Y-110584000D01*
X180226809Y-110582947D01*
X180205574Y-110579797D01*
X180184750Y-110574581D01*
X180164538Y-110567349D01*
X180145132Y-110558170D01*
X180126719Y-110547134D01*
X180109476Y-110534346D01*
X180093570Y-110519930D01*
X180079154Y-110504024D01*
X180066366Y-110486781D01*
X180055330Y-110468368D01*
X180046151Y-110448962D01*
X180038919Y-110428750D01*
X180033703Y-110407926D01*
X180030553Y-110386691D01*
X180029500Y-110365250D01*
X180029500Y-109852750D01*
X180030553Y-109831309D01*
X180033703Y-109810074D01*
X180038919Y-109789250D01*
X180046151Y-109769038D01*
X180055330Y-109749632D01*
X180066366Y-109731219D01*
X180079154Y-109713976D01*
X180093570Y-109698070D01*
X180109476Y-109683654D01*
X180126719Y-109670866D01*
X180145132Y-109659830D01*
X180164538Y-109650651D01*
X180184750Y-109643419D01*
X180205574Y-109638203D01*
X180226809Y-109635053D01*
X180248250Y-109634000D01*
X180685750Y-109634000D01*
X180707191Y-109635053D01*
X180707191Y-109635053D01*
G37*
D11*
X180467000Y-110109000D03*
D12*
X90042000Y-47752000D03*
X86742000Y-47752000D03*
X86742000Y-45212000D03*
X90042000Y-45212000D03*
X90042000Y-62484000D03*
X86742000Y-62484000D03*
X86742000Y-59944000D03*
X90042000Y-59944000D03*
X89788000Y-77216000D03*
X86488000Y-77216000D03*
X86488000Y-74676000D03*
X89788000Y-74676000D03*
X90042000Y-55118000D03*
X86742000Y-55118000D03*
X86742000Y-52578000D03*
X90042000Y-52578000D03*
X90042000Y-69850000D03*
X86742000Y-69850000D03*
X86742000Y-67310000D03*
X90042000Y-67310000D03*
X89788000Y-84582000D03*
X86488000Y-84582000D03*
X86488000Y-82042000D03*
X89788000Y-82042000D03*
D10*
G36*
X101869504Y-53990204D02*
G01*
X101893773Y-53993804D01*
X101917571Y-53999765D01*
X101940671Y-54008030D01*
X101962849Y-54018520D01*
X101983893Y-54031133D01*
X102003598Y-54045747D01*
X102021777Y-54062223D01*
X102038253Y-54080402D01*
X102052867Y-54100107D01*
X102065480Y-54121151D01*
X102075970Y-54143329D01*
X102084235Y-54166429D01*
X102090196Y-54190227D01*
X102093796Y-54214496D01*
X102095000Y-54239000D01*
X102095000Y-55489000D01*
X102093796Y-55513504D01*
X102090196Y-55537773D01*
X102084235Y-55561571D01*
X102075970Y-55584671D01*
X102065480Y-55606849D01*
X102052867Y-55627893D01*
X102038253Y-55647598D01*
X102021777Y-55665777D01*
X102003598Y-55682253D01*
X101983893Y-55696867D01*
X101962849Y-55709480D01*
X101940671Y-55719970D01*
X101917571Y-55728235D01*
X101893773Y-55734196D01*
X101869504Y-55737796D01*
X101845000Y-55739000D01*
X101095000Y-55739000D01*
X101070496Y-55737796D01*
X101046227Y-55734196D01*
X101022429Y-55728235D01*
X100999329Y-55719970D01*
X100977151Y-55709480D01*
X100956107Y-55696867D01*
X100936402Y-55682253D01*
X100918223Y-55665777D01*
X100901747Y-55647598D01*
X100887133Y-55627893D01*
X100874520Y-55606849D01*
X100864030Y-55584671D01*
X100855765Y-55561571D01*
X100849804Y-55537773D01*
X100846204Y-55513504D01*
X100845000Y-55489000D01*
X100845000Y-54239000D01*
X100846204Y-54214496D01*
X100849804Y-54190227D01*
X100855765Y-54166429D01*
X100864030Y-54143329D01*
X100874520Y-54121151D01*
X100887133Y-54100107D01*
X100901747Y-54080402D01*
X100918223Y-54062223D01*
X100936402Y-54045747D01*
X100956107Y-54031133D01*
X100977151Y-54018520D01*
X100999329Y-54008030D01*
X101022429Y-53999765D01*
X101046227Y-53993804D01*
X101070496Y-53990204D01*
X101095000Y-53989000D01*
X101845000Y-53989000D01*
X101869504Y-53990204D01*
X101869504Y-53990204D01*
G37*
D13*
X101470000Y-54864000D03*
D10*
G36*
X104669504Y-53990204D02*
G01*
X104693773Y-53993804D01*
X104717571Y-53999765D01*
X104740671Y-54008030D01*
X104762849Y-54018520D01*
X104783893Y-54031133D01*
X104803598Y-54045747D01*
X104821777Y-54062223D01*
X104838253Y-54080402D01*
X104852867Y-54100107D01*
X104865480Y-54121151D01*
X104875970Y-54143329D01*
X104884235Y-54166429D01*
X104890196Y-54190227D01*
X104893796Y-54214496D01*
X104895000Y-54239000D01*
X104895000Y-55489000D01*
X104893796Y-55513504D01*
X104890196Y-55537773D01*
X104884235Y-55561571D01*
X104875970Y-55584671D01*
X104865480Y-55606849D01*
X104852867Y-55627893D01*
X104838253Y-55647598D01*
X104821777Y-55665777D01*
X104803598Y-55682253D01*
X104783893Y-55696867D01*
X104762849Y-55709480D01*
X104740671Y-55719970D01*
X104717571Y-55728235D01*
X104693773Y-55734196D01*
X104669504Y-55737796D01*
X104645000Y-55739000D01*
X103895000Y-55739000D01*
X103870496Y-55737796D01*
X103846227Y-55734196D01*
X103822429Y-55728235D01*
X103799329Y-55719970D01*
X103777151Y-55709480D01*
X103756107Y-55696867D01*
X103736402Y-55682253D01*
X103718223Y-55665777D01*
X103701747Y-55647598D01*
X103687133Y-55627893D01*
X103674520Y-55606849D01*
X103664030Y-55584671D01*
X103655765Y-55561571D01*
X103649804Y-55537773D01*
X103646204Y-55513504D01*
X103645000Y-55489000D01*
X103645000Y-54239000D01*
X103646204Y-54214496D01*
X103649804Y-54190227D01*
X103655765Y-54166429D01*
X103664030Y-54143329D01*
X103674520Y-54121151D01*
X103687133Y-54100107D01*
X103701747Y-54080402D01*
X103718223Y-54062223D01*
X103736402Y-54045747D01*
X103756107Y-54031133D01*
X103777151Y-54018520D01*
X103799329Y-54008030D01*
X103822429Y-53999765D01*
X103846227Y-53993804D01*
X103870496Y-53990204D01*
X103895000Y-53989000D01*
X104645000Y-53989000D01*
X104669504Y-53990204D01*
X104669504Y-53990204D01*
G37*
D13*
X104270000Y-54864000D03*
D10*
G36*
X101869504Y-80914204D02*
G01*
X101893773Y-80917804D01*
X101917571Y-80923765D01*
X101940671Y-80932030D01*
X101962849Y-80942520D01*
X101983893Y-80955133D01*
X102003598Y-80969747D01*
X102021777Y-80986223D01*
X102038253Y-81004402D01*
X102052867Y-81024107D01*
X102065480Y-81045151D01*
X102075970Y-81067329D01*
X102084235Y-81090429D01*
X102090196Y-81114227D01*
X102093796Y-81138496D01*
X102095000Y-81163000D01*
X102095000Y-82413000D01*
X102093796Y-82437504D01*
X102090196Y-82461773D01*
X102084235Y-82485571D01*
X102075970Y-82508671D01*
X102065480Y-82530849D01*
X102052867Y-82551893D01*
X102038253Y-82571598D01*
X102021777Y-82589777D01*
X102003598Y-82606253D01*
X101983893Y-82620867D01*
X101962849Y-82633480D01*
X101940671Y-82643970D01*
X101917571Y-82652235D01*
X101893773Y-82658196D01*
X101869504Y-82661796D01*
X101845000Y-82663000D01*
X101095000Y-82663000D01*
X101070496Y-82661796D01*
X101046227Y-82658196D01*
X101022429Y-82652235D01*
X100999329Y-82643970D01*
X100977151Y-82633480D01*
X100956107Y-82620867D01*
X100936402Y-82606253D01*
X100918223Y-82589777D01*
X100901747Y-82571598D01*
X100887133Y-82551893D01*
X100874520Y-82530849D01*
X100864030Y-82508671D01*
X100855765Y-82485571D01*
X100849804Y-82461773D01*
X100846204Y-82437504D01*
X100845000Y-82413000D01*
X100845000Y-81163000D01*
X100846204Y-81138496D01*
X100849804Y-81114227D01*
X100855765Y-81090429D01*
X100864030Y-81067329D01*
X100874520Y-81045151D01*
X100887133Y-81024107D01*
X100901747Y-81004402D01*
X100918223Y-80986223D01*
X100936402Y-80969747D01*
X100956107Y-80955133D01*
X100977151Y-80942520D01*
X100999329Y-80932030D01*
X101022429Y-80923765D01*
X101046227Y-80917804D01*
X101070496Y-80914204D01*
X101095000Y-80913000D01*
X101845000Y-80913000D01*
X101869504Y-80914204D01*
X101869504Y-80914204D01*
G37*
D13*
X101470000Y-81788000D03*
D10*
G36*
X104669504Y-80914204D02*
G01*
X104693773Y-80917804D01*
X104717571Y-80923765D01*
X104740671Y-80932030D01*
X104762849Y-80942520D01*
X104783893Y-80955133D01*
X104803598Y-80969747D01*
X104821777Y-80986223D01*
X104838253Y-81004402D01*
X104852867Y-81024107D01*
X104865480Y-81045151D01*
X104875970Y-81067329D01*
X104884235Y-81090429D01*
X104890196Y-81114227D01*
X104893796Y-81138496D01*
X104895000Y-81163000D01*
X104895000Y-82413000D01*
X104893796Y-82437504D01*
X104890196Y-82461773D01*
X104884235Y-82485571D01*
X104875970Y-82508671D01*
X104865480Y-82530849D01*
X104852867Y-82551893D01*
X104838253Y-82571598D01*
X104821777Y-82589777D01*
X104803598Y-82606253D01*
X104783893Y-82620867D01*
X104762849Y-82633480D01*
X104740671Y-82643970D01*
X104717571Y-82652235D01*
X104693773Y-82658196D01*
X104669504Y-82661796D01*
X104645000Y-82663000D01*
X103895000Y-82663000D01*
X103870496Y-82661796D01*
X103846227Y-82658196D01*
X103822429Y-82652235D01*
X103799329Y-82643970D01*
X103777151Y-82633480D01*
X103756107Y-82620867D01*
X103736402Y-82606253D01*
X103718223Y-82589777D01*
X103701747Y-82571598D01*
X103687133Y-82551893D01*
X103674520Y-82530849D01*
X103664030Y-82508671D01*
X103655765Y-82485571D01*
X103649804Y-82461773D01*
X103646204Y-82437504D01*
X103645000Y-82413000D01*
X103645000Y-81163000D01*
X103646204Y-81138496D01*
X103649804Y-81114227D01*
X103655765Y-81090429D01*
X103664030Y-81067329D01*
X103674520Y-81045151D01*
X103687133Y-81024107D01*
X103701747Y-81004402D01*
X103718223Y-80986223D01*
X103736402Y-80969747D01*
X103756107Y-80955133D01*
X103777151Y-80942520D01*
X103799329Y-80932030D01*
X103822429Y-80923765D01*
X103846227Y-80917804D01*
X103870496Y-80914204D01*
X103895000Y-80913000D01*
X104645000Y-80913000D01*
X104669504Y-80914204D01*
X104669504Y-80914204D01*
G37*
D13*
X104270000Y-81788000D03*
D10*
G36*
X101869504Y-63642204D02*
G01*
X101893773Y-63645804D01*
X101917571Y-63651765D01*
X101940671Y-63660030D01*
X101962849Y-63670520D01*
X101983893Y-63683133D01*
X102003598Y-63697747D01*
X102021777Y-63714223D01*
X102038253Y-63732402D01*
X102052867Y-63752107D01*
X102065480Y-63773151D01*
X102075970Y-63795329D01*
X102084235Y-63818429D01*
X102090196Y-63842227D01*
X102093796Y-63866496D01*
X102095000Y-63891000D01*
X102095000Y-65141000D01*
X102093796Y-65165504D01*
X102090196Y-65189773D01*
X102084235Y-65213571D01*
X102075970Y-65236671D01*
X102065480Y-65258849D01*
X102052867Y-65279893D01*
X102038253Y-65299598D01*
X102021777Y-65317777D01*
X102003598Y-65334253D01*
X101983893Y-65348867D01*
X101962849Y-65361480D01*
X101940671Y-65371970D01*
X101917571Y-65380235D01*
X101893773Y-65386196D01*
X101869504Y-65389796D01*
X101845000Y-65391000D01*
X101095000Y-65391000D01*
X101070496Y-65389796D01*
X101046227Y-65386196D01*
X101022429Y-65380235D01*
X100999329Y-65371970D01*
X100977151Y-65361480D01*
X100956107Y-65348867D01*
X100936402Y-65334253D01*
X100918223Y-65317777D01*
X100901747Y-65299598D01*
X100887133Y-65279893D01*
X100874520Y-65258849D01*
X100864030Y-65236671D01*
X100855765Y-65213571D01*
X100849804Y-65189773D01*
X100846204Y-65165504D01*
X100845000Y-65141000D01*
X100845000Y-63891000D01*
X100846204Y-63866496D01*
X100849804Y-63842227D01*
X100855765Y-63818429D01*
X100864030Y-63795329D01*
X100874520Y-63773151D01*
X100887133Y-63752107D01*
X100901747Y-63732402D01*
X100918223Y-63714223D01*
X100936402Y-63697747D01*
X100956107Y-63683133D01*
X100977151Y-63670520D01*
X100999329Y-63660030D01*
X101022429Y-63651765D01*
X101046227Y-63645804D01*
X101070496Y-63642204D01*
X101095000Y-63641000D01*
X101845000Y-63641000D01*
X101869504Y-63642204D01*
X101869504Y-63642204D01*
G37*
D13*
X101470000Y-64516000D03*
D10*
G36*
X104669504Y-63642204D02*
G01*
X104693773Y-63645804D01*
X104717571Y-63651765D01*
X104740671Y-63660030D01*
X104762849Y-63670520D01*
X104783893Y-63683133D01*
X104803598Y-63697747D01*
X104821777Y-63714223D01*
X104838253Y-63732402D01*
X104852867Y-63752107D01*
X104865480Y-63773151D01*
X104875970Y-63795329D01*
X104884235Y-63818429D01*
X104890196Y-63842227D01*
X104893796Y-63866496D01*
X104895000Y-63891000D01*
X104895000Y-65141000D01*
X104893796Y-65165504D01*
X104890196Y-65189773D01*
X104884235Y-65213571D01*
X104875970Y-65236671D01*
X104865480Y-65258849D01*
X104852867Y-65279893D01*
X104838253Y-65299598D01*
X104821777Y-65317777D01*
X104803598Y-65334253D01*
X104783893Y-65348867D01*
X104762849Y-65361480D01*
X104740671Y-65371970D01*
X104717571Y-65380235D01*
X104693773Y-65386196D01*
X104669504Y-65389796D01*
X104645000Y-65391000D01*
X103895000Y-65391000D01*
X103870496Y-65389796D01*
X103846227Y-65386196D01*
X103822429Y-65380235D01*
X103799329Y-65371970D01*
X103777151Y-65361480D01*
X103756107Y-65348867D01*
X103736402Y-65334253D01*
X103718223Y-65317777D01*
X103701747Y-65299598D01*
X103687133Y-65279893D01*
X103674520Y-65258849D01*
X103664030Y-65236671D01*
X103655765Y-65213571D01*
X103649804Y-65189773D01*
X103646204Y-65165504D01*
X103645000Y-65141000D01*
X103645000Y-63891000D01*
X103646204Y-63866496D01*
X103649804Y-63842227D01*
X103655765Y-63818429D01*
X103664030Y-63795329D01*
X103674520Y-63773151D01*
X103687133Y-63752107D01*
X103701747Y-63732402D01*
X103718223Y-63714223D01*
X103736402Y-63697747D01*
X103756107Y-63683133D01*
X103777151Y-63670520D01*
X103799329Y-63660030D01*
X103822429Y-63651765D01*
X103846227Y-63645804D01*
X103870496Y-63642204D01*
X103895000Y-63641000D01*
X104645000Y-63641000D01*
X104669504Y-63642204D01*
X104669504Y-63642204D01*
G37*
D13*
X104270000Y-64516000D03*
D10*
G36*
X101869504Y-51450204D02*
G01*
X101893773Y-51453804D01*
X101917571Y-51459765D01*
X101940671Y-51468030D01*
X101962849Y-51478520D01*
X101983893Y-51491133D01*
X102003598Y-51505747D01*
X102021777Y-51522223D01*
X102038253Y-51540402D01*
X102052867Y-51560107D01*
X102065480Y-51581151D01*
X102075970Y-51603329D01*
X102084235Y-51626429D01*
X102090196Y-51650227D01*
X102093796Y-51674496D01*
X102095000Y-51699000D01*
X102095000Y-52949000D01*
X102093796Y-52973504D01*
X102090196Y-52997773D01*
X102084235Y-53021571D01*
X102075970Y-53044671D01*
X102065480Y-53066849D01*
X102052867Y-53087893D01*
X102038253Y-53107598D01*
X102021777Y-53125777D01*
X102003598Y-53142253D01*
X101983893Y-53156867D01*
X101962849Y-53169480D01*
X101940671Y-53179970D01*
X101917571Y-53188235D01*
X101893773Y-53194196D01*
X101869504Y-53197796D01*
X101845000Y-53199000D01*
X101095000Y-53199000D01*
X101070496Y-53197796D01*
X101046227Y-53194196D01*
X101022429Y-53188235D01*
X100999329Y-53179970D01*
X100977151Y-53169480D01*
X100956107Y-53156867D01*
X100936402Y-53142253D01*
X100918223Y-53125777D01*
X100901747Y-53107598D01*
X100887133Y-53087893D01*
X100874520Y-53066849D01*
X100864030Y-53044671D01*
X100855765Y-53021571D01*
X100849804Y-52997773D01*
X100846204Y-52973504D01*
X100845000Y-52949000D01*
X100845000Y-51699000D01*
X100846204Y-51674496D01*
X100849804Y-51650227D01*
X100855765Y-51626429D01*
X100864030Y-51603329D01*
X100874520Y-51581151D01*
X100887133Y-51560107D01*
X100901747Y-51540402D01*
X100918223Y-51522223D01*
X100936402Y-51505747D01*
X100956107Y-51491133D01*
X100977151Y-51478520D01*
X100999329Y-51468030D01*
X101022429Y-51459765D01*
X101046227Y-51453804D01*
X101070496Y-51450204D01*
X101095000Y-51449000D01*
X101845000Y-51449000D01*
X101869504Y-51450204D01*
X101869504Y-51450204D01*
G37*
D13*
X101470000Y-52324000D03*
D10*
G36*
X104669504Y-51450204D02*
G01*
X104693773Y-51453804D01*
X104717571Y-51459765D01*
X104740671Y-51468030D01*
X104762849Y-51478520D01*
X104783893Y-51491133D01*
X104803598Y-51505747D01*
X104821777Y-51522223D01*
X104838253Y-51540402D01*
X104852867Y-51560107D01*
X104865480Y-51581151D01*
X104875970Y-51603329D01*
X104884235Y-51626429D01*
X104890196Y-51650227D01*
X104893796Y-51674496D01*
X104895000Y-51699000D01*
X104895000Y-52949000D01*
X104893796Y-52973504D01*
X104890196Y-52997773D01*
X104884235Y-53021571D01*
X104875970Y-53044671D01*
X104865480Y-53066849D01*
X104852867Y-53087893D01*
X104838253Y-53107598D01*
X104821777Y-53125777D01*
X104803598Y-53142253D01*
X104783893Y-53156867D01*
X104762849Y-53169480D01*
X104740671Y-53179970D01*
X104717571Y-53188235D01*
X104693773Y-53194196D01*
X104669504Y-53197796D01*
X104645000Y-53199000D01*
X103895000Y-53199000D01*
X103870496Y-53197796D01*
X103846227Y-53194196D01*
X103822429Y-53188235D01*
X103799329Y-53179970D01*
X103777151Y-53169480D01*
X103756107Y-53156867D01*
X103736402Y-53142253D01*
X103718223Y-53125777D01*
X103701747Y-53107598D01*
X103687133Y-53087893D01*
X103674520Y-53066849D01*
X103664030Y-53044671D01*
X103655765Y-53021571D01*
X103649804Y-52997773D01*
X103646204Y-52973504D01*
X103645000Y-52949000D01*
X103645000Y-51699000D01*
X103646204Y-51674496D01*
X103649804Y-51650227D01*
X103655765Y-51626429D01*
X103664030Y-51603329D01*
X103674520Y-51581151D01*
X103687133Y-51560107D01*
X103701747Y-51540402D01*
X103718223Y-51522223D01*
X103736402Y-51505747D01*
X103756107Y-51491133D01*
X103777151Y-51478520D01*
X103799329Y-51468030D01*
X103822429Y-51459765D01*
X103846227Y-51453804D01*
X103870496Y-51450204D01*
X103895000Y-51449000D01*
X104645000Y-51449000D01*
X104669504Y-51450204D01*
X104669504Y-51450204D01*
G37*
D13*
X104270000Y-52324000D03*
D10*
G36*
X101869504Y-48910204D02*
G01*
X101893773Y-48913804D01*
X101917571Y-48919765D01*
X101940671Y-48928030D01*
X101962849Y-48938520D01*
X101983893Y-48951133D01*
X102003598Y-48965747D01*
X102021777Y-48982223D01*
X102038253Y-49000402D01*
X102052867Y-49020107D01*
X102065480Y-49041151D01*
X102075970Y-49063329D01*
X102084235Y-49086429D01*
X102090196Y-49110227D01*
X102093796Y-49134496D01*
X102095000Y-49159000D01*
X102095000Y-50409000D01*
X102093796Y-50433504D01*
X102090196Y-50457773D01*
X102084235Y-50481571D01*
X102075970Y-50504671D01*
X102065480Y-50526849D01*
X102052867Y-50547893D01*
X102038253Y-50567598D01*
X102021777Y-50585777D01*
X102003598Y-50602253D01*
X101983893Y-50616867D01*
X101962849Y-50629480D01*
X101940671Y-50639970D01*
X101917571Y-50648235D01*
X101893773Y-50654196D01*
X101869504Y-50657796D01*
X101845000Y-50659000D01*
X101095000Y-50659000D01*
X101070496Y-50657796D01*
X101046227Y-50654196D01*
X101022429Y-50648235D01*
X100999329Y-50639970D01*
X100977151Y-50629480D01*
X100956107Y-50616867D01*
X100936402Y-50602253D01*
X100918223Y-50585777D01*
X100901747Y-50567598D01*
X100887133Y-50547893D01*
X100874520Y-50526849D01*
X100864030Y-50504671D01*
X100855765Y-50481571D01*
X100849804Y-50457773D01*
X100846204Y-50433504D01*
X100845000Y-50409000D01*
X100845000Y-49159000D01*
X100846204Y-49134496D01*
X100849804Y-49110227D01*
X100855765Y-49086429D01*
X100864030Y-49063329D01*
X100874520Y-49041151D01*
X100887133Y-49020107D01*
X100901747Y-49000402D01*
X100918223Y-48982223D01*
X100936402Y-48965747D01*
X100956107Y-48951133D01*
X100977151Y-48938520D01*
X100999329Y-48928030D01*
X101022429Y-48919765D01*
X101046227Y-48913804D01*
X101070496Y-48910204D01*
X101095000Y-48909000D01*
X101845000Y-48909000D01*
X101869504Y-48910204D01*
X101869504Y-48910204D01*
G37*
D13*
X101470000Y-49784000D03*
D10*
G36*
X104669504Y-48910204D02*
G01*
X104693773Y-48913804D01*
X104717571Y-48919765D01*
X104740671Y-48928030D01*
X104762849Y-48938520D01*
X104783893Y-48951133D01*
X104803598Y-48965747D01*
X104821777Y-48982223D01*
X104838253Y-49000402D01*
X104852867Y-49020107D01*
X104865480Y-49041151D01*
X104875970Y-49063329D01*
X104884235Y-49086429D01*
X104890196Y-49110227D01*
X104893796Y-49134496D01*
X104895000Y-49159000D01*
X104895000Y-50409000D01*
X104893796Y-50433504D01*
X104890196Y-50457773D01*
X104884235Y-50481571D01*
X104875970Y-50504671D01*
X104865480Y-50526849D01*
X104852867Y-50547893D01*
X104838253Y-50567598D01*
X104821777Y-50585777D01*
X104803598Y-50602253D01*
X104783893Y-50616867D01*
X104762849Y-50629480D01*
X104740671Y-50639970D01*
X104717571Y-50648235D01*
X104693773Y-50654196D01*
X104669504Y-50657796D01*
X104645000Y-50659000D01*
X103895000Y-50659000D01*
X103870496Y-50657796D01*
X103846227Y-50654196D01*
X103822429Y-50648235D01*
X103799329Y-50639970D01*
X103777151Y-50629480D01*
X103756107Y-50616867D01*
X103736402Y-50602253D01*
X103718223Y-50585777D01*
X103701747Y-50567598D01*
X103687133Y-50547893D01*
X103674520Y-50526849D01*
X103664030Y-50504671D01*
X103655765Y-50481571D01*
X103649804Y-50457773D01*
X103646204Y-50433504D01*
X103645000Y-50409000D01*
X103645000Y-49159000D01*
X103646204Y-49134496D01*
X103649804Y-49110227D01*
X103655765Y-49086429D01*
X103664030Y-49063329D01*
X103674520Y-49041151D01*
X103687133Y-49020107D01*
X103701747Y-49000402D01*
X103718223Y-48982223D01*
X103736402Y-48965747D01*
X103756107Y-48951133D01*
X103777151Y-48938520D01*
X103799329Y-48928030D01*
X103822429Y-48919765D01*
X103846227Y-48913804D01*
X103870496Y-48910204D01*
X103895000Y-48909000D01*
X104645000Y-48909000D01*
X104669504Y-48910204D01*
X104669504Y-48910204D01*
G37*
D13*
X104270000Y-49784000D03*
D10*
G36*
X101869504Y-78374204D02*
G01*
X101893773Y-78377804D01*
X101917571Y-78383765D01*
X101940671Y-78392030D01*
X101962849Y-78402520D01*
X101983893Y-78415133D01*
X102003598Y-78429747D01*
X102021777Y-78446223D01*
X102038253Y-78464402D01*
X102052867Y-78484107D01*
X102065480Y-78505151D01*
X102075970Y-78527329D01*
X102084235Y-78550429D01*
X102090196Y-78574227D01*
X102093796Y-78598496D01*
X102095000Y-78623000D01*
X102095000Y-79873000D01*
X102093796Y-79897504D01*
X102090196Y-79921773D01*
X102084235Y-79945571D01*
X102075970Y-79968671D01*
X102065480Y-79990849D01*
X102052867Y-80011893D01*
X102038253Y-80031598D01*
X102021777Y-80049777D01*
X102003598Y-80066253D01*
X101983893Y-80080867D01*
X101962849Y-80093480D01*
X101940671Y-80103970D01*
X101917571Y-80112235D01*
X101893773Y-80118196D01*
X101869504Y-80121796D01*
X101845000Y-80123000D01*
X101095000Y-80123000D01*
X101070496Y-80121796D01*
X101046227Y-80118196D01*
X101022429Y-80112235D01*
X100999329Y-80103970D01*
X100977151Y-80093480D01*
X100956107Y-80080867D01*
X100936402Y-80066253D01*
X100918223Y-80049777D01*
X100901747Y-80031598D01*
X100887133Y-80011893D01*
X100874520Y-79990849D01*
X100864030Y-79968671D01*
X100855765Y-79945571D01*
X100849804Y-79921773D01*
X100846204Y-79897504D01*
X100845000Y-79873000D01*
X100845000Y-78623000D01*
X100846204Y-78598496D01*
X100849804Y-78574227D01*
X100855765Y-78550429D01*
X100864030Y-78527329D01*
X100874520Y-78505151D01*
X100887133Y-78484107D01*
X100901747Y-78464402D01*
X100918223Y-78446223D01*
X100936402Y-78429747D01*
X100956107Y-78415133D01*
X100977151Y-78402520D01*
X100999329Y-78392030D01*
X101022429Y-78383765D01*
X101046227Y-78377804D01*
X101070496Y-78374204D01*
X101095000Y-78373000D01*
X101845000Y-78373000D01*
X101869504Y-78374204D01*
X101869504Y-78374204D01*
G37*
D13*
X101470000Y-79248000D03*
D10*
G36*
X104669504Y-78374204D02*
G01*
X104693773Y-78377804D01*
X104717571Y-78383765D01*
X104740671Y-78392030D01*
X104762849Y-78402520D01*
X104783893Y-78415133D01*
X104803598Y-78429747D01*
X104821777Y-78446223D01*
X104838253Y-78464402D01*
X104852867Y-78484107D01*
X104865480Y-78505151D01*
X104875970Y-78527329D01*
X104884235Y-78550429D01*
X104890196Y-78574227D01*
X104893796Y-78598496D01*
X104895000Y-78623000D01*
X104895000Y-79873000D01*
X104893796Y-79897504D01*
X104890196Y-79921773D01*
X104884235Y-79945571D01*
X104875970Y-79968671D01*
X104865480Y-79990849D01*
X104852867Y-80011893D01*
X104838253Y-80031598D01*
X104821777Y-80049777D01*
X104803598Y-80066253D01*
X104783893Y-80080867D01*
X104762849Y-80093480D01*
X104740671Y-80103970D01*
X104717571Y-80112235D01*
X104693773Y-80118196D01*
X104669504Y-80121796D01*
X104645000Y-80123000D01*
X103895000Y-80123000D01*
X103870496Y-80121796D01*
X103846227Y-80118196D01*
X103822429Y-80112235D01*
X103799329Y-80103970D01*
X103777151Y-80093480D01*
X103756107Y-80080867D01*
X103736402Y-80066253D01*
X103718223Y-80049777D01*
X103701747Y-80031598D01*
X103687133Y-80011893D01*
X103674520Y-79990849D01*
X103664030Y-79968671D01*
X103655765Y-79945571D01*
X103649804Y-79921773D01*
X103646204Y-79897504D01*
X103645000Y-79873000D01*
X103645000Y-78623000D01*
X103646204Y-78598496D01*
X103649804Y-78574227D01*
X103655765Y-78550429D01*
X103664030Y-78527329D01*
X103674520Y-78505151D01*
X103687133Y-78484107D01*
X103701747Y-78464402D01*
X103718223Y-78446223D01*
X103736402Y-78429747D01*
X103756107Y-78415133D01*
X103777151Y-78402520D01*
X103799329Y-78392030D01*
X103822429Y-78383765D01*
X103846227Y-78377804D01*
X103870496Y-78374204D01*
X103895000Y-78373000D01*
X104645000Y-78373000D01*
X104669504Y-78374204D01*
X104669504Y-78374204D01*
G37*
D13*
X104270000Y-79248000D03*
D10*
G36*
X101869504Y-83454204D02*
G01*
X101893773Y-83457804D01*
X101917571Y-83463765D01*
X101940671Y-83472030D01*
X101962849Y-83482520D01*
X101983893Y-83495133D01*
X102003598Y-83509747D01*
X102021777Y-83526223D01*
X102038253Y-83544402D01*
X102052867Y-83564107D01*
X102065480Y-83585151D01*
X102075970Y-83607329D01*
X102084235Y-83630429D01*
X102090196Y-83654227D01*
X102093796Y-83678496D01*
X102095000Y-83703000D01*
X102095000Y-84953000D01*
X102093796Y-84977504D01*
X102090196Y-85001773D01*
X102084235Y-85025571D01*
X102075970Y-85048671D01*
X102065480Y-85070849D01*
X102052867Y-85091893D01*
X102038253Y-85111598D01*
X102021777Y-85129777D01*
X102003598Y-85146253D01*
X101983893Y-85160867D01*
X101962849Y-85173480D01*
X101940671Y-85183970D01*
X101917571Y-85192235D01*
X101893773Y-85198196D01*
X101869504Y-85201796D01*
X101845000Y-85203000D01*
X101095000Y-85203000D01*
X101070496Y-85201796D01*
X101046227Y-85198196D01*
X101022429Y-85192235D01*
X100999329Y-85183970D01*
X100977151Y-85173480D01*
X100956107Y-85160867D01*
X100936402Y-85146253D01*
X100918223Y-85129777D01*
X100901747Y-85111598D01*
X100887133Y-85091893D01*
X100874520Y-85070849D01*
X100864030Y-85048671D01*
X100855765Y-85025571D01*
X100849804Y-85001773D01*
X100846204Y-84977504D01*
X100845000Y-84953000D01*
X100845000Y-83703000D01*
X100846204Y-83678496D01*
X100849804Y-83654227D01*
X100855765Y-83630429D01*
X100864030Y-83607329D01*
X100874520Y-83585151D01*
X100887133Y-83564107D01*
X100901747Y-83544402D01*
X100918223Y-83526223D01*
X100936402Y-83509747D01*
X100956107Y-83495133D01*
X100977151Y-83482520D01*
X100999329Y-83472030D01*
X101022429Y-83463765D01*
X101046227Y-83457804D01*
X101070496Y-83454204D01*
X101095000Y-83453000D01*
X101845000Y-83453000D01*
X101869504Y-83454204D01*
X101869504Y-83454204D01*
G37*
D13*
X101470000Y-84328000D03*
D10*
G36*
X104669504Y-83454204D02*
G01*
X104693773Y-83457804D01*
X104717571Y-83463765D01*
X104740671Y-83472030D01*
X104762849Y-83482520D01*
X104783893Y-83495133D01*
X104803598Y-83509747D01*
X104821777Y-83526223D01*
X104838253Y-83544402D01*
X104852867Y-83564107D01*
X104865480Y-83585151D01*
X104875970Y-83607329D01*
X104884235Y-83630429D01*
X104890196Y-83654227D01*
X104893796Y-83678496D01*
X104895000Y-83703000D01*
X104895000Y-84953000D01*
X104893796Y-84977504D01*
X104890196Y-85001773D01*
X104884235Y-85025571D01*
X104875970Y-85048671D01*
X104865480Y-85070849D01*
X104852867Y-85091893D01*
X104838253Y-85111598D01*
X104821777Y-85129777D01*
X104803598Y-85146253D01*
X104783893Y-85160867D01*
X104762849Y-85173480D01*
X104740671Y-85183970D01*
X104717571Y-85192235D01*
X104693773Y-85198196D01*
X104669504Y-85201796D01*
X104645000Y-85203000D01*
X103895000Y-85203000D01*
X103870496Y-85201796D01*
X103846227Y-85198196D01*
X103822429Y-85192235D01*
X103799329Y-85183970D01*
X103777151Y-85173480D01*
X103756107Y-85160867D01*
X103736402Y-85146253D01*
X103718223Y-85129777D01*
X103701747Y-85111598D01*
X103687133Y-85091893D01*
X103674520Y-85070849D01*
X103664030Y-85048671D01*
X103655765Y-85025571D01*
X103649804Y-85001773D01*
X103646204Y-84977504D01*
X103645000Y-84953000D01*
X103645000Y-83703000D01*
X103646204Y-83678496D01*
X103649804Y-83654227D01*
X103655765Y-83630429D01*
X103664030Y-83607329D01*
X103674520Y-83585151D01*
X103687133Y-83564107D01*
X103701747Y-83544402D01*
X103718223Y-83526223D01*
X103736402Y-83509747D01*
X103756107Y-83495133D01*
X103777151Y-83482520D01*
X103799329Y-83472030D01*
X103822429Y-83463765D01*
X103846227Y-83457804D01*
X103870496Y-83454204D01*
X103895000Y-83453000D01*
X104645000Y-83453000D01*
X104669504Y-83454204D01*
X104669504Y-83454204D01*
G37*
D13*
X104270000Y-84328000D03*
D10*
G36*
X101869504Y-68722204D02*
G01*
X101893773Y-68725804D01*
X101917571Y-68731765D01*
X101940671Y-68740030D01*
X101962849Y-68750520D01*
X101983893Y-68763133D01*
X102003598Y-68777747D01*
X102021777Y-68794223D01*
X102038253Y-68812402D01*
X102052867Y-68832107D01*
X102065480Y-68853151D01*
X102075970Y-68875329D01*
X102084235Y-68898429D01*
X102090196Y-68922227D01*
X102093796Y-68946496D01*
X102095000Y-68971000D01*
X102095000Y-70221000D01*
X102093796Y-70245504D01*
X102090196Y-70269773D01*
X102084235Y-70293571D01*
X102075970Y-70316671D01*
X102065480Y-70338849D01*
X102052867Y-70359893D01*
X102038253Y-70379598D01*
X102021777Y-70397777D01*
X102003598Y-70414253D01*
X101983893Y-70428867D01*
X101962849Y-70441480D01*
X101940671Y-70451970D01*
X101917571Y-70460235D01*
X101893773Y-70466196D01*
X101869504Y-70469796D01*
X101845000Y-70471000D01*
X101095000Y-70471000D01*
X101070496Y-70469796D01*
X101046227Y-70466196D01*
X101022429Y-70460235D01*
X100999329Y-70451970D01*
X100977151Y-70441480D01*
X100956107Y-70428867D01*
X100936402Y-70414253D01*
X100918223Y-70397777D01*
X100901747Y-70379598D01*
X100887133Y-70359893D01*
X100874520Y-70338849D01*
X100864030Y-70316671D01*
X100855765Y-70293571D01*
X100849804Y-70269773D01*
X100846204Y-70245504D01*
X100845000Y-70221000D01*
X100845000Y-68971000D01*
X100846204Y-68946496D01*
X100849804Y-68922227D01*
X100855765Y-68898429D01*
X100864030Y-68875329D01*
X100874520Y-68853151D01*
X100887133Y-68832107D01*
X100901747Y-68812402D01*
X100918223Y-68794223D01*
X100936402Y-68777747D01*
X100956107Y-68763133D01*
X100977151Y-68750520D01*
X100999329Y-68740030D01*
X101022429Y-68731765D01*
X101046227Y-68725804D01*
X101070496Y-68722204D01*
X101095000Y-68721000D01*
X101845000Y-68721000D01*
X101869504Y-68722204D01*
X101869504Y-68722204D01*
G37*
D13*
X101470000Y-69596000D03*
D10*
G36*
X104669504Y-68722204D02*
G01*
X104693773Y-68725804D01*
X104717571Y-68731765D01*
X104740671Y-68740030D01*
X104762849Y-68750520D01*
X104783893Y-68763133D01*
X104803598Y-68777747D01*
X104821777Y-68794223D01*
X104838253Y-68812402D01*
X104852867Y-68832107D01*
X104865480Y-68853151D01*
X104875970Y-68875329D01*
X104884235Y-68898429D01*
X104890196Y-68922227D01*
X104893796Y-68946496D01*
X104895000Y-68971000D01*
X104895000Y-70221000D01*
X104893796Y-70245504D01*
X104890196Y-70269773D01*
X104884235Y-70293571D01*
X104875970Y-70316671D01*
X104865480Y-70338849D01*
X104852867Y-70359893D01*
X104838253Y-70379598D01*
X104821777Y-70397777D01*
X104803598Y-70414253D01*
X104783893Y-70428867D01*
X104762849Y-70441480D01*
X104740671Y-70451970D01*
X104717571Y-70460235D01*
X104693773Y-70466196D01*
X104669504Y-70469796D01*
X104645000Y-70471000D01*
X103895000Y-70471000D01*
X103870496Y-70469796D01*
X103846227Y-70466196D01*
X103822429Y-70460235D01*
X103799329Y-70451970D01*
X103777151Y-70441480D01*
X103756107Y-70428867D01*
X103736402Y-70414253D01*
X103718223Y-70397777D01*
X103701747Y-70379598D01*
X103687133Y-70359893D01*
X103674520Y-70338849D01*
X103664030Y-70316671D01*
X103655765Y-70293571D01*
X103649804Y-70269773D01*
X103646204Y-70245504D01*
X103645000Y-70221000D01*
X103645000Y-68971000D01*
X103646204Y-68946496D01*
X103649804Y-68922227D01*
X103655765Y-68898429D01*
X103664030Y-68875329D01*
X103674520Y-68853151D01*
X103687133Y-68832107D01*
X103701747Y-68812402D01*
X103718223Y-68794223D01*
X103736402Y-68777747D01*
X103756107Y-68763133D01*
X103777151Y-68750520D01*
X103799329Y-68740030D01*
X103822429Y-68731765D01*
X103846227Y-68725804D01*
X103870496Y-68722204D01*
X103895000Y-68721000D01*
X104645000Y-68721000D01*
X104669504Y-68722204D01*
X104669504Y-68722204D01*
G37*
D13*
X104270000Y-69596000D03*
D10*
G36*
X101869504Y-66182204D02*
G01*
X101893773Y-66185804D01*
X101917571Y-66191765D01*
X101940671Y-66200030D01*
X101962849Y-66210520D01*
X101983893Y-66223133D01*
X102003598Y-66237747D01*
X102021777Y-66254223D01*
X102038253Y-66272402D01*
X102052867Y-66292107D01*
X102065480Y-66313151D01*
X102075970Y-66335329D01*
X102084235Y-66358429D01*
X102090196Y-66382227D01*
X102093796Y-66406496D01*
X102095000Y-66431000D01*
X102095000Y-67681000D01*
X102093796Y-67705504D01*
X102090196Y-67729773D01*
X102084235Y-67753571D01*
X102075970Y-67776671D01*
X102065480Y-67798849D01*
X102052867Y-67819893D01*
X102038253Y-67839598D01*
X102021777Y-67857777D01*
X102003598Y-67874253D01*
X101983893Y-67888867D01*
X101962849Y-67901480D01*
X101940671Y-67911970D01*
X101917571Y-67920235D01*
X101893773Y-67926196D01*
X101869504Y-67929796D01*
X101845000Y-67931000D01*
X101095000Y-67931000D01*
X101070496Y-67929796D01*
X101046227Y-67926196D01*
X101022429Y-67920235D01*
X100999329Y-67911970D01*
X100977151Y-67901480D01*
X100956107Y-67888867D01*
X100936402Y-67874253D01*
X100918223Y-67857777D01*
X100901747Y-67839598D01*
X100887133Y-67819893D01*
X100874520Y-67798849D01*
X100864030Y-67776671D01*
X100855765Y-67753571D01*
X100849804Y-67729773D01*
X100846204Y-67705504D01*
X100845000Y-67681000D01*
X100845000Y-66431000D01*
X100846204Y-66406496D01*
X100849804Y-66382227D01*
X100855765Y-66358429D01*
X100864030Y-66335329D01*
X100874520Y-66313151D01*
X100887133Y-66292107D01*
X100901747Y-66272402D01*
X100918223Y-66254223D01*
X100936402Y-66237747D01*
X100956107Y-66223133D01*
X100977151Y-66210520D01*
X100999329Y-66200030D01*
X101022429Y-66191765D01*
X101046227Y-66185804D01*
X101070496Y-66182204D01*
X101095000Y-66181000D01*
X101845000Y-66181000D01*
X101869504Y-66182204D01*
X101869504Y-66182204D01*
G37*
D13*
X101470000Y-67056000D03*
D10*
G36*
X104669504Y-66182204D02*
G01*
X104693773Y-66185804D01*
X104717571Y-66191765D01*
X104740671Y-66200030D01*
X104762849Y-66210520D01*
X104783893Y-66223133D01*
X104803598Y-66237747D01*
X104821777Y-66254223D01*
X104838253Y-66272402D01*
X104852867Y-66292107D01*
X104865480Y-66313151D01*
X104875970Y-66335329D01*
X104884235Y-66358429D01*
X104890196Y-66382227D01*
X104893796Y-66406496D01*
X104895000Y-66431000D01*
X104895000Y-67681000D01*
X104893796Y-67705504D01*
X104890196Y-67729773D01*
X104884235Y-67753571D01*
X104875970Y-67776671D01*
X104865480Y-67798849D01*
X104852867Y-67819893D01*
X104838253Y-67839598D01*
X104821777Y-67857777D01*
X104803598Y-67874253D01*
X104783893Y-67888867D01*
X104762849Y-67901480D01*
X104740671Y-67911970D01*
X104717571Y-67920235D01*
X104693773Y-67926196D01*
X104669504Y-67929796D01*
X104645000Y-67931000D01*
X103895000Y-67931000D01*
X103870496Y-67929796D01*
X103846227Y-67926196D01*
X103822429Y-67920235D01*
X103799329Y-67911970D01*
X103777151Y-67901480D01*
X103756107Y-67888867D01*
X103736402Y-67874253D01*
X103718223Y-67857777D01*
X103701747Y-67839598D01*
X103687133Y-67819893D01*
X103674520Y-67798849D01*
X103664030Y-67776671D01*
X103655765Y-67753571D01*
X103649804Y-67729773D01*
X103646204Y-67705504D01*
X103645000Y-67681000D01*
X103645000Y-66431000D01*
X103646204Y-66406496D01*
X103649804Y-66382227D01*
X103655765Y-66358429D01*
X103664030Y-66335329D01*
X103674520Y-66313151D01*
X103687133Y-66292107D01*
X103701747Y-66272402D01*
X103718223Y-66254223D01*
X103736402Y-66237747D01*
X103756107Y-66223133D01*
X103777151Y-66210520D01*
X103799329Y-66200030D01*
X103822429Y-66191765D01*
X103846227Y-66185804D01*
X103870496Y-66182204D01*
X103895000Y-66181000D01*
X104645000Y-66181000D01*
X104669504Y-66182204D01*
X104669504Y-66182204D01*
G37*
D13*
X104270000Y-67056000D03*
D10*
G36*
X165885691Y-105583053D02*
G01*
X165906926Y-105586203D01*
X165927750Y-105591419D01*
X165947962Y-105598651D01*
X165967368Y-105607830D01*
X165985781Y-105618866D01*
X166003024Y-105631654D01*
X166018930Y-105646070D01*
X166033346Y-105661976D01*
X166046134Y-105679219D01*
X166057170Y-105697632D01*
X166066349Y-105717038D01*
X166073581Y-105737250D01*
X166078797Y-105758074D01*
X166081947Y-105779309D01*
X166083000Y-105800750D01*
X166083000Y-106238250D01*
X166081947Y-106259691D01*
X166078797Y-106280926D01*
X166073581Y-106301750D01*
X166066349Y-106321962D01*
X166057170Y-106341368D01*
X166046134Y-106359781D01*
X166033346Y-106377024D01*
X166018930Y-106392930D01*
X166003024Y-106407346D01*
X165985781Y-106420134D01*
X165967368Y-106431170D01*
X165947962Y-106440349D01*
X165927750Y-106447581D01*
X165906926Y-106452797D01*
X165885691Y-106455947D01*
X165864250Y-106457000D01*
X165351750Y-106457000D01*
X165330309Y-106455947D01*
X165309074Y-106452797D01*
X165288250Y-106447581D01*
X165268038Y-106440349D01*
X165248632Y-106431170D01*
X165230219Y-106420134D01*
X165212976Y-106407346D01*
X165197070Y-106392930D01*
X165182654Y-106377024D01*
X165169866Y-106359781D01*
X165158830Y-106341368D01*
X165149651Y-106321962D01*
X165142419Y-106301750D01*
X165137203Y-106280926D01*
X165134053Y-106259691D01*
X165133000Y-106238250D01*
X165133000Y-105800750D01*
X165134053Y-105779309D01*
X165137203Y-105758074D01*
X165142419Y-105737250D01*
X165149651Y-105717038D01*
X165158830Y-105697632D01*
X165169866Y-105679219D01*
X165182654Y-105661976D01*
X165197070Y-105646070D01*
X165212976Y-105631654D01*
X165230219Y-105618866D01*
X165248632Y-105607830D01*
X165268038Y-105598651D01*
X165288250Y-105591419D01*
X165309074Y-105586203D01*
X165330309Y-105583053D01*
X165351750Y-105582000D01*
X165864250Y-105582000D01*
X165885691Y-105583053D01*
X165885691Y-105583053D01*
G37*
D11*
X165608000Y-106019500D03*
D10*
G36*
X165885691Y-107158053D02*
G01*
X165906926Y-107161203D01*
X165927750Y-107166419D01*
X165947962Y-107173651D01*
X165967368Y-107182830D01*
X165985781Y-107193866D01*
X166003024Y-107206654D01*
X166018930Y-107221070D01*
X166033346Y-107236976D01*
X166046134Y-107254219D01*
X166057170Y-107272632D01*
X166066349Y-107292038D01*
X166073581Y-107312250D01*
X166078797Y-107333074D01*
X166081947Y-107354309D01*
X166083000Y-107375750D01*
X166083000Y-107813250D01*
X166081947Y-107834691D01*
X166078797Y-107855926D01*
X166073581Y-107876750D01*
X166066349Y-107896962D01*
X166057170Y-107916368D01*
X166046134Y-107934781D01*
X166033346Y-107952024D01*
X166018930Y-107967930D01*
X166003024Y-107982346D01*
X165985781Y-107995134D01*
X165967368Y-108006170D01*
X165947962Y-108015349D01*
X165927750Y-108022581D01*
X165906926Y-108027797D01*
X165885691Y-108030947D01*
X165864250Y-108032000D01*
X165351750Y-108032000D01*
X165330309Y-108030947D01*
X165309074Y-108027797D01*
X165288250Y-108022581D01*
X165268038Y-108015349D01*
X165248632Y-108006170D01*
X165230219Y-107995134D01*
X165212976Y-107982346D01*
X165197070Y-107967930D01*
X165182654Y-107952024D01*
X165169866Y-107934781D01*
X165158830Y-107916368D01*
X165149651Y-107896962D01*
X165142419Y-107876750D01*
X165137203Y-107855926D01*
X165134053Y-107834691D01*
X165133000Y-107813250D01*
X165133000Y-107375750D01*
X165134053Y-107354309D01*
X165137203Y-107333074D01*
X165142419Y-107312250D01*
X165149651Y-107292038D01*
X165158830Y-107272632D01*
X165169866Y-107254219D01*
X165182654Y-107236976D01*
X165197070Y-107221070D01*
X165212976Y-107206654D01*
X165230219Y-107193866D01*
X165248632Y-107182830D01*
X165268038Y-107173651D01*
X165288250Y-107166419D01*
X165309074Y-107161203D01*
X165330309Y-107158053D01*
X165351750Y-107157000D01*
X165864250Y-107157000D01*
X165885691Y-107158053D01*
X165885691Y-107158053D01*
G37*
D11*
X165608000Y-107594500D03*
D10*
G36*
X155471691Y-107640553D02*
G01*
X155492926Y-107643703D01*
X155513750Y-107648919D01*
X155533962Y-107656151D01*
X155553368Y-107665330D01*
X155571781Y-107676366D01*
X155589024Y-107689154D01*
X155604930Y-107703570D01*
X155619346Y-107719476D01*
X155632134Y-107736719D01*
X155643170Y-107755132D01*
X155652349Y-107774538D01*
X155659581Y-107794750D01*
X155664797Y-107815574D01*
X155667947Y-107836809D01*
X155669000Y-107858250D01*
X155669000Y-108295750D01*
X155667947Y-108317191D01*
X155664797Y-108338426D01*
X155659581Y-108359250D01*
X155652349Y-108379462D01*
X155643170Y-108398868D01*
X155632134Y-108417281D01*
X155619346Y-108434524D01*
X155604930Y-108450430D01*
X155589024Y-108464846D01*
X155571781Y-108477634D01*
X155553368Y-108488670D01*
X155533962Y-108497849D01*
X155513750Y-108505081D01*
X155492926Y-108510297D01*
X155471691Y-108513447D01*
X155450250Y-108514500D01*
X154937750Y-108514500D01*
X154916309Y-108513447D01*
X154895074Y-108510297D01*
X154874250Y-108505081D01*
X154854038Y-108497849D01*
X154834632Y-108488670D01*
X154816219Y-108477634D01*
X154798976Y-108464846D01*
X154783070Y-108450430D01*
X154768654Y-108434524D01*
X154755866Y-108417281D01*
X154744830Y-108398868D01*
X154735651Y-108379462D01*
X154728419Y-108359250D01*
X154723203Y-108338426D01*
X154720053Y-108317191D01*
X154719000Y-108295750D01*
X154719000Y-107858250D01*
X154720053Y-107836809D01*
X154723203Y-107815574D01*
X154728419Y-107794750D01*
X154735651Y-107774538D01*
X154744830Y-107755132D01*
X154755866Y-107736719D01*
X154768654Y-107719476D01*
X154783070Y-107703570D01*
X154798976Y-107689154D01*
X154816219Y-107676366D01*
X154834632Y-107665330D01*
X154854038Y-107656151D01*
X154874250Y-107648919D01*
X154895074Y-107643703D01*
X154916309Y-107640553D01*
X154937750Y-107639500D01*
X155450250Y-107639500D01*
X155471691Y-107640553D01*
X155471691Y-107640553D01*
G37*
D11*
X155194000Y-108077000D03*
D10*
G36*
X155471691Y-106065553D02*
G01*
X155492926Y-106068703D01*
X155513750Y-106073919D01*
X155533962Y-106081151D01*
X155553368Y-106090330D01*
X155571781Y-106101366D01*
X155589024Y-106114154D01*
X155604930Y-106128570D01*
X155619346Y-106144476D01*
X155632134Y-106161719D01*
X155643170Y-106180132D01*
X155652349Y-106199538D01*
X155659581Y-106219750D01*
X155664797Y-106240574D01*
X155667947Y-106261809D01*
X155669000Y-106283250D01*
X155669000Y-106720750D01*
X155667947Y-106742191D01*
X155664797Y-106763426D01*
X155659581Y-106784250D01*
X155652349Y-106804462D01*
X155643170Y-106823868D01*
X155632134Y-106842281D01*
X155619346Y-106859524D01*
X155604930Y-106875430D01*
X155589024Y-106889846D01*
X155571781Y-106902634D01*
X155553368Y-106913670D01*
X155533962Y-106922849D01*
X155513750Y-106930081D01*
X155492926Y-106935297D01*
X155471691Y-106938447D01*
X155450250Y-106939500D01*
X154937750Y-106939500D01*
X154916309Y-106938447D01*
X154895074Y-106935297D01*
X154874250Y-106930081D01*
X154854038Y-106922849D01*
X154834632Y-106913670D01*
X154816219Y-106902634D01*
X154798976Y-106889846D01*
X154783070Y-106875430D01*
X154768654Y-106859524D01*
X154755866Y-106842281D01*
X154744830Y-106823868D01*
X154735651Y-106804462D01*
X154728419Y-106784250D01*
X154723203Y-106763426D01*
X154720053Y-106742191D01*
X154719000Y-106720750D01*
X154719000Y-106283250D01*
X154720053Y-106261809D01*
X154723203Y-106240574D01*
X154728419Y-106219750D01*
X154735651Y-106199538D01*
X154744830Y-106180132D01*
X154755866Y-106161719D01*
X154768654Y-106144476D01*
X154783070Y-106128570D01*
X154798976Y-106114154D01*
X154816219Y-106101366D01*
X154834632Y-106090330D01*
X154854038Y-106081151D01*
X154874250Y-106073919D01*
X154895074Y-106068703D01*
X154916309Y-106065553D01*
X154937750Y-106064500D01*
X155450250Y-106064500D01*
X155471691Y-106065553D01*
X155471691Y-106065553D01*
G37*
D11*
X155194000Y-106502000D03*
D10*
G36*
X156106691Y-128824053D02*
G01*
X156127926Y-128827203D01*
X156148750Y-128832419D01*
X156168962Y-128839651D01*
X156188368Y-128848830D01*
X156206781Y-128859866D01*
X156224024Y-128872654D01*
X156239930Y-128887070D01*
X156254346Y-128902976D01*
X156267134Y-128920219D01*
X156278170Y-128938632D01*
X156287349Y-128958038D01*
X156294581Y-128978250D01*
X156299797Y-128999074D01*
X156302947Y-129020309D01*
X156304000Y-129041750D01*
X156304000Y-129479250D01*
X156302947Y-129500691D01*
X156299797Y-129521926D01*
X156294581Y-129542750D01*
X156287349Y-129562962D01*
X156278170Y-129582368D01*
X156267134Y-129600781D01*
X156254346Y-129618024D01*
X156239930Y-129633930D01*
X156224024Y-129648346D01*
X156206781Y-129661134D01*
X156188368Y-129672170D01*
X156168962Y-129681349D01*
X156148750Y-129688581D01*
X156127926Y-129693797D01*
X156106691Y-129696947D01*
X156085250Y-129698000D01*
X155572750Y-129698000D01*
X155551309Y-129696947D01*
X155530074Y-129693797D01*
X155509250Y-129688581D01*
X155489038Y-129681349D01*
X155469632Y-129672170D01*
X155451219Y-129661134D01*
X155433976Y-129648346D01*
X155418070Y-129633930D01*
X155403654Y-129618024D01*
X155390866Y-129600781D01*
X155379830Y-129582368D01*
X155370651Y-129562962D01*
X155363419Y-129542750D01*
X155358203Y-129521926D01*
X155355053Y-129500691D01*
X155354000Y-129479250D01*
X155354000Y-129041750D01*
X155355053Y-129020309D01*
X155358203Y-128999074D01*
X155363419Y-128978250D01*
X155370651Y-128958038D01*
X155379830Y-128938632D01*
X155390866Y-128920219D01*
X155403654Y-128902976D01*
X155418070Y-128887070D01*
X155433976Y-128872654D01*
X155451219Y-128859866D01*
X155469632Y-128848830D01*
X155489038Y-128839651D01*
X155509250Y-128832419D01*
X155530074Y-128827203D01*
X155551309Y-128824053D01*
X155572750Y-128823000D01*
X156085250Y-128823000D01*
X156106691Y-128824053D01*
X156106691Y-128824053D01*
G37*
D11*
X155829000Y-129260500D03*
D10*
G36*
X156106691Y-130399053D02*
G01*
X156127926Y-130402203D01*
X156148750Y-130407419D01*
X156168962Y-130414651D01*
X156188368Y-130423830D01*
X156206781Y-130434866D01*
X156224024Y-130447654D01*
X156239930Y-130462070D01*
X156254346Y-130477976D01*
X156267134Y-130495219D01*
X156278170Y-130513632D01*
X156287349Y-130533038D01*
X156294581Y-130553250D01*
X156299797Y-130574074D01*
X156302947Y-130595309D01*
X156304000Y-130616750D01*
X156304000Y-131054250D01*
X156302947Y-131075691D01*
X156299797Y-131096926D01*
X156294581Y-131117750D01*
X156287349Y-131137962D01*
X156278170Y-131157368D01*
X156267134Y-131175781D01*
X156254346Y-131193024D01*
X156239930Y-131208930D01*
X156224024Y-131223346D01*
X156206781Y-131236134D01*
X156188368Y-131247170D01*
X156168962Y-131256349D01*
X156148750Y-131263581D01*
X156127926Y-131268797D01*
X156106691Y-131271947D01*
X156085250Y-131273000D01*
X155572750Y-131273000D01*
X155551309Y-131271947D01*
X155530074Y-131268797D01*
X155509250Y-131263581D01*
X155489038Y-131256349D01*
X155469632Y-131247170D01*
X155451219Y-131236134D01*
X155433976Y-131223346D01*
X155418070Y-131208930D01*
X155403654Y-131193024D01*
X155390866Y-131175781D01*
X155379830Y-131157368D01*
X155370651Y-131137962D01*
X155363419Y-131117750D01*
X155358203Y-131096926D01*
X155355053Y-131075691D01*
X155354000Y-131054250D01*
X155354000Y-130616750D01*
X155355053Y-130595309D01*
X155358203Y-130574074D01*
X155363419Y-130553250D01*
X155370651Y-130533038D01*
X155379830Y-130513632D01*
X155390866Y-130495219D01*
X155403654Y-130477976D01*
X155418070Y-130462070D01*
X155433976Y-130447654D01*
X155451219Y-130434866D01*
X155469632Y-130423830D01*
X155489038Y-130414651D01*
X155509250Y-130407419D01*
X155530074Y-130402203D01*
X155551309Y-130399053D01*
X155572750Y-130398000D01*
X156085250Y-130398000D01*
X156106691Y-130399053D01*
X156106691Y-130399053D01*
G37*
D11*
X155829000Y-130835500D03*
D10*
G36*
X151661691Y-115768553D02*
G01*
X151682926Y-115771703D01*
X151703750Y-115776919D01*
X151723962Y-115784151D01*
X151743368Y-115793330D01*
X151761781Y-115804366D01*
X151779024Y-115817154D01*
X151794930Y-115831570D01*
X151809346Y-115847476D01*
X151822134Y-115864719D01*
X151833170Y-115883132D01*
X151842349Y-115902538D01*
X151849581Y-115922750D01*
X151854797Y-115943574D01*
X151857947Y-115964809D01*
X151859000Y-115986250D01*
X151859000Y-116423750D01*
X151857947Y-116445191D01*
X151854797Y-116466426D01*
X151849581Y-116487250D01*
X151842349Y-116507462D01*
X151833170Y-116526868D01*
X151822134Y-116545281D01*
X151809346Y-116562524D01*
X151794930Y-116578430D01*
X151779024Y-116592846D01*
X151761781Y-116605634D01*
X151743368Y-116616670D01*
X151723962Y-116625849D01*
X151703750Y-116633081D01*
X151682926Y-116638297D01*
X151661691Y-116641447D01*
X151640250Y-116642500D01*
X151127750Y-116642500D01*
X151106309Y-116641447D01*
X151085074Y-116638297D01*
X151064250Y-116633081D01*
X151044038Y-116625849D01*
X151024632Y-116616670D01*
X151006219Y-116605634D01*
X150988976Y-116592846D01*
X150973070Y-116578430D01*
X150958654Y-116562524D01*
X150945866Y-116545281D01*
X150934830Y-116526868D01*
X150925651Y-116507462D01*
X150918419Y-116487250D01*
X150913203Y-116466426D01*
X150910053Y-116445191D01*
X150909000Y-116423750D01*
X150909000Y-115986250D01*
X150910053Y-115964809D01*
X150913203Y-115943574D01*
X150918419Y-115922750D01*
X150925651Y-115902538D01*
X150934830Y-115883132D01*
X150945866Y-115864719D01*
X150958654Y-115847476D01*
X150973070Y-115831570D01*
X150988976Y-115817154D01*
X151006219Y-115804366D01*
X151024632Y-115793330D01*
X151044038Y-115784151D01*
X151064250Y-115776919D01*
X151085074Y-115771703D01*
X151106309Y-115768553D01*
X151127750Y-115767500D01*
X151640250Y-115767500D01*
X151661691Y-115768553D01*
X151661691Y-115768553D01*
G37*
D11*
X151384000Y-116205000D03*
D10*
G36*
X151661691Y-114193553D02*
G01*
X151682926Y-114196703D01*
X151703750Y-114201919D01*
X151723962Y-114209151D01*
X151743368Y-114218330D01*
X151761781Y-114229366D01*
X151779024Y-114242154D01*
X151794930Y-114256570D01*
X151809346Y-114272476D01*
X151822134Y-114289719D01*
X151833170Y-114308132D01*
X151842349Y-114327538D01*
X151849581Y-114347750D01*
X151854797Y-114368574D01*
X151857947Y-114389809D01*
X151859000Y-114411250D01*
X151859000Y-114848750D01*
X151857947Y-114870191D01*
X151854797Y-114891426D01*
X151849581Y-114912250D01*
X151842349Y-114932462D01*
X151833170Y-114951868D01*
X151822134Y-114970281D01*
X151809346Y-114987524D01*
X151794930Y-115003430D01*
X151779024Y-115017846D01*
X151761781Y-115030634D01*
X151743368Y-115041670D01*
X151723962Y-115050849D01*
X151703750Y-115058081D01*
X151682926Y-115063297D01*
X151661691Y-115066447D01*
X151640250Y-115067500D01*
X151127750Y-115067500D01*
X151106309Y-115066447D01*
X151085074Y-115063297D01*
X151064250Y-115058081D01*
X151044038Y-115050849D01*
X151024632Y-115041670D01*
X151006219Y-115030634D01*
X150988976Y-115017846D01*
X150973070Y-115003430D01*
X150958654Y-114987524D01*
X150945866Y-114970281D01*
X150934830Y-114951868D01*
X150925651Y-114932462D01*
X150918419Y-114912250D01*
X150913203Y-114891426D01*
X150910053Y-114870191D01*
X150909000Y-114848750D01*
X150909000Y-114411250D01*
X150910053Y-114389809D01*
X150913203Y-114368574D01*
X150918419Y-114347750D01*
X150925651Y-114327538D01*
X150934830Y-114308132D01*
X150945866Y-114289719D01*
X150958654Y-114272476D01*
X150973070Y-114256570D01*
X150988976Y-114242154D01*
X151006219Y-114229366D01*
X151024632Y-114218330D01*
X151044038Y-114209151D01*
X151064250Y-114201919D01*
X151085074Y-114196703D01*
X151106309Y-114193553D01*
X151127750Y-114192500D01*
X151640250Y-114192500D01*
X151661691Y-114193553D01*
X151661691Y-114193553D01*
G37*
D11*
X151384000Y-114630000D03*
D10*
G36*
X135151691Y-107539053D02*
G01*
X135172926Y-107542203D01*
X135193750Y-107547419D01*
X135213962Y-107554651D01*
X135233368Y-107563830D01*
X135251781Y-107574866D01*
X135269024Y-107587654D01*
X135284930Y-107602070D01*
X135299346Y-107617976D01*
X135312134Y-107635219D01*
X135323170Y-107653632D01*
X135332349Y-107673038D01*
X135339581Y-107693250D01*
X135344797Y-107714074D01*
X135347947Y-107735309D01*
X135349000Y-107756750D01*
X135349000Y-108194250D01*
X135347947Y-108215691D01*
X135344797Y-108236926D01*
X135339581Y-108257750D01*
X135332349Y-108277962D01*
X135323170Y-108297368D01*
X135312134Y-108315781D01*
X135299346Y-108333024D01*
X135284930Y-108348930D01*
X135269024Y-108363346D01*
X135251781Y-108376134D01*
X135233368Y-108387170D01*
X135213962Y-108396349D01*
X135193750Y-108403581D01*
X135172926Y-108408797D01*
X135151691Y-108411947D01*
X135130250Y-108413000D01*
X134617750Y-108413000D01*
X134596309Y-108411947D01*
X134575074Y-108408797D01*
X134554250Y-108403581D01*
X134534038Y-108396349D01*
X134514632Y-108387170D01*
X134496219Y-108376134D01*
X134478976Y-108363346D01*
X134463070Y-108348930D01*
X134448654Y-108333024D01*
X134435866Y-108315781D01*
X134424830Y-108297368D01*
X134415651Y-108277962D01*
X134408419Y-108257750D01*
X134403203Y-108236926D01*
X134400053Y-108215691D01*
X134399000Y-108194250D01*
X134399000Y-107756750D01*
X134400053Y-107735309D01*
X134403203Y-107714074D01*
X134408419Y-107693250D01*
X134415651Y-107673038D01*
X134424830Y-107653632D01*
X134435866Y-107635219D01*
X134448654Y-107617976D01*
X134463070Y-107602070D01*
X134478976Y-107587654D01*
X134496219Y-107574866D01*
X134514632Y-107563830D01*
X134534038Y-107554651D01*
X134554250Y-107547419D01*
X134575074Y-107542203D01*
X134596309Y-107539053D01*
X134617750Y-107538000D01*
X135130250Y-107538000D01*
X135151691Y-107539053D01*
X135151691Y-107539053D01*
G37*
D11*
X134874000Y-107975500D03*
D10*
G36*
X135151691Y-105964053D02*
G01*
X135172926Y-105967203D01*
X135193750Y-105972419D01*
X135213962Y-105979651D01*
X135233368Y-105988830D01*
X135251781Y-105999866D01*
X135269024Y-106012654D01*
X135284930Y-106027070D01*
X135299346Y-106042976D01*
X135312134Y-106060219D01*
X135323170Y-106078632D01*
X135332349Y-106098038D01*
X135339581Y-106118250D01*
X135344797Y-106139074D01*
X135347947Y-106160309D01*
X135349000Y-106181750D01*
X135349000Y-106619250D01*
X135347947Y-106640691D01*
X135344797Y-106661926D01*
X135339581Y-106682750D01*
X135332349Y-106702962D01*
X135323170Y-106722368D01*
X135312134Y-106740781D01*
X135299346Y-106758024D01*
X135284930Y-106773930D01*
X135269024Y-106788346D01*
X135251781Y-106801134D01*
X135233368Y-106812170D01*
X135213962Y-106821349D01*
X135193750Y-106828581D01*
X135172926Y-106833797D01*
X135151691Y-106836947D01*
X135130250Y-106838000D01*
X134617750Y-106838000D01*
X134596309Y-106836947D01*
X134575074Y-106833797D01*
X134554250Y-106828581D01*
X134534038Y-106821349D01*
X134514632Y-106812170D01*
X134496219Y-106801134D01*
X134478976Y-106788346D01*
X134463070Y-106773930D01*
X134448654Y-106758024D01*
X134435866Y-106740781D01*
X134424830Y-106722368D01*
X134415651Y-106702962D01*
X134408419Y-106682750D01*
X134403203Y-106661926D01*
X134400053Y-106640691D01*
X134399000Y-106619250D01*
X134399000Y-106181750D01*
X134400053Y-106160309D01*
X134403203Y-106139074D01*
X134408419Y-106118250D01*
X134415651Y-106098038D01*
X134424830Y-106078632D01*
X134435866Y-106060219D01*
X134448654Y-106042976D01*
X134463070Y-106027070D01*
X134478976Y-106012654D01*
X134496219Y-105999866D01*
X134514632Y-105988830D01*
X134534038Y-105979651D01*
X134554250Y-105972419D01*
X134575074Y-105967203D01*
X134596309Y-105964053D01*
X134617750Y-105963000D01*
X135130250Y-105963000D01*
X135151691Y-105964053D01*
X135151691Y-105964053D01*
G37*
D11*
X134874000Y-106400500D03*
D10*
G36*
X132611691Y-105938553D02*
G01*
X132632926Y-105941703D01*
X132653750Y-105946919D01*
X132673962Y-105954151D01*
X132693368Y-105963330D01*
X132711781Y-105974366D01*
X132729024Y-105987154D01*
X132744930Y-106001570D01*
X132759346Y-106017476D01*
X132772134Y-106034719D01*
X132783170Y-106053132D01*
X132792349Y-106072538D01*
X132799581Y-106092750D01*
X132804797Y-106113574D01*
X132807947Y-106134809D01*
X132809000Y-106156250D01*
X132809000Y-106593750D01*
X132807947Y-106615191D01*
X132804797Y-106636426D01*
X132799581Y-106657250D01*
X132792349Y-106677462D01*
X132783170Y-106696868D01*
X132772134Y-106715281D01*
X132759346Y-106732524D01*
X132744930Y-106748430D01*
X132729024Y-106762846D01*
X132711781Y-106775634D01*
X132693368Y-106786670D01*
X132673962Y-106795849D01*
X132653750Y-106803081D01*
X132632926Y-106808297D01*
X132611691Y-106811447D01*
X132590250Y-106812500D01*
X132077750Y-106812500D01*
X132056309Y-106811447D01*
X132035074Y-106808297D01*
X132014250Y-106803081D01*
X131994038Y-106795849D01*
X131974632Y-106786670D01*
X131956219Y-106775634D01*
X131938976Y-106762846D01*
X131923070Y-106748430D01*
X131908654Y-106732524D01*
X131895866Y-106715281D01*
X131884830Y-106696868D01*
X131875651Y-106677462D01*
X131868419Y-106657250D01*
X131863203Y-106636426D01*
X131860053Y-106615191D01*
X131859000Y-106593750D01*
X131859000Y-106156250D01*
X131860053Y-106134809D01*
X131863203Y-106113574D01*
X131868419Y-106092750D01*
X131875651Y-106072538D01*
X131884830Y-106053132D01*
X131895866Y-106034719D01*
X131908654Y-106017476D01*
X131923070Y-106001570D01*
X131938976Y-105987154D01*
X131956219Y-105974366D01*
X131974632Y-105963330D01*
X131994038Y-105954151D01*
X132014250Y-105946919D01*
X132035074Y-105941703D01*
X132056309Y-105938553D01*
X132077750Y-105937500D01*
X132590250Y-105937500D01*
X132611691Y-105938553D01*
X132611691Y-105938553D01*
G37*
D11*
X132334000Y-106375000D03*
D10*
G36*
X132611691Y-107513553D02*
G01*
X132632926Y-107516703D01*
X132653750Y-107521919D01*
X132673962Y-107529151D01*
X132693368Y-107538330D01*
X132711781Y-107549366D01*
X132729024Y-107562154D01*
X132744930Y-107576570D01*
X132759346Y-107592476D01*
X132772134Y-107609719D01*
X132783170Y-107628132D01*
X132792349Y-107647538D01*
X132799581Y-107667750D01*
X132804797Y-107688574D01*
X132807947Y-107709809D01*
X132809000Y-107731250D01*
X132809000Y-108168750D01*
X132807947Y-108190191D01*
X132804797Y-108211426D01*
X132799581Y-108232250D01*
X132792349Y-108252462D01*
X132783170Y-108271868D01*
X132772134Y-108290281D01*
X132759346Y-108307524D01*
X132744930Y-108323430D01*
X132729024Y-108337846D01*
X132711781Y-108350634D01*
X132693368Y-108361670D01*
X132673962Y-108370849D01*
X132653750Y-108378081D01*
X132632926Y-108383297D01*
X132611691Y-108386447D01*
X132590250Y-108387500D01*
X132077750Y-108387500D01*
X132056309Y-108386447D01*
X132035074Y-108383297D01*
X132014250Y-108378081D01*
X131994038Y-108370849D01*
X131974632Y-108361670D01*
X131956219Y-108350634D01*
X131938976Y-108337846D01*
X131923070Y-108323430D01*
X131908654Y-108307524D01*
X131895866Y-108290281D01*
X131884830Y-108271868D01*
X131875651Y-108252462D01*
X131868419Y-108232250D01*
X131863203Y-108211426D01*
X131860053Y-108190191D01*
X131859000Y-108168750D01*
X131859000Y-107731250D01*
X131860053Y-107709809D01*
X131863203Y-107688574D01*
X131868419Y-107667750D01*
X131875651Y-107647538D01*
X131884830Y-107628132D01*
X131895866Y-107609719D01*
X131908654Y-107592476D01*
X131923070Y-107576570D01*
X131938976Y-107562154D01*
X131956219Y-107549366D01*
X131974632Y-107538330D01*
X131994038Y-107529151D01*
X132014250Y-107521919D01*
X132035074Y-107516703D01*
X132056309Y-107513553D01*
X132077750Y-107512500D01*
X132590250Y-107512500D01*
X132611691Y-107513553D01*
X132611691Y-107513553D01*
G37*
D11*
X132334000Y-107950000D03*
D10*
G36*
X130071691Y-107539053D02*
G01*
X130092926Y-107542203D01*
X130113750Y-107547419D01*
X130133962Y-107554651D01*
X130153368Y-107563830D01*
X130171781Y-107574866D01*
X130189024Y-107587654D01*
X130204930Y-107602070D01*
X130219346Y-107617976D01*
X130232134Y-107635219D01*
X130243170Y-107653632D01*
X130252349Y-107673038D01*
X130259581Y-107693250D01*
X130264797Y-107714074D01*
X130267947Y-107735309D01*
X130269000Y-107756750D01*
X130269000Y-108194250D01*
X130267947Y-108215691D01*
X130264797Y-108236926D01*
X130259581Y-108257750D01*
X130252349Y-108277962D01*
X130243170Y-108297368D01*
X130232134Y-108315781D01*
X130219346Y-108333024D01*
X130204930Y-108348930D01*
X130189024Y-108363346D01*
X130171781Y-108376134D01*
X130153368Y-108387170D01*
X130133962Y-108396349D01*
X130113750Y-108403581D01*
X130092926Y-108408797D01*
X130071691Y-108411947D01*
X130050250Y-108413000D01*
X129537750Y-108413000D01*
X129516309Y-108411947D01*
X129495074Y-108408797D01*
X129474250Y-108403581D01*
X129454038Y-108396349D01*
X129434632Y-108387170D01*
X129416219Y-108376134D01*
X129398976Y-108363346D01*
X129383070Y-108348930D01*
X129368654Y-108333024D01*
X129355866Y-108315781D01*
X129344830Y-108297368D01*
X129335651Y-108277962D01*
X129328419Y-108257750D01*
X129323203Y-108236926D01*
X129320053Y-108215691D01*
X129319000Y-108194250D01*
X129319000Y-107756750D01*
X129320053Y-107735309D01*
X129323203Y-107714074D01*
X129328419Y-107693250D01*
X129335651Y-107673038D01*
X129344830Y-107653632D01*
X129355866Y-107635219D01*
X129368654Y-107617976D01*
X129383070Y-107602070D01*
X129398976Y-107587654D01*
X129416219Y-107574866D01*
X129434632Y-107563830D01*
X129454038Y-107554651D01*
X129474250Y-107547419D01*
X129495074Y-107542203D01*
X129516309Y-107539053D01*
X129537750Y-107538000D01*
X130050250Y-107538000D01*
X130071691Y-107539053D01*
X130071691Y-107539053D01*
G37*
D11*
X129794000Y-107975500D03*
D10*
G36*
X130071691Y-105964053D02*
G01*
X130092926Y-105967203D01*
X130113750Y-105972419D01*
X130133962Y-105979651D01*
X130153368Y-105988830D01*
X130171781Y-105999866D01*
X130189024Y-106012654D01*
X130204930Y-106027070D01*
X130219346Y-106042976D01*
X130232134Y-106060219D01*
X130243170Y-106078632D01*
X130252349Y-106098038D01*
X130259581Y-106118250D01*
X130264797Y-106139074D01*
X130267947Y-106160309D01*
X130269000Y-106181750D01*
X130269000Y-106619250D01*
X130267947Y-106640691D01*
X130264797Y-106661926D01*
X130259581Y-106682750D01*
X130252349Y-106702962D01*
X130243170Y-106722368D01*
X130232134Y-106740781D01*
X130219346Y-106758024D01*
X130204930Y-106773930D01*
X130189024Y-106788346D01*
X130171781Y-106801134D01*
X130153368Y-106812170D01*
X130133962Y-106821349D01*
X130113750Y-106828581D01*
X130092926Y-106833797D01*
X130071691Y-106836947D01*
X130050250Y-106838000D01*
X129537750Y-106838000D01*
X129516309Y-106836947D01*
X129495074Y-106833797D01*
X129474250Y-106828581D01*
X129454038Y-106821349D01*
X129434632Y-106812170D01*
X129416219Y-106801134D01*
X129398976Y-106788346D01*
X129383070Y-106773930D01*
X129368654Y-106758024D01*
X129355866Y-106740781D01*
X129344830Y-106722368D01*
X129335651Y-106702962D01*
X129328419Y-106682750D01*
X129323203Y-106661926D01*
X129320053Y-106640691D01*
X129319000Y-106619250D01*
X129319000Y-106181750D01*
X129320053Y-106160309D01*
X129323203Y-106139074D01*
X129328419Y-106118250D01*
X129335651Y-106098038D01*
X129344830Y-106078632D01*
X129355866Y-106060219D01*
X129368654Y-106042976D01*
X129383070Y-106027070D01*
X129398976Y-106012654D01*
X129416219Y-105999866D01*
X129434632Y-105988830D01*
X129454038Y-105979651D01*
X129474250Y-105972419D01*
X129495074Y-105967203D01*
X129516309Y-105964053D01*
X129537750Y-105963000D01*
X130050250Y-105963000D01*
X130071691Y-105964053D01*
X130071691Y-105964053D01*
G37*
D11*
X129794000Y-106400500D03*
D10*
G36*
X127531691Y-105938553D02*
G01*
X127552926Y-105941703D01*
X127573750Y-105946919D01*
X127593962Y-105954151D01*
X127613368Y-105963330D01*
X127631781Y-105974366D01*
X127649024Y-105987154D01*
X127664930Y-106001570D01*
X127679346Y-106017476D01*
X127692134Y-106034719D01*
X127703170Y-106053132D01*
X127712349Y-106072538D01*
X127719581Y-106092750D01*
X127724797Y-106113574D01*
X127727947Y-106134809D01*
X127729000Y-106156250D01*
X127729000Y-106593750D01*
X127727947Y-106615191D01*
X127724797Y-106636426D01*
X127719581Y-106657250D01*
X127712349Y-106677462D01*
X127703170Y-106696868D01*
X127692134Y-106715281D01*
X127679346Y-106732524D01*
X127664930Y-106748430D01*
X127649024Y-106762846D01*
X127631781Y-106775634D01*
X127613368Y-106786670D01*
X127593962Y-106795849D01*
X127573750Y-106803081D01*
X127552926Y-106808297D01*
X127531691Y-106811447D01*
X127510250Y-106812500D01*
X126997750Y-106812500D01*
X126976309Y-106811447D01*
X126955074Y-106808297D01*
X126934250Y-106803081D01*
X126914038Y-106795849D01*
X126894632Y-106786670D01*
X126876219Y-106775634D01*
X126858976Y-106762846D01*
X126843070Y-106748430D01*
X126828654Y-106732524D01*
X126815866Y-106715281D01*
X126804830Y-106696868D01*
X126795651Y-106677462D01*
X126788419Y-106657250D01*
X126783203Y-106636426D01*
X126780053Y-106615191D01*
X126779000Y-106593750D01*
X126779000Y-106156250D01*
X126780053Y-106134809D01*
X126783203Y-106113574D01*
X126788419Y-106092750D01*
X126795651Y-106072538D01*
X126804830Y-106053132D01*
X126815866Y-106034719D01*
X126828654Y-106017476D01*
X126843070Y-106001570D01*
X126858976Y-105987154D01*
X126876219Y-105974366D01*
X126894632Y-105963330D01*
X126914038Y-105954151D01*
X126934250Y-105946919D01*
X126955074Y-105941703D01*
X126976309Y-105938553D01*
X126997750Y-105937500D01*
X127510250Y-105937500D01*
X127531691Y-105938553D01*
X127531691Y-105938553D01*
G37*
D11*
X127254000Y-106375000D03*
D10*
G36*
X127531691Y-107513553D02*
G01*
X127552926Y-107516703D01*
X127573750Y-107521919D01*
X127593962Y-107529151D01*
X127613368Y-107538330D01*
X127631781Y-107549366D01*
X127649024Y-107562154D01*
X127664930Y-107576570D01*
X127679346Y-107592476D01*
X127692134Y-107609719D01*
X127703170Y-107628132D01*
X127712349Y-107647538D01*
X127719581Y-107667750D01*
X127724797Y-107688574D01*
X127727947Y-107709809D01*
X127729000Y-107731250D01*
X127729000Y-108168750D01*
X127727947Y-108190191D01*
X127724797Y-108211426D01*
X127719581Y-108232250D01*
X127712349Y-108252462D01*
X127703170Y-108271868D01*
X127692134Y-108290281D01*
X127679346Y-108307524D01*
X127664930Y-108323430D01*
X127649024Y-108337846D01*
X127631781Y-108350634D01*
X127613368Y-108361670D01*
X127593962Y-108370849D01*
X127573750Y-108378081D01*
X127552926Y-108383297D01*
X127531691Y-108386447D01*
X127510250Y-108387500D01*
X126997750Y-108387500D01*
X126976309Y-108386447D01*
X126955074Y-108383297D01*
X126934250Y-108378081D01*
X126914038Y-108370849D01*
X126894632Y-108361670D01*
X126876219Y-108350634D01*
X126858976Y-108337846D01*
X126843070Y-108323430D01*
X126828654Y-108307524D01*
X126815866Y-108290281D01*
X126804830Y-108271868D01*
X126795651Y-108252462D01*
X126788419Y-108232250D01*
X126783203Y-108211426D01*
X126780053Y-108190191D01*
X126779000Y-108168750D01*
X126779000Y-107731250D01*
X126780053Y-107709809D01*
X126783203Y-107688574D01*
X126788419Y-107667750D01*
X126795651Y-107647538D01*
X126804830Y-107628132D01*
X126815866Y-107609719D01*
X126828654Y-107592476D01*
X126843070Y-107576570D01*
X126858976Y-107562154D01*
X126876219Y-107549366D01*
X126894632Y-107538330D01*
X126914038Y-107529151D01*
X126934250Y-107521919D01*
X126955074Y-107516703D01*
X126976309Y-107513553D01*
X126997750Y-107512500D01*
X127510250Y-107512500D01*
X127531691Y-107513553D01*
X127531691Y-107513553D01*
G37*
D11*
X127254000Y-107950000D03*
D10*
G36*
X124991691Y-107513553D02*
G01*
X125012926Y-107516703D01*
X125033750Y-107521919D01*
X125053962Y-107529151D01*
X125073368Y-107538330D01*
X125091781Y-107549366D01*
X125109024Y-107562154D01*
X125124930Y-107576570D01*
X125139346Y-107592476D01*
X125152134Y-107609719D01*
X125163170Y-107628132D01*
X125172349Y-107647538D01*
X125179581Y-107667750D01*
X125184797Y-107688574D01*
X125187947Y-107709809D01*
X125189000Y-107731250D01*
X125189000Y-108168750D01*
X125187947Y-108190191D01*
X125184797Y-108211426D01*
X125179581Y-108232250D01*
X125172349Y-108252462D01*
X125163170Y-108271868D01*
X125152134Y-108290281D01*
X125139346Y-108307524D01*
X125124930Y-108323430D01*
X125109024Y-108337846D01*
X125091781Y-108350634D01*
X125073368Y-108361670D01*
X125053962Y-108370849D01*
X125033750Y-108378081D01*
X125012926Y-108383297D01*
X124991691Y-108386447D01*
X124970250Y-108387500D01*
X124457750Y-108387500D01*
X124436309Y-108386447D01*
X124415074Y-108383297D01*
X124394250Y-108378081D01*
X124374038Y-108370849D01*
X124354632Y-108361670D01*
X124336219Y-108350634D01*
X124318976Y-108337846D01*
X124303070Y-108323430D01*
X124288654Y-108307524D01*
X124275866Y-108290281D01*
X124264830Y-108271868D01*
X124255651Y-108252462D01*
X124248419Y-108232250D01*
X124243203Y-108211426D01*
X124240053Y-108190191D01*
X124239000Y-108168750D01*
X124239000Y-107731250D01*
X124240053Y-107709809D01*
X124243203Y-107688574D01*
X124248419Y-107667750D01*
X124255651Y-107647538D01*
X124264830Y-107628132D01*
X124275866Y-107609719D01*
X124288654Y-107592476D01*
X124303070Y-107576570D01*
X124318976Y-107562154D01*
X124336219Y-107549366D01*
X124354632Y-107538330D01*
X124374038Y-107529151D01*
X124394250Y-107521919D01*
X124415074Y-107516703D01*
X124436309Y-107513553D01*
X124457750Y-107512500D01*
X124970250Y-107512500D01*
X124991691Y-107513553D01*
X124991691Y-107513553D01*
G37*
D11*
X124714000Y-107950000D03*
D10*
G36*
X124991691Y-105938553D02*
G01*
X125012926Y-105941703D01*
X125033750Y-105946919D01*
X125053962Y-105954151D01*
X125073368Y-105963330D01*
X125091781Y-105974366D01*
X125109024Y-105987154D01*
X125124930Y-106001570D01*
X125139346Y-106017476D01*
X125152134Y-106034719D01*
X125163170Y-106053132D01*
X125172349Y-106072538D01*
X125179581Y-106092750D01*
X125184797Y-106113574D01*
X125187947Y-106134809D01*
X125189000Y-106156250D01*
X125189000Y-106593750D01*
X125187947Y-106615191D01*
X125184797Y-106636426D01*
X125179581Y-106657250D01*
X125172349Y-106677462D01*
X125163170Y-106696868D01*
X125152134Y-106715281D01*
X125139346Y-106732524D01*
X125124930Y-106748430D01*
X125109024Y-106762846D01*
X125091781Y-106775634D01*
X125073368Y-106786670D01*
X125053962Y-106795849D01*
X125033750Y-106803081D01*
X125012926Y-106808297D01*
X124991691Y-106811447D01*
X124970250Y-106812500D01*
X124457750Y-106812500D01*
X124436309Y-106811447D01*
X124415074Y-106808297D01*
X124394250Y-106803081D01*
X124374038Y-106795849D01*
X124354632Y-106786670D01*
X124336219Y-106775634D01*
X124318976Y-106762846D01*
X124303070Y-106748430D01*
X124288654Y-106732524D01*
X124275866Y-106715281D01*
X124264830Y-106696868D01*
X124255651Y-106677462D01*
X124248419Y-106657250D01*
X124243203Y-106636426D01*
X124240053Y-106615191D01*
X124239000Y-106593750D01*
X124239000Y-106156250D01*
X124240053Y-106134809D01*
X124243203Y-106113574D01*
X124248419Y-106092750D01*
X124255651Y-106072538D01*
X124264830Y-106053132D01*
X124275866Y-106034719D01*
X124288654Y-106017476D01*
X124303070Y-106001570D01*
X124318976Y-105987154D01*
X124336219Y-105974366D01*
X124354632Y-105963330D01*
X124374038Y-105954151D01*
X124394250Y-105946919D01*
X124415074Y-105941703D01*
X124436309Y-105938553D01*
X124457750Y-105937500D01*
X124970250Y-105937500D01*
X124991691Y-105938553D01*
X124991691Y-105938553D01*
G37*
D11*
X124714000Y-106375000D03*
D10*
G36*
X156868691Y-100731553D02*
G01*
X156889926Y-100734703D01*
X156910750Y-100739919D01*
X156930962Y-100747151D01*
X156950368Y-100756330D01*
X156968781Y-100767366D01*
X156986024Y-100780154D01*
X157001930Y-100794570D01*
X157016346Y-100810476D01*
X157029134Y-100827719D01*
X157040170Y-100846132D01*
X157049349Y-100865538D01*
X157056581Y-100885750D01*
X157061797Y-100906574D01*
X157064947Y-100927809D01*
X157066000Y-100949250D01*
X157066000Y-101386750D01*
X157064947Y-101408191D01*
X157061797Y-101429426D01*
X157056581Y-101450250D01*
X157049349Y-101470462D01*
X157040170Y-101489868D01*
X157029134Y-101508281D01*
X157016346Y-101525524D01*
X157001930Y-101541430D01*
X156986024Y-101555846D01*
X156968781Y-101568634D01*
X156950368Y-101579670D01*
X156930962Y-101588849D01*
X156910750Y-101596081D01*
X156889926Y-101601297D01*
X156868691Y-101604447D01*
X156847250Y-101605500D01*
X156334750Y-101605500D01*
X156313309Y-101604447D01*
X156292074Y-101601297D01*
X156271250Y-101596081D01*
X156251038Y-101588849D01*
X156231632Y-101579670D01*
X156213219Y-101568634D01*
X156195976Y-101555846D01*
X156180070Y-101541430D01*
X156165654Y-101525524D01*
X156152866Y-101508281D01*
X156141830Y-101489868D01*
X156132651Y-101470462D01*
X156125419Y-101450250D01*
X156120203Y-101429426D01*
X156117053Y-101408191D01*
X156116000Y-101386750D01*
X156116000Y-100949250D01*
X156117053Y-100927809D01*
X156120203Y-100906574D01*
X156125419Y-100885750D01*
X156132651Y-100865538D01*
X156141830Y-100846132D01*
X156152866Y-100827719D01*
X156165654Y-100810476D01*
X156180070Y-100794570D01*
X156195976Y-100780154D01*
X156213219Y-100767366D01*
X156231632Y-100756330D01*
X156251038Y-100747151D01*
X156271250Y-100739919D01*
X156292074Y-100734703D01*
X156313309Y-100731553D01*
X156334750Y-100730500D01*
X156847250Y-100730500D01*
X156868691Y-100731553D01*
X156868691Y-100731553D01*
G37*
D11*
X156591000Y-101168000D03*
D10*
G36*
X156868691Y-102306553D02*
G01*
X156889926Y-102309703D01*
X156910750Y-102314919D01*
X156930962Y-102322151D01*
X156950368Y-102331330D01*
X156968781Y-102342366D01*
X156986024Y-102355154D01*
X157001930Y-102369570D01*
X157016346Y-102385476D01*
X157029134Y-102402719D01*
X157040170Y-102421132D01*
X157049349Y-102440538D01*
X157056581Y-102460750D01*
X157061797Y-102481574D01*
X157064947Y-102502809D01*
X157066000Y-102524250D01*
X157066000Y-102961750D01*
X157064947Y-102983191D01*
X157061797Y-103004426D01*
X157056581Y-103025250D01*
X157049349Y-103045462D01*
X157040170Y-103064868D01*
X157029134Y-103083281D01*
X157016346Y-103100524D01*
X157001930Y-103116430D01*
X156986024Y-103130846D01*
X156968781Y-103143634D01*
X156950368Y-103154670D01*
X156930962Y-103163849D01*
X156910750Y-103171081D01*
X156889926Y-103176297D01*
X156868691Y-103179447D01*
X156847250Y-103180500D01*
X156334750Y-103180500D01*
X156313309Y-103179447D01*
X156292074Y-103176297D01*
X156271250Y-103171081D01*
X156251038Y-103163849D01*
X156231632Y-103154670D01*
X156213219Y-103143634D01*
X156195976Y-103130846D01*
X156180070Y-103116430D01*
X156165654Y-103100524D01*
X156152866Y-103083281D01*
X156141830Y-103064868D01*
X156132651Y-103045462D01*
X156125419Y-103025250D01*
X156120203Y-103004426D01*
X156117053Y-102983191D01*
X156116000Y-102961750D01*
X156116000Y-102524250D01*
X156117053Y-102502809D01*
X156120203Y-102481574D01*
X156125419Y-102460750D01*
X156132651Y-102440538D01*
X156141830Y-102421132D01*
X156152866Y-102402719D01*
X156165654Y-102385476D01*
X156180070Y-102369570D01*
X156195976Y-102355154D01*
X156213219Y-102342366D01*
X156231632Y-102331330D01*
X156251038Y-102322151D01*
X156271250Y-102314919D01*
X156292074Y-102309703D01*
X156313309Y-102306553D01*
X156334750Y-102305500D01*
X156847250Y-102305500D01*
X156868691Y-102306553D01*
X156868691Y-102306553D01*
G37*
D11*
X156591000Y-102743000D03*
D10*
G36*
X151788691Y-107666053D02*
G01*
X151809926Y-107669203D01*
X151830750Y-107674419D01*
X151850962Y-107681651D01*
X151870368Y-107690830D01*
X151888781Y-107701866D01*
X151906024Y-107714654D01*
X151921930Y-107729070D01*
X151936346Y-107744976D01*
X151949134Y-107762219D01*
X151960170Y-107780632D01*
X151969349Y-107800038D01*
X151976581Y-107820250D01*
X151981797Y-107841074D01*
X151984947Y-107862309D01*
X151986000Y-107883750D01*
X151986000Y-108321250D01*
X151984947Y-108342691D01*
X151981797Y-108363926D01*
X151976581Y-108384750D01*
X151969349Y-108404962D01*
X151960170Y-108424368D01*
X151949134Y-108442781D01*
X151936346Y-108460024D01*
X151921930Y-108475930D01*
X151906024Y-108490346D01*
X151888781Y-108503134D01*
X151870368Y-108514170D01*
X151850962Y-108523349D01*
X151830750Y-108530581D01*
X151809926Y-108535797D01*
X151788691Y-108538947D01*
X151767250Y-108540000D01*
X151254750Y-108540000D01*
X151233309Y-108538947D01*
X151212074Y-108535797D01*
X151191250Y-108530581D01*
X151171038Y-108523349D01*
X151151632Y-108514170D01*
X151133219Y-108503134D01*
X151115976Y-108490346D01*
X151100070Y-108475930D01*
X151085654Y-108460024D01*
X151072866Y-108442781D01*
X151061830Y-108424368D01*
X151052651Y-108404962D01*
X151045419Y-108384750D01*
X151040203Y-108363926D01*
X151037053Y-108342691D01*
X151036000Y-108321250D01*
X151036000Y-107883750D01*
X151037053Y-107862309D01*
X151040203Y-107841074D01*
X151045419Y-107820250D01*
X151052651Y-107800038D01*
X151061830Y-107780632D01*
X151072866Y-107762219D01*
X151085654Y-107744976D01*
X151100070Y-107729070D01*
X151115976Y-107714654D01*
X151133219Y-107701866D01*
X151151632Y-107690830D01*
X151171038Y-107681651D01*
X151191250Y-107674419D01*
X151212074Y-107669203D01*
X151233309Y-107666053D01*
X151254750Y-107665000D01*
X151767250Y-107665000D01*
X151788691Y-107666053D01*
X151788691Y-107666053D01*
G37*
D11*
X151511000Y-108102500D03*
D10*
G36*
X151788691Y-106091053D02*
G01*
X151809926Y-106094203D01*
X151830750Y-106099419D01*
X151850962Y-106106651D01*
X151870368Y-106115830D01*
X151888781Y-106126866D01*
X151906024Y-106139654D01*
X151921930Y-106154070D01*
X151936346Y-106169976D01*
X151949134Y-106187219D01*
X151960170Y-106205632D01*
X151969349Y-106225038D01*
X151976581Y-106245250D01*
X151981797Y-106266074D01*
X151984947Y-106287309D01*
X151986000Y-106308750D01*
X151986000Y-106746250D01*
X151984947Y-106767691D01*
X151981797Y-106788926D01*
X151976581Y-106809750D01*
X151969349Y-106829962D01*
X151960170Y-106849368D01*
X151949134Y-106867781D01*
X151936346Y-106885024D01*
X151921930Y-106900930D01*
X151906024Y-106915346D01*
X151888781Y-106928134D01*
X151870368Y-106939170D01*
X151850962Y-106948349D01*
X151830750Y-106955581D01*
X151809926Y-106960797D01*
X151788691Y-106963947D01*
X151767250Y-106965000D01*
X151254750Y-106965000D01*
X151233309Y-106963947D01*
X151212074Y-106960797D01*
X151191250Y-106955581D01*
X151171038Y-106948349D01*
X151151632Y-106939170D01*
X151133219Y-106928134D01*
X151115976Y-106915346D01*
X151100070Y-106900930D01*
X151085654Y-106885024D01*
X151072866Y-106867781D01*
X151061830Y-106849368D01*
X151052651Y-106829962D01*
X151045419Y-106809750D01*
X151040203Y-106788926D01*
X151037053Y-106767691D01*
X151036000Y-106746250D01*
X151036000Y-106308750D01*
X151037053Y-106287309D01*
X151040203Y-106266074D01*
X151045419Y-106245250D01*
X151052651Y-106225038D01*
X151061830Y-106205632D01*
X151072866Y-106187219D01*
X151085654Y-106169976D01*
X151100070Y-106154070D01*
X151115976Y-106139654D01*
X151133219Y-106126866D01*
X151151632Y-106115830D01*
X151171038Y-106106651D01*
X151191250Y-106099419D01*
X151212074Y-106094203D01*
X151233309Y-106091053D01*
X151254750Y-106090000D01*
X151767250Y-106090000D01*
X151788691Y-106091053D01*
X151788691Y-106091053D01*
G37*
D11*
X151511000Y-106527500D03*
D10*
G36*
X154328691Y-127782553D02*
G01*
X154349926Y-127785703D01*
X154370750Y-127790919D01*
X154390962Y-127798151D01*
X154410368Y-127807330D01*
X154428781Y-127818366D01*
X154446024Y-127831154D01*
X154461930Y-127845570D01*
X154476346Y-127861476D01*
X154489134Y-127878719D01*
X154500170Y-127897132D01*
X154509349Y-127916538D01*
X154516581Y-127936750D01*
X154521797Y-127957574D01*
X154524947Y-127978809D01*
X154526000Y-128000250D01*
X154526000Y-128437750D01*
X154524947Y-128459191D01*
X154521797Y-128480426D01*
X154516581Y-128501250D01*
X154509349Y-128521462D01*
X154500170Y-128540868D01*
X154489134Y-128559281D01*
X154476346Y-128576524D01*
X154461930Y-128592430D01*
X154446024Y-128606846D01*
X154428781Y-128619634D01*
X154410368Y-128630670D01*
X154390962Y-128639849D01*
X154370750Y-128647081D01*
X154349926Y-128652297D01*
X154328691Y-128655447D01*
X154307250Y-128656500D01*
X153794750Y-128656500D01*
X153773309Y-128655447D01*
X153752074Y-128652297D01*
X153731250Y-128647081D01*
X153711038Y-128639849D01*
X153691632Y-128630670D01*
X153673219Y-128619634D01*
X153655976Y-128606846D01*
X153640070Y-128592430D01*
X153625654Y-128576524D01*
X153612866Y-128559281D01*
X153601830Y-128540868D01*
X153592651Y-128521462D01*
X153585419Y-128501250D01*
X153580203Y-128480426D01*
X153577053Y-128459191D01*
X153576000Y-128437750D01*
X153576000Y-128000250D01*
X153577053Y-127978809D01*
X153580203Y-127957574D01*
X153585419Y-127936750D01*
X153592651Y-127916538D01*
X153601830Y-127897132D01*
X153612866Y-127878719D01*
X153625654Y-127861476D01*
X153640070Y-127845570D01*
X153655976Y-127831154D01*
X153673219Y-127818366D01*
X153691632Y-127807330D01*
X153711038Y-127798151D01*
X153731250Y-127790919D01*
X153752074Y-127785703D01*
X153773309Y-127782553D01*
X153794750Y-127781500D01*
X154307250Y-127781500D01*
X154328691Y-127782553D01*
X154328691Y-127782553D01*
G37*
D11*
X154051000Y-128219000D03*
D10*
G36*
X154328691Y-129357553D02*
G01*
X154349926Y-129360703D01*
X154370750Y-129365919D01*
X154390962Y-129373151D01*
X154410368Y-129382330D01*
X154428781Y-129393366D01*
X154446024Y-129406154D01*
X154461930Y-129420570D01*
X154476346Y-129436476D01*
X154489134Y-129453719D01*
X154500170Y-129472132D01*
X154509349Y-129491538D01*
X154516581Y-129511750D01*
X154521797Y-129532574D01*
X154524947Y-129553809D01*
X154526000Y-129575250D01*
X154526000Y-130012750D01*
X154524947Y-130034191D01*
X154521797Y-130055426D01*
X154516581Y-130076250D01*
X154509349Y-130096462D01*
X154500170Y-130115868D01*
X154489134Y-130134281D01*
X154476346Y-130151524D01*
X154461930Y-130167430D01*
X154446024Y-130181846D01*
X154428781Y-130194634D01*
X154410368Y-130205670D01*
X154390962Y-130214849D01*
X154370750Y-130222081D01*
X154349926Y-130227297D01*
X154328691Y-130230447D01*
X154307250Y-130231500D01*
X153794750Y-130231500D01*
X153773309Y-130230447D01*
X153752074Y-130227297D01*
X153731250Y-130222081D01*
X153711038Y-130214849D01*
X153691632Y-130205670D01*
X153673219Y-130194634D01*
X153655976Y-130181846D01*
X153640070Y-130167430D01*
X153625654Y-130151524D01*
X153612866Y-130134281D01*
X153601830Y-130115868D01*
X153592651Y-130096462D01*
X153585419Y-130076250D01*
X153580203Y-130055426D01*
X153577053Y-130034191D01*
X153576000Y-130012750D01*
X153576000Y-129575250D01*
X153577053Y-129553809D01*
X153580203Y-129532574D01*
X153585419Y-129511750D01*
X153592651Y-129491538D01*
X153601830Y-129472132D01*
X153612866Y-129453719D01*
X153625654Y-129436476D01*
X153640070Y-129420570D01*
X153655976Y-129406154D01*
X153673219Y-129393366D01*
X153691632Y-129382330D01*
X153711038Y-129373151D01*
X153731250Y-129365919D01*
X153752074Y-129360703D01*
X153773309Y-129357553D01*
X153794750Y-129356500D01*
X154307250Y-129356500D01*
X154328691Y-129357553D01*
X154328691Y-129357553D01*
G37*
D11*
X154051000Y-129794000D03*
D10*
G36*
X147814191Y-120684053D02*
G01*
X147835426Y-120687203D01*
X147856250Y-120692419D01*
X147876462Y-120699651D01*
X147895868Y-120708830D01*
X147914281Y-120719866D01*
X147931524Y-120732654D01*
X147947430Y-120747070D01*
X147961846Y-120762976D01*
X147974634Y-120780219D01*
X147985670Y-120798632D01*
X147994849Y-120818038D01*
X148002081Y-120838250D01*
X148007297Y-120859074D01*
X148010447Y-120880309D01*
X148011500Y-120901750D01*
X148011500Y-121414250D01*
X148010447Y-121435691D01*
X148007297Y-121456926D01*
X148002081Y-121477750D01*
X147994849Y-121497962D01*
X147985670Y-121517368D01*
X147974634Y-121535781D01*
X147961846Y-121553024D01*
X147947430Y-121568930D01*
X147931524Y-121583346D01*
X147914281Y-121596134D01*
X147895868Y-121607170D01*
X147876462Y-121616349D01*
X147856250Y-121623581D01*
X147835426Y-121628797D01*
X147814191Y-121631947D01*
X147792750Y-121633000D01*
X147355250Y-121633000D01*
X147333809Y-121631947D01*
X147312574Y-121628797D01*
X147291750Y-121623581D01*
X147271538Y-121616349D01*
X147252132Y-121607170D01*
X147233719Y-121596134D01*
X147216476Y-121583346D01*
X147200570Y-121568930D01*
X147186154Y-121553024D01*
X147173366Y-121535781D01*
X147162330Y-121517368D01*
X147153151Y-121497962D01*
X147145919Y-121477750D01*
X147140703Y-121456926D01*
X147137553Y-121435691D01*
X147136500Y-121414250D01*
X147136500Y-120901750D01*
X147137553Y-120880309D01*
X147140703Y-120859074D01*
X147145919Y-120838250D01*
X147153151Y-120818038D01*
X147162330Y-120798632D01*
X147173366Y-120780219D01*
X147186154Y-120762976D01*
X147200570Y-120747070D01*
X147216476Y-120732654D01*
X147233719Y-120719866D01*
X147252132Y-120708830D01*
X147271538Y-120699651D01*
X147291750Y-120692419D01*
X147312574Y-120687203D01*
X147333809Y-120684053D01*
X147355250Y-120683000D01*
X147792750Y-120683000D01*
X147814191Y-120684053D01*
X147814191Y-120684053D01*
G37*
D11*
X147574000Y-121158000D03*
D10*
G36*
X146239191Y-120684053D02*
G01*
X146260426Y-120687203D01*
X146281250Y-120692419D01*
X146301462Y-120699651D01*
X146320868Y-120708830D01*
X146339281Y-120719866D01*
X146356524Y-120732654D01*
X146372430Y-120747070D01*
X146386846Y-120762976D01*
X146399634Y-120780219D01*
X146410670Y-120798632D01*
X146419849Y-120818038D01*
X146427081Y-120838250D01*
X146432297Y-120859074D01*
X146435447Y-120880309D01*
X146436500Y-120901750D01*
X146436500Y-121414250D01*
X146435447Y-121435691D01*
X146432297Y-121456926D01*
X146427081Y-121477750D01*
X146419849Y-121497962D01*
X146410670Y-121517368D01*
X146399634Y-121535781D01*
X146386846Y-121553024D01*
X146372430Y-121568930D01*
X146356524Y-121583346D01*
X146339281Y-121596134D01*
X146320868Y-121607170D01*
X146301462Y-121616349D01*
X146281250Y-121623581D01*
X146260426Y-121628797D01*
X146239191Y-121631947D01*
X146217750Y-121633000D01*
X145780250Y-121633000D01*
X145758809Y-121631947D01*
X145737574Y-121628797D01*
X145716750Y-121623581D01*
X145696538Y-121616349D01*
X145677132Y-121607170D01*
X145658719Y-121596134D01*
X145641476Y-121583346D01*
X145625570Y-121568930D01*
X145611154Y-121553024D01*
X145598366Y-121535781D01*
X145587330Y-121517368D01*
X145578151Y-121497962D01*
X145570919Y-121477750D01*
X145565703Y-121456926D01*
X145562553Y-121435691D01*
X145561500Y-121414250D01*
X145561500Y-120901750D01*
X145562553Y-120880309D01*
X145565703Y-120859074D01*
X145570919Y-120838250D01*
X145578151Y-120818038D01*
X145587330Y-120798632D01*
X145598366Y-120780219D01*
X145611154Y-120762976D01*
X145625570Y-120747070D01*
X145641476Y-120732654D01*
X145658719Y-120719866D01*
X145677132Y-120708830D01*
X145696538Y-120699651D01*
X145716750Y-120692419D01*
X145737574Y-120687203D01*
X145758809Y-120684053D01*
X145780250Y-120683000D01*
X146217750Y-120683000D01*
X146239191Y-120684053D01*
X146239191Y-120684053D01*
G37*
D11*
X145999000Y-121158000D03*
D10*
G36*
X123721691Y-103195553D02*
G01*
X123742926Y-103198703D01*
X123763750Y-103203919D01*
X123783962Y-103211151D01*
X123803368Y-103220330D01*
X123821781Y-103231366D01*
X123839024Y-103244154D01*
X123854930Y-103258570D01*
X123869346Y-103274476D01*
X123882134Y-103291719D01*
X123893170Y-103310132D01*
X123902349Y-103329538D01*
X123909581Y-103349750D01*
X123914797Y-103370574D01*
X123917947Y-103391809D01*
X123919000Y-103413250D01*
X123919000Y-103850750D01*
X123917947Y-103872191D01*
X123914797Y-103893426D01*
X123909581Y-103914250D01*
X123902349Y-103934462D01*
X123893170Y-103953868D01*
X123882134Y-103972281D01*
X123869346Y-103989524D01*
X123854930Y-104005430D01*
X123839024Y-104019846D01*
X123821781Y-104032634D01*
X123803368Y-104043670D01*
X123783962Y-104052849D01*
X123763750Y-104060081D01*
X123742926Y-104065297D01*
X123721691Y-104068447D01*
X123700250Y-104069500D01*
X123187750Y-104069500D01*
X123166309Y-104068447D01*
X123145074Y-104065297D01*
X123124250Y-104060081D01*
X123104038Y-104052849D01*
X123084632Y-104043670D01*
X123066219Y-104032634D01*
X123048976Y-104019846D01*
X123033070Y-104005430D01*
X123018654Y-103989524D01*
X123005866Y-103972281D01*
X122994830Y-103953868D01*
X122985651Y-103934462D01*
X122978419Y-103914250D01*
X122973203Y-103893426D01*
X122970053Y-103872191D01*
X122969000Y-103850750D01*
X122969000Y-103413250D01*
X122970053Y-103391809D01*
X122973203Y-103370574D01*
X122978419Y-103349750D01*
X122985651Y-103329538D01*
X122994830Y-103310132D01*
X123005866Y-103291719D01*
X123018654Y-103274476D01*
X123033070Y-103258570D01*
X123048976Y-103244154D01*
X123066219Y-103231366D01*
X123084632Y-103220330D01*
X123104038Y-103211151D01*
X123124250Y-103203919D01*
X123145074Y-103198703D01*
X123166309Y-103195553D01*
X123187750Y-103194500D01*
X123700250Y-103194500D01*
X123721691Y-103195553D01*
X123721691Y-103195553D01*
G37*
D11*
X123444000Y-103632000D03*
D10*
G36*
X123721691Y-101620553D02*
G01*
X123742926Y-101623703D01*
X123763750Y-101628919D01*
X123783962Y-101636151D01*
X123803368Y-101645330D01*
X123821781Y-101656366D01*
X123839024Y-101669154D01*
X123854930Y-101683570D01*
X123869346Y-101699476D01*
X123882134Y-101716719D01*
X123893170Y-101735132D01*
X123902349Y-101754538D01*
X123909581Y-101774750D01*
X123914797Y-101795574D01*
X123917947Y-101816809D01*
X123919000Y-101838250D01*
X123919000Y-102275750D01*
X123917947Y-102297191D01*
X123914797Y-102318426D01*
X123909581Y-102339250D01*
X123902349Y-102359462D01*
X123893170Y-102378868D01*
X123882134Y-102397281D01*
X123869346Y-102414524D01*
X123854930Y-102430430D01*
X123839024Y-102444846D01*
X123821781Y-102457634D01*
X123803368Y-102468670D01*
X123783962Y-102477849D01*
X123763750Y-102485081D01*
X123742926Y-102490297D01*
X123721691Y-102493447D01*
X123700250Y-102494500D01*
X123187750Y-102494500D01*
X123166309Y-102493447D01*
X123145074Y-102490297D01*
X123124250Y-102485081D01*
X123104038Y-102477849D01*
X123084632Y-102468670D01*
X123066219Y-102457634D01*
X123048976Y-102444846D01*
X123033070Y-102430430D01*
X123018654Y-102414524D01*
X123005866Y-102397281D01*
X122994830Y-102378868D01*
X122985651Y-102359462D01*
X122978419Y-102339250D01*
X122973203Y-102318426D01*
X122970053Y-102297191D01*
X122969000Y-102275750D01*
X122969000Y-101838250D01*
X122970053Y-101816809D01*
X122973203Y-101795574D01*
X122978419Y-101774750D01*
X122985651Y-101754538D01*
X122994830Y-101735132D01*
X123005866Y-101716719D01*
X123018654Y-101699476D01*
X123033070Y-101683570D01*
X123048976Y-101669154D01*
X123066219Y-101656366D01*
X123084632Y-101645330D01*
X123104038Y-101636151D01*
X123124250Y-101628919D01*
X123145074Y-101623703D01*
X123166309Y-101620553D01*
X123187750Y-101619500D01*
X123700250Y-101619500D01*
X123721691Y-101620553D01*
X123721691Y-101620553D01*
G37*
D11*
X123444000Y-102057000D03*
D10*
G36*
X126261691Y-101620553D02*
G01*
X126282926Y-101623703D01*
X126303750Y-101628919D01*
X126323962Y-101636151D01*
X126343368Y-101645330D01*
X126361781Y-101656366D01*
X126379024Y-101669154D01*
X126394930Y-101683570D01*
X126409346Y-101699476D01*
X126422134Y-101716719D01*
X126433170Y-101735132D01*
X126442349Y-101754538D01*
X126449581Y-101774750D01*
X126454797Y-101795574D01*
X126457947Y-101816809D01*
X126459000Y-101838250D01*
X126459000Y-102275750D01*
X126457947Y-102297191D01*
X126454797Y-102318426D01*
X126449581Y-102339250D01*
X126442349Y-102359462D01*
X126433170Y-102378868D01*
X126422134Y-102397281D01*
X126409346Y-102414524D01*
X126394930Y-102430430D01*
X126379024Y-102444846D01*
X126361781Y-102457634D01*
X126343368Y-102468670D01*
X126323962Y-102477849D01*
X126303750Y-102485081D01*
X126282926Y-102490297D01*
X126261691Y-102493447D01*
X126240250Y-102494500D01*
X125727750Y-102494500D01*
X125706309Y-102493447D01*
X125685074Y-102490297D01*
X125664250Y-102485081D01*
X125644038Y-102477849D01*
X125624632Y-102468670D01*
X125606219Y-102457634D01*
X125588976Y-102444846D01*
X125573070Y-102430430D01*
X125558654Y-102414524D01*
X125545866Y-102397281D01*
X125534830Y-102378868D01*
X125525651Y-102359462D01*
X125518419Y-102339250D01*
X125513203Y-102318426D01*
X125510053Y-102297191D01*
X125509000Y-102275750D01*
X125509000Y-101838250D01*
X125510053Y-101816809D01*
X125513203Y-101795574D01*
X125518419Y-101774750D01*
X125525651Y-101754538D01*
X125534830Y-101735132D01*
X125545866Y-101716719D01*
X125558654Y-101699476D01*
X125573070Y-101683570D01*
X125588976Y-101669154D01*
X125606219Y-101656366D01*
X125624632Y-101645330D01*
X125644038Y-101636151D01*
X125664250Y-101628919D01*
X125685074Y-101623703D01*
X125706309Y-101620553D01*
X125727750Y-101619500D01*
X126240250Y-101619500D01*
X126261691Y-101620553D01*
X126261691Y-101620553D01*
G37*
D11*
X125984000Y-102057000D03*
D10*
G36*
X126261691Y-103195553D02*
G01*
X126282926Y-103198703D01*
X126303750Y-103203919D01*
X126323962Y-103211151D01*
X126343368Y-103220330D01*
X126361781Y-103231366D01*
X126379024Y-103244154D01*
X126394930Y-103258570D01*
X126409346Y-103274476D01*
X126422134Y-103291719D01*
X126433170Y-103310132D01*
X126442349Y-103329538D01*
X126449581Y-103349750D01*
X126454797Y-103370574D01*
X126457947Y-103391809D01*
X126459000Y-103413250D01*
X126459000Y-103850750D01*
X126457947Y-103872191D01*
X126454797Y-103893426D01*
X126449581Y-103914250D01*
X126442349Y-103934462D01*
X126433170Y-103953868D01*
X126422134Y-103972281D01*
X126409346Y-103989524D01*
X126394930Y-104005430D01*
X126379024Y-104019846D01*
X126361781Y-104032634D01*
X126343368Y-104043670D01*
X126323962Y-104052849D01*
X126303750Y-104060081D01*
X126282926Y-104065297D01*
X126261691Y-104068447D01*
X126240250Y-104069500D01*
X125727750Y-104069500D01*
X125706309Y-104068447D01*
X125685074Y-104065297D01*
X125664250Y-104060081D01*
X125644038Y-104052849D01*
X125624632Y-104043670D01*
X125606219Y-104032634D01*
X125588976Y-104019846D01*
X125573070Y-104005430D01*
X125558654Y-103989524D01*
X125545866Y-103972281D01*
X125534830Y-103953868D01*
X125525651Y-103934462D01*
X125518419Y-103914250D01*
X125513203Y-103893426D01*
X125510053Y-103872191D01*
X125509000Y-103850750D01*
X125509000Y-103413250D01*
X125510053Y-103391809D01*
X125513203Y-103370574D01*
X125518419Y-103349750D01*
X125525651Y-103329538D01*
X125534830Y-103310132D01*
X125545866Y-103291719D01*
X125558654Y-103274476D01*
X125573070Y-103258570D01*
X125588976Y-103244154D01*
X125606219Y-103231366D01*
X125624632Y-103220330D01*
X125644038Y-103211151D01*
X125664250Y-103203919D01*
X125685074Y-103198703D01*
X125706309Y-103195553D01*
X125727750Y-103194500D01*
X126240250Y-103194500D01*
X126261691Y-103195553D01*
X126261691Y-103195553D01*
G37*
D11*
X125984000Y-103632000D03*
D10*
G36*
X126261691Y-128595553D02*
G01*
X126282926Y-128598703D01*
X126303750Y-128603919D01*
X126323962Y-128611151D01*
X126343368Y-128620330D01*
X126361781Y-128631366D01*
X126379024Y-128644154D01*
X126394930Y-128658570D01*
X126409346Y-128674476D01*
X126422134Y-128691719D01*
X126433170Y-128710132D01*
X126442349Y-128729538D01*
X126449581Y-128749750D01*
X126454797Y-128770574D01*
X126457947Y-128791809D01*
X126459000Y-128813250D01*
X126459000Y-129250750D01*
X126457947Y-129272191D01*
X126454797Y-129293426D01*
X126449581Y-129314250D01*
X126442349Y-129334462D01*
X126433170Y-129353868D01*
X126422134Y-129372281D01*
X126409346Y-129389524D01*
X126394930Y-129405430D01*
X126379024Y-129419846D01*
X126361781Y-129432634D01*
X126343368Y-129443670D01*
X126323962Y-129452849D01*
X126303750Y-129460081D01*
X126282926Y-129465297D01*
X126261691Y-129468447D01*
X126240250Y-129469500D01*
X125727750Y-129469500D01*
X125706309Y-129468447D01*
X125685074Y-129465297D01*
X125664250Y-129460081D01*
X125644038Y-129452849D01*
X125624632Y-129443670D01*
X125606219Y-129432634D01*
X125588976Y-129419846D01*
X125573070Y-129405430D01*
X125558654Y-129389524D01*
X125545866Y-129372281D01*
X125534830Y-129353868D01*
X125525651Y-129334462D01*
X125518419Y-129314250D01*
X125513203Y-129293426D01*
X125510053Y-129272191D01*
X125509000Y-129250750D01*
X125509000Y-128813250D01*
X125510053Y-128791809D01*
X125513203Y-128770574D01*
X125518419Y-128749750D01*
X125525651Y-128729538D01*
X125534830Y-128710132D01*
X125545866Y-128691719D01*
X125558654Y-128674476D01*
X125573070Y-128658570D01*
X125588976Y-128644154D01*
X125606219Y-128631366D01*
X125624632Y-128620330D01*
X125644038Y-128611151D01*
X125664250Y-128603919D01*
X125685074Y-128598703D01*
X125706309Y-128595553D01*
X125727750Y-128594500D01*
X126240250Y-128594500D01*
X126261691Y-128595553D01*
X126261691Y-128595553D01*
G37*
D11*
X125984000Y-129032000D03*
D10*
G36*
X126261691Y-130170553D02*
G01*
X126282926Y-130173703D01*
X126303750Y-130178919D01*
X126323962Y-130186151D01*
X126343368Y-130195330D01*
X126361781Y-130206366D01*
X126379024Y-130219154D01*
X126394930Y-130233570D01*
X126409346Y-130249476D01*
X126422134Y-130266719D01*
X126433170Y-130285132D01*
X126442349Y-130304538D01*
X126449581Y-130324750D01*
X126454797Y-130345574D01*
X126457947Y-130366809D01*
X126459000Y-130388250D01*
X126459000Y-130825750D01*
X126457947Y-130847191D01*
X126454797Y-130868426D01*
X126449581Y-130889250D01*
X126442349Y-130909462D01*
X126433170Y-130928868D01*
X126422134Y-130947281D01*
X126409346Y-130964524D01*
X126394930Y-130980430D01*
X126379024Y-130994846D01*
X126361781Y-131007634D01*
X126343368Y-131018670D01*
X126323962Y-131027849D01*
X126303750Y-131035081D01*
X126282926Y-131040297D01*
X126261691Y-131043447D01*
X126240250Y-131044500D01*
X125727750Y-131044500D01*
X125706309Y-131043447D01*
X125685074Y-131040297D01*
X125664250Y-131035081D01*
X125644038Y-131027849D01*
X125624632Y-131018670D01*
X125606219Y-131007634D01*
X125588976Y-130994846D01*
X125573070Y-130980430D01*
X125558654Y-130964524D01*
X125545866Y-130947281D01*
X125534830Y-130928868D01*
X125525651Y-130909462D01*
X125518419Y-130889250D01*
X125513203Y-130868426D01*
X125510053Y-130847191D01*
X125509000Y-130825750D01*
X125509000Y-130388250D01*
X125510053Y-130366809D01*
X125513203Y-130345574D01*
X125518419Y-130324750D01*
X125525651Y-130304538D01*
X125534830Y-130285132D01*
X125545866Y-130266719D01*
X125558654Y-130249476D01*
X125573070Y-130233570D01*
X125588976Y-130219154D01*
X125606219Y-130206366D01*
X125624632Y-130195330D01*
X125644038Y-130186151D01*
X125664250Y-130178919D01*
X125685074Y-130173703D01*
X125706309Y-130170553D01*
X125727750Y-130169500D01*
X126240250Y-130169500D01*
X126261691Y-130170553D01*
X126261691Y-130170553D01*
G37*
D11*
X125984000Y-130607000D03*
D10*
G36*
X123721691Y-130170553D02*
G01*
X123742926Y-130173703D01*
X123763750Y-130178919D01*
X123783962Y-130186151D01*
X123803368Y-130195330D01*
X123821781Y-130206366D01*
X123839024Y-130219154D01*
X123854930Y-130233570D01*
X123869346Y-130249476D01*
X123882134Y-130266719D01*
X123893170Y-130285132D01*
X123902349Y-130304538D01*
X123909581Y-130324750D01*
X123914797Y-130345574D01*
X123917947Y-130366809D01*
X123919000Y-130388250D01*
X123919000Y-130825750D01*
X123917947Y-130847191D01*
X123914797Y-130868426D01*
X123909581Y-130889250D01*
X123902349Y-130909462D01*
X123893170Y-130928868D01*
X123882134Y-130947281D01*
X123869346Y-130964524D01*
X123854930Y-130980430D01*
X123839024Y-130994846D01*
X123821781Y-131007634D01*
X123803368Y-131018670D01*
X123783962Y-131027849D01*
X123763750Y-131035081D01*
X123742926Y-131040297D01*
X123721691Y-131043447D01*
X123700250Y-131044500D01*
X123187750Y-131044500D01*
X123166309Y-131043447D01*
X123145074Y-131040297D01*
X123124250Y-131035081D01*
X123104038Y-131027849D01*
X123084632Y-131018670D01*
X123066219Y-131007634D01*
X123048976Y-130994846D01*
X123033070Y-130980430D01*
X123018654Y-130964524D01*
X123005866Y-130947281D01*
X122994830Y-130928868D01*
X122985651Y-130909462D01*
X122978419Y-130889250D01*
X122973203Y-130868426D01*
X122970053Y-130847191D01*
X122969000Y-130825750D01*
X122969000Y-130388250D01*
X122970053Y-130366809D01*
X122973203Y-130345574D01*
X122978419Y-130324750D01*
X122985651Y-130304538D01*
X122994830Y-130285132D01*
X123005866Y-130266719D01*
X123018654Y-130249476D01*
X123033070Y-130233570D01*
X123048976Y-130219154D01*
X123066219Y-130206366D01*
X123084632Y-130195330D01*
X123104038Y-130186151D01*
X123124250Y-130178919D01*
X123145074Y-130173703D01*
X123166309Y-130170553D01*
X123187750Y-130169500D01*
X123700250Y-130169500D01*
X123721691Y-130170553D01*
X123721691Y-130170553D01*
G37*
D11*
X123444000Y-130607000D03*
D10*
G36*
X123721691Y-128595553D02*
G01*
X123742926Y-128598703D01*
X123763750Y-128603919D01*
X123783962Y-128611151D01*
X123803368Y-128620330D01*
X123821781Y-128631366D01*
X123839024Y-128644154D01*
X123854930Y-128658570D01*
X123869346Y-128674476D01*
X123882134Y-128691719D01*
X123893170Y-128710132D01*
X123902349Y-128729538D01*
X123909581Y-128749750D01*
X123914797Y-128770574D01*
X123917947Y-128791809D01*
X123919000Y-128813250D01*
X123919000Y-129250750D01*
X123917947Y-129272191D01*
X123914797Y-129293426D01*
X123909581Y-129314250D01*
X123902349Y-129334462D01*
X123893170Y-129353868D01*
X123882134Y-129372281D01*
X123869346Y-129389524D01*
X123854930Y-129405430D01*
X123839024Y-129419846D01*
X123821781Y-129432634D01*
X123803368Y-129443670D01*
X123783962Y-129452849D01*
X123763750Y-129460081D01*
X123742926Y-129465297D01*
X123721691Y-129468447D01*
X123700250Y-129469500D01*
X123187750Y-129469500D01*
X123166309Y-129468447D01*
X123145074Y-129465297D01*
X123124250Y-129460081D01*
X123104038Y-129452849D01*
X123084632Y-129443670D01*
X123066219Y-129432634D01*
X123048976Y-129419846D01*
X123033070Y-129405430D01*
X123018654Y-129389524D01*
X123005866Y-129372281D01*
X122994830Y-129353868D01*
X122985651Y-129334462D01*
X122978419Y-129314250D01*
X122973203Y-129293426D01*
X122970053Y-129272191D01*
X122969000Y-129250750D01*
X122969000Y-128813250D01*
X122970053Y-128791809D01*
X122973203Y-128770574D01*
X122978419Y-128749750D01*
X122985651Y-128729538D01*
X122994830Y-128710132D01*
X123005866Y-128691719D01*
X123018654Y-128674476D01*
X123033070Y-128658570D01*
X123048976Y-128644154D01*
X123066219Y-128631366D01*
X123084632Y-128620330D01*
X123104038Y-128611151D01*
X123124250Y-128603919D01*
X123145074Y-128598703D01*
X123166309Y-128595553D01*
X123187750Y-128594500D01*
X123700250Y-128594500D01*
X123721691Y-128595553D01*
X123721691Y-128595553D01*
G37*
D11*
X123444000Y-129032000D03*
D10*
G36*
X121181691Y-128671553D02*
G01*
X121202926Y-128674703D01*
X121223750Y-128679919D01*
X121243962Y-128687151D01*
X121263368Y-128696330D01*
X121281781Y-128707366D01*
X121299024Y-128720154D01*
X121314930Y-128734570D01*
X121329346Y-128750476D01*
X121342134Y-128767719D01*
X121353170Y-128786132D01*
X121362349Y-128805538D01*
X121369581Y-128825750D01*
X121374797Y-128846574D01*
X121377947Y-128867809D01*
X121379000Y-128889250D01*
X121379000Y-129326750D01*
X121377947Y-129348191D01*
X121374797Y-129369426D01*
X121369581Y-129390250D01*
X121362349Y-129410462D01*
X121353170Y-129429868D01*
X121342134Y-129448281D01*
X121329346Y-129465524D01*
X121314930Y-129481430D01*
X121299024Y-129495846D01*
X121281781Y-129508634D01*
X121263368Y-129519670D01*
X121243962Y-129528849D01*
X121223750Y-129536081D01*
X121202926Y-129541297D01*
X121181691Y-129544447D01*
X121160250Y-129545500D01*
X120647750Y-129545500D01*
X120626309Y-129544447D01*
X120605074Y-129541297D01*
X120584250Y-129536081D01*
X120564038Y-129528849D01*
X120544632Y-129519670D01*
X120526219Y-129508634D01*
X120508976Y-129495846D01*
X120493070Y-129481430D01*
X120478654Y-129465524D01*
X120465866Y-129448281D01*
X120454830Y-129429868D01*
X120445651Y-129410462D01*
X120438419Y-129390250D01*
X120433203Y-129369426D01*
X120430053Y-129348191D01*
X120429000Y-129326750D01*
X120429000Y-128889250D01*
X120430053Y-128867809D01*
X120433203Y-128846574D01*
X120438419Y-128825750D01*
X120445651Y-128805538D01*
X120454830Y-128786132D01*
X120465866Y-128767719D01*
X120478654Y-128750476D01*
X120493070Y-128734570D01*
X120508976Y-128720154D01*
X120526219Y-128707366D01*
X120544632Y-128696330D01*
X120564038Y-128687151D01*
X120584250Y-128679919D01*
X120605074Y-128674703D01*
X120626309Y-128671553D01*
X120647750Y-128670500D01*
X121160250Y-128670500D01*
X121181691Y-128671553D01*
X121181691Y-128671553D01*
G37*
D11*
X120904000Y-129108000D03*
D10*
G36*
X121181691Y-130246553D02*
G01*
X121202926Y-130249703D01*
X121223750Y-130254919D01*
X121243962Y-130262151D01*
X121263368Y-130271330D01*
X121281781Y-130282366D01*
X121299024Y-130295154D01*
X121314930Y-130309570D01*
X121329346Y-130325476D01*
X121342134Y-130342719D01*
X121353170Y-130361132D01*
X121362349Y-130380538D01*
X121369581Y-130400750D01*
X121374797Y-130421574D01*
X121377947Y-130442809D01*
X121379000Y-130464250D01*
X121379000Y-130901750D01*
X121377947Y-130923191D01*
X121374797Y-130944426D01*
X121369581Y-130965250D01*
X121362349Y-130985462D01*
X121353170Y-131004868D01*
X121342134Y-131023281D01*
X121329346Y-131040524D01*
X121314930Y-131056430D01*
X121299024Y-131070846D01*
X121281781Y-131083634D01*
X121263368Y-131094670D01*
X121243962Y-131103849D01*
X121223750Y-131111081D01*
X121202926Y-131116297D01*
X121181691Y-131119447D01*
X121160250Y-131120500D01*
X120647750Y-131120500D01*
X120626309Y-131119447D01*
X120605074Y-131116297D01*
X120584250Y-131111081D01*
X120564038Y-131103849D01*
X120544632Y-131094670D01*
X120526219Y-131083634D01*
X120508976Y-131070846D01*
X120493070Y-131056430D01*
X120478654Y-131040524D01*
X120465866Y-131023281D01*
X120454830Y-131004868D01*
X120445651Y-130985462D01*
X120438419Y-130965250D01*
X120433203Y-130944426D01*
X120430053Y-130923191D01*
X120429000Y-130901750D01*
X120429000Y-130464250D01*
X120430053Y-130442809D01*
X120433203Y-130421574D01*
X120438419Y-130400750D01*
X120445651Y-130380538D01*
X120454830Y-130361132D01*
X120465866Y-130342719D01*
X120478654Y-130325476D01*
X120493070Y-130309570D01*
X120508976Y-130295154D01*
X120526219Y-130282366D01*
X120544632Y-130271330D01*
X120564038Y-130262151D01*
X120584250Y-130254919D01*
X120605074Y-130249703D01*
X120626309Y-130246553D01*
X120647750Y-130245500D01*
X121160250Y-130245500D01*
X121181691Y-130246553D01*
X121181691Y-130246553D01*
G37*
D11*
X120904000Y-130683000D03*
D10*
G36*
X118641691Y-130246553D02*
G01*
X118662926Y-130249703D01*
X118683750Y-130254919D01*
X118703962Y-130262151D01*
X118723368Y-130271330D01*
X118741781Y-130282366D01*
X118759024Y-130295154D01*
X118774930Y-130309570D01*
X118789346Y-130325476D01*
X118802134Y-130342719D01*
X118813170Y-130361132D01*
X118822349Y-130380538D01*
X118829581Y-130400750D01*
X118834797Y-130421574D01*
X118837947Y-130442809D01*
X118839000Y-130464250D01*
X118839000Y-130901750D01*
X118837947Y-130923191D01*
X118834797Y-130944426D01*
X118829581Y-130965250D01*
X118822349Y-130985462D01*
X118813170Y-131004868D01*
X118802134Y-131023281D01*
X118789346Y-131040524D01*
X118774930Y-131056430D01*
X118759024Y-131070846D01*
X118741781Y-131083634D01*
X118723368Y-131094670D01*
X118703962Y-131103849D01*
X118683750Y-131111081D01*
X118662926Y-131116297D01*
X118641691Y-131119447D01*
X118620250Y-131120500D01*
X118107750Y-131120500D01*
X118086309Y-131119447D01*
X118065074Y-131116297D01*
X118044250Y-131111081D01*
X118024038Y-131103849D01*
X118004632Y-131094670D01*
X117986219Y-131083634D01*
X117968976Y-131070846D01*
X117953070Y-131056430D01*
X117938654Y-131040524D01*
X117925866Y-131023281D01*
X117914830Y-131004868D01*
X117905651Y-130985462D01*
X117898419Y-130965250D01*
X117893203Y-130944426D01*
X117890053Y-130923191D01*
X117889000Y-130901750D01*
X117889000Y-130464250D01*
X117890053Y-130442809D01*
X117893203Y-130421574D01*
X117898419Y-130400750D01*
X117905651Y-130380538D01*
X117914830Y-130361132D01*
X117925866Y-130342719D01*
X117938654Y-130325476D01*
X117953070Y-130309570D01*
X117968976Y-130295154D01*
X117986219Y-130282366D01*
X118004632Y-130271330D01*
X118024038Y-130262151D01*
X118044250Y-130254919D01*
X118065074Y-130249703D01*
X118086309Y-130246553D01*
X118107750Y-130245500D01*
X118620250Y-130245500D01*
X118641691Y-130246553D01*
X118641691Y-130246553D01*
G37*
D11*
X118364000Y-130683000D03*
D10*
G36*
X118641691Y-128671553D02*
G01*
X118662926Y-128674703D01*
X118683750Y-128679919D01*
X118703962Y-128687151D01*
X118723368Y-128696330D01*
X118741781Y-128707366D01*
X118759024Y-128720154D01*
X118774930Y-128734570D01*
X118789346Y-128750476D01*
X118802134Y-128767719D01*
X118813170Y-128786132D01*
X118822349Y-128805538D01*
X118829581Y-128825750D01*
X118834797Y-128846574D01*
X118837947Y-128867809D01*
X118839000Y-128889250D01*
X118839000Y-129326750D01*
X118837947Y-129348191D01*
X118834797Y-129369426D01*
X118829581Y-129390250D01*
X118822349Y-129410462D01*
X118813170Y-129429868D01*
X118802134Y-129448281D01*
X118789346Y-129465524D01*
X118774930Y-129481430D01*
X118759024Y-129495846D01*
X118741781Y-129508634D01*
X118723368Y-129519670D01*
X118703962Y-129528849D01*
X118683750Y-129536081D01*
X118662926Y-129541297D01*
X118641691Y-129544447D01*
X118620250Y-129545500D01*
X118107750Y-129545500D01*
X118086309Y-129544447D01*
X118065074Y-129541297D01*
X118044250Y-129536081D01*
X118024038Y-129528849D01*
X118004632Y-129519670D01*
X117986219Y-129508634D01*
X117968976Y-129495846D01*
X117953070Y-129481430D01*
X117938654Y-129465524D01*
X117925866Y-129448281D01*
X117914830Y-129429868D01*
X117905651Y-129410462D01*
X117898419Y-129390250D01*
X117893203Y-129369426D01*
X117890053Y-129348191D01*
X117889000Y-129326750D01*
X117889000Y-128889250D01*
X117890053Y-128867809D01*
X117893203Y-128846574D01*
X117898419Y-128825750D01*
X117905651Y-128805538D01*
X117914830Y-128786132D01*
X117925866Y-128767719D01*
X117938654Y-128750476D01*
X117953070Y-128734570D01*
X117968976Y-128720154D01*
X117986219Y-128707366D01*
X118004632Y-128696330D01*
X118024038Y-128687151D01*
X118044250Y-128679919D01*
X118065074Y-128674703D01*
X118086309Y-128671553D01*
X118107750Y-128670500D01*
X118620250Y-128670500D01*
X118641691Y-128671553D01*
X118641691Y-128671553D01*
G37*
D11*
X118364000Y-129108000D03*
D10*
G36*
X128928691Y-103195553D02*
G01*
X128949926Y-103198703D01*
X128970750Y-103203919D01*
X128990962Y-103211151D01*
X129010368Y-103220330D01*
X129028781Y-103231366D01*
X129046024Y-103244154D01*
X129061930Y-103258570D01*
X129076346Y-103274476D01*
X129089134Y-103291719D01*
X129100170Y-103310132D01*
X129109349Y-103329538D01*
X129116581Y-103349750D01*
X129121797Y-103370574D01*
X129124947Y-103391809D01*
X129126000Y-103413250D01*
X129126000Y-103850750D01*
X129124947Y-103872191D01*
X129121797Y-103893426D01*
X129116581Y-103914250D01*
X129109349Y-103934462D01*
X129100170Y-103953868D01*
X129089134Y-103972281D01*
X129076346Y-103989524D01*
X129061930Y-104005430D01*
X129046024Y-104019846D01*
X129028781Y-104032634D01*
X129010368Y-104043670D01*
X128990962Y-104052849D01*
X128970750Y-104060081D01*
X128949926Y-104065297D01*
X128928691Y-104068447D01*
X128907250Y-104069500D01*
X128394750Y-104069500D01*
X128373309Y-104068447D01*
X128352074Y-104065297D01*
X128331250Y-104060081D01*
X128311038Y-104052849D01*
X128291632Y-104043670D01*
X128273219Y-104032634D01*
X128255976Y-104019846D01*
X128240070Y-104005430D01*
X128225654Y-103989524D01*
X128212866Y-103972281D01*
X128201830Y-103953868D01*
X128192651Y-103934462D01*
X128185419Y-103914250D01*
X128180203Y-103893426D01*
X128177053Y-103872191D01*
X128176000Y-103850750D01*
X128176000Y-103413250D01*
X128177053Y-103391809D01*
X128180203Y-103370574D01*
X128185419Y-103349750D01*
X128192651Y-103329538D01*
X128201830Y-103310132D01*
X128212866Y-103291719D01*
X128225654Y-103274476D01*
X128240070Y-103258570D01*
X128255976Y-103244154D01*
X128273219Y-103231366D01*
X128291632Y-103220330D01*
X128311038Y-103211151D01*
X128331250Y-103203919D01*
X128352074Y-103198703D01*
X128373309Y-103195553D01*
X128394750Y-103194500D01*
X128907250Y-103194500D01*
X128928691Y-103195553D01*
X128928691Y-103195553D01*
G37*
D11*
X128651000Y-103632000D03*
D10*
G36*
X128928691Y-101620553D02*
G01*
X128949926Y-101623703D01*
X128970750Y-101628919D01*
X128990962Y-101636151D01*
X129010368Y-101645330D01*
X129028781Y-101656366D01*
X129046024Y-101669154D01*
X129061930Y-101683570D01*
X129076346Y-101699476D01*
X129089134Y-101716719D01*
X129100170Y-101735132D01*
X129109349Y-101754538D01*
X129116581Y-101774750D01*
X129121797Y-101795574D01*
X129124947Y-101816809D01*
X129126000Y-101838250D01*
X129126000Y-102275750D01*
X129124947Y-102297191D01*
X129121797Y-102318426D01*
X129116581Y-102339250D01*
X129109349Y-102359462D01*
X129100170Y-102378868D01*
X129089134Y-102397281D01*
X129076346Y-102414524D01*
X129061930Y-102430430D01*
X129046024Y-102444846D01*
X129028781Y-102457634D01*
X129010368Y-102468670D01*
X128990962Y-102477849D01*
X128970750Y-102485081D01*
X128949926Y-102490297D01*
X128928691Y-102493447D01*
X128907250Y-102494500D01*
X128394750Y-102494500D01*
X128373309Y-102493447D01*
X128352074Y-102490297D01*
X128331250Y-102485081D01*
X128311038Y-102477849D01*
X128291632Y-102468670D01*
X128273219Y-102457634D01*
X128255976Y-102444846D01*
X128240070Y-102430430D01*
X128225654Y-102414524D01*
X128212866Y-102397281D01*
X128201830Y-102378868D01*
X128192651Y-102359462D01*
X128185419Y-102339250D01*
X128180203Y-102318426D01*
X128177053Y-102297191D01*
X128176000Y-102275750D01*
X128176000Y-101838250D01*
X128177053Y-101816809D01*
X128180203Y-101795574D01*
X128185419Y-101774750D01*
X128192651Y-101754538D01*
X128201830Y-101735132D01*
X128212866Y-101716719D01*
X128225654Y-101699476D01*
X128240070Y-101683570D01*
X128255976Y-101669154D01*
X128273219Y-101656366D01*
X128291632Y-101645330D01*
X128311038Y-101636151D01*
X128331250Y-101628919D01*
X128352074Y-101623703D01*
X128373309Y-101620553D01*
X128394750Y-101619500D01*
X128907250Y-101619500D01*
X128928691Y-101620553D01*
X128928691Y-101620553D01*
G37*
D11*
X128651000Y-102057000D03*
D10*
G36*
X131341691Y-101620553D02*
G01*
X131362926Y-101623703D01*
X131383750Y-101628919D01*
X131403962Y-101636151D01*
X131423368Y-101645330D01*
X131441781Y-101656366D01*
X131459024Y-101669154D01*
X131474930Y-101683570D01*
X131489346Y-101699476D01*
X131502134Y-101716719D01*
X131513170Y-101735132D01*
X131522349Y-101754538D01*
X131529581Y-101774750D01*
X131534797Y-101795574D01*
X131537947Y-101816809D01*
X131539000Y-101838250D01*
X131539000Y-102275750D01*
X131537947Y-102297191D01*
X131534797Y-102318426D01*
X131529581Y-102339250D01*
X131522349Y-102359462D01*
X131513170Y-102378868D01*
X131502134Y-102397281D01*
X131489346Y-102414524D01*
X131474930Y-102430430D01*
X131459024Y-102444846D01*
X131441781Y-102457634D01*
X131423368Y-102468670D01*
X131403962Y-102477849D01*
X131383750Y-102485081D01*
X131362926Y-102490297D01*
X131341691Y-102493447D01*
X131320250Y-102494500D01*
X130807750Y-102494500D01*
X130786309Y-102493447D01*
X130765074Y-102490297D01*
X130744250Y-102485081D01*
X130724038Y-102477849D01*
X130704632Y-102468670D01*
X130686219Y-102457634D01*
X130668976Y-102444846D01*
X130653070Y-102430430D01*
X130638654Y-102414524D01*
X130625866Y-102397281D01*
X130614830Y-102378868D01*
X130605651Y-102359462D01*
X130598419Y-102339250D01*
X130593203Y-102318426D01*
X130590053Y-102297191D01*
X130589000Y-102275750D01*
X130589000Y-101838250D01*
X130590053Y-101816809D01*
X130593203Y-101795574D01*
X130598419Y-101774750D01*
X130605651Y-101754538D01*
X130614830Y-101735132D01*
X130625866Y-101716719D01*
X130638654Y-101699476D01*
X130653070Y-101683570D01*
X130668976Y-101669154D01*
X130686219Y-101656366D01*
X130704632Y-101645330D01*
X130724038Y-101636151D01*
X130744250Y-101628919D01*
X130765074Y-101623703D01*
X130786309Y-101620553D01*
X130807750Y-101619500D01*
X131320250Y-101619500D01*
X131341691Y-101620553D01*
X131341691Y-101620553D01*
G37*
D11*
X131064000Y-102057000D03*
D10*
G36*
X131341691Y-103195553D02*
G01*
X131362926Y-103198703D01*
X131383750Y-103203919D01*
X131403962Y-103211151D01*
X131423368Y-103220330D01*
X131441781Y-103231366D01*
X131459024Y-103244154D01*
X131474930Y-103258570D01*
X131489346Y-103274476D01*
X131502134Y-103291719D01*
X131513170Y-103310132D01*
X131522349Y-103329538D01*
X131529581Y-103349750D01*
X131534797Y-103370574D01*
X131537947Y-103391809D01*
X131539000Y-103413250D01*
X131539000Y-103850750D01*
X131537947Y-103872191D01*
X131534797Y-103893426D01*
X131529581Y-103914250D01*
X131522349Y-103934462D01*
X131513170Y-103953868D01*
X131502134Y-103972281D01*
X131489346Y-103989524D01*
X131474930Y-104005430D01*
X131459024Y-104019846D01*
X131441781Y-104032634D01*
X131423368Y-104043670D01*
X131403962Y-104052849D01*
X131383750Y-104060081D01*
X131362926Y-104065297D01*
X131341691Y-104068447D01*
X131320250Y-104069500D01*
X130807750Y-104069500D01*
X130786309Y-104068447D01*
X130765074Y-104065297D01*
X130744250Y-104060081D01*
X130724038Y-104052849D01*
X130704632Y-104043670D01*
X130686219Y-104032634D01*
X130668976Y-104019846D01*
X130653070Y-104005430D01*
X130638654Y-103989524D01*
X130625866Y-103972281D01*
X130614830Y-103953868D01*
X130605651Y-103934462D01*
X130598419Y-103914250D01*
X130593203Y-103893426D01*
X130590053Y-103872191D01*
X130589000Y-103850750D01*
X130589000Y-103413250D01*
X130590053Y-103391809D01*
X130593203Y-103370574D01*
X130598419Y-103349750D01*
X130605651Y-103329538D01*
X130614830Y-103310132D01*
X130625866Y-103291719D01*
X130638654Y-103274476D01*
X130653070Y-103258570D01*
X130668976Y-103244154D01*
X130686219Y-103231366D01*
X130704632Y-103220330D01*
X130724038Y-103211151D01*
X130744250Y-103203919D01*
X130765074Y-103198703D01*
X130786309Y-103195553D01*
X130807750Y-103194500D01*
X131320250Y-103194500D01*
X131341691Y-103195553D01*
X131341691Y-103195553D01*
G37*
D11*
X131064000Y-103632000D03*
D10*
G36*
X134008691Y-103195553D02*
G01*
X134029926Y-103198703D01*
X134050750Y-103203919D01*
X134070962Y-103211151D01*
X134090368Y-103220330D01*
X134108781Y-103231366D01*
X134126024Y-103244154D01*
X134141930Y-103258570D01*
X134156346Y-103274476D01*
X134169134Y-103291719D01*
X134180170Y-103310132D01*
X134189349Y-103329538D01*
X134196581Y-103349750D01*
X134201797Y-103370574D01*
X134204947Y-103391809D01*
X134206000Y-103413250D01*
X134206000Y-103850750D01*
X134204947Y-103872191D01*
X134201797Y-103893426D01*
X134196581Y-103914250D01*
X134189349Y-103934462D01*
X134180170Y-103953868D01*
X134169134Y-103972281D01*
X134156346Y-103989524D01*
X134141930Y-104005430D01*
X134126024Y-104019846D01*
X134108781Y-104032634D01*
X134090368Y-104043670D01*
X134070962Y-104052849D01*
X134050750Y-104060081D01*
X134029926Y-104065297D01*
X134008691Y-104068447D01*
X133987250Y-104069500D01*
X133474750Y-104069500D01*
X133453309Y-104068447D01*
X133432074Y-104065297D01*
X133411250Y-104060081D01*
X133391038Y-104052849D01*
X133371632Y-104043670D01*
X133353219Y-104032634D01*
X133335976Y-104019846D01*
X133320070Y-104005430D01*
X133305654Y-103989524D01*
X133292866Y-103972281D01*
X133281830Y-103953868D01*
X133272651Y-103934462D01*
X133265419Y-103914250D01*
X133260203Y-103893426D01*
X133257053Y-103872191D01*
X133256000Y-103850750D01*
X133256000Y-103413250D01*
X133257053Y-103391809D01*
X133260203Y-103370574D01*
X133265419Y-103349750D01*
X133272651Y-103329538D01*
X133281830Y-103310132D01*
X133292866Y-103291719D01*
X133305654Y-103274476D01*
X133320070Y-103258570D01*
X133335976Y-103244154D01*
X133353219Y-103231366D01*
X133371632Y-103220330D01*
X133391038Y-103211151D01*
X133411250Y-103203919D01*
X133432074Y-103198703D01*
X133453309Y-103195553D01*
X133474750Y-103194500D01*
X133987250Y-103194500D01*
X134008691Y-103195553D01*
X134008691Y-103195553D01*
G37*
D11*
X133731000Y-103632000D03*
D10*
G36*
X134008691Y-101620553D02*
G01*
X134029926Y-101623703D01*
X134050750Y-101628919D01*
X134070962Y-101636151D01*
X134090368Y-101645330D01*
X134108781Y-101656366D01*
X134126024Y-101669154D01*
X134141930Y-101683570D01*
X134156346Y-101699476D01*
X134169134Y-101716719D01*
X134180170Y-101735132D01*
X134189349Y-101754538D01*
X134196581Y-101774750D01*
X134201797Y-101795574D01*
X134204947Y-101816809D01*
X134206000Y-101838250D01*
X134206000Y-102275750D01*
X134204947Y-102297191D01*
X134201797Y-102318426D01*
X134196581Y-102339250D01*
X134189349Y-102359462D01*
X134180170Y-102378868D01*
X134169134Y-102397281D01*
X134156346Y-102414524D01*
X134141930Y-102430430D01*
X134126024Y-102444846D01*
X134108781Y-102457634D01*
X134090368Y-102468670D01*
X134070962Y-102477849D01*
X134050750Y-102485081D01*
X134029926Y-102490297D01*
X134008691Y-102493447D01*
X133987250Y-102494500D01*
X133474750Y-102494500D01*
X133453309Y-102493447D01*
X133432074Y-102490297D01*
X133411250Y-102485081D01*
X133391038Y-102477849D01*
X133371632Y-102468670D01*
X133353219Y-102457634D01*
X133335976Y-102444846D01*
X133320070Y-102430430D01*
X133305654Y-102414524D01*
X133292866Y-102397281D01*
X133281830Y-102378868D01*
X133272651Y-102359462D01*
X133265419Y-102339250D01*
X133260203Y-102318426D01*
X133257053Y-102297191D01*
X133256000Y-102275750D01*
X133256000Y-101838250D01*
X133257053Y-101816809D01*
X133260203Y-101795574D01*
X133265419Y-101774750D01*
X133272651Y-101754538D01*
X133281830Y-101735132D01*
X133292866Y-101716719D01*
X133305654Y-101699476D01*
X133320070Y-101683570D01*
X133335976Y-101669154D01*
X133353219Y-101656366D01*
X133371632Y-101645330D01*
X133391038Y-101636151D01*
X133411250Y-101628919D01*
X133432074Y-101623703D01*
X133453309Y-101620553D01*
X133474750Y-101619500D01*
X133987250Y-101619500D01*
X134008691Y-101620553D01*
X134008691Y-101620553D01*
G37*
D11*
X133731000Y-102057000D03*
D10*
G36*
X178585691Y-109672553D02*
G01*
X178606926Y-109675703D01*
X178627750Y-109680919D01*
X178647962Y-109688151D01*
X178667368Y-109697330D01*
X178685781Y-109708366D01*
X178703024Y-109721154D01*
X178718930Y-109735570D01*
X178733346Y-109751476D01*
X178746134Y-109768719D01*
X178757170Y-109787132D01*
X178766349Y-109806538D01*
X178773581Y-109826750D01*
X178778797Y-109847574D01*
X178781947Y-109868809D01*
X178783000Y-109890250D01*
X178783000Y-110327750D01*
X178781947Y-110349191D01*
X178778797Y-110370426D01*
X178773581Y-110391250D01*
X178766349Y-110411462D01*
X178757170Y-110430868D01*
X178746134Y-110449281D01*
X178733346Y-110466524D01*
X178718930Y-110482430D01*
X178703024Y-110496846D01*
X178685781Y-110509634D01*
X178667368Y-110520670D01*
X178647962Y-110529849D01*
X178627750Y-110537081D01*
X178606926Y-110542297D01*
X178585691Y-110545447D01*
X178564250Y-110546500D01*
X178051750Y-110546500D01*
X178030309Y-110545447D01*
X178009074Y-110542297D01*
X177988250Y-110537081D01*
X177968038Y-110529849D01*
X177948632Y-110520670D01*
X177930219Y-110509634D01*
X177912976Y-110496846D01*
X177897070Y-110482430D01*
X177882654Y-110466524D01*
X177869866Y-110449281D01*
X177858830Y-110430868D01*
X177849651Y-110411462D01*
X177842419Y-110391250D01*
X177837203Y-110370426D01*
X177834053Y-110349191D01*
X177833000Y-110327750D01*
X177833000Y-109890250D01*
X177834053Y-109868809D01*
X177837203Y-109847574D01*
X177842419Y-109826750D01*
X177849651Y-109806538D01*
X177858830Y-109787132D01*
X177869866Y-109768719D01*
X177882654Y-109751476D01*
X177897070Y-109735570D01*
X177912976Y-109721154D01*
X177930219Y-109708366D01*
X177948632Y-109697330D01*
X177968038Y-109688151D01*
X177988250Y-109680919D01*
X178009074Y-109675703D01*
X178030309Y-109672553D01*
X178051750Y-109671500D01*
X178564250Y-109671500D01*
X178585691Y-109672553D01*
X178585691Y-109672553D01*
G37*
D11*
X178308000Y-110109000D03*
D10*
G36*
X178585691Y-111247553D02*
G01*
X178606926Y-111250703D01*
X178627750Y-111255919D01*
X178647962Y-111263151D01*
X178667368Y-111272330D01*
X178685781Y-111283366D01*
X178703024Y-111296154D01*
X178718930Y-111310570D01*
X178733346Y-111326476D01*
X178746134Y-111343719D01*
X178757170Y-111362132D01*
X178766349Y-111381538D01*
X178773581Y-111401750D01*
X178778797Y-111422574D01*
X178781947Y-111443809D01*
X178783000Y-111465250D01*
X178783000Y-111902750D01*
X178781947Y-111924191D01*
X178778797Y-111945426D01*
X178773581Y-111966250D01*
X178766349Y-111986462D01*
X178757170Y-112005868D01*
X178746134Y-112024281D01*
X178733346Y-112041524D01*
X178718930Y-112057430D01*
X178703024Y-112071846D01*
X178685781Y-112084634D01*
X178667368Y-112095670D01*
X178647962Y-112104849D01*
X178627750Y-112112081D01*
X178606926Y-112117297D01*
X178585691Y-112120447D01*
X178564250Y-112121500D01*
X178051750Y-112121500D01*
X178030309Y-112120447D01*
X178009074Y-112117297D01*
X177988250Y-112112081D01*
X177968038Y-112104849D01*
X177948632Y-112095670D01*
X177930219Y-112084634D01*
X177912976Y-112071846D01*
X177897070Y-112057430D01*
X177882654Y-112041524D01*
X177869866Y-112024281D01*
X177858830Y-112005868D01*
X177849651Y-111986462D01*
X177842419Y-111966250D01*
X177837203Y-111945426D01*
X177834053Y-111924191D01*
X177833000Y-111902750D01*
X177833000Y-111465250D01*
X177834053Y-111443809D01*
X177837203Y-111422574D01*
X177842419Y-111401750D01*
X177849651Y-111381538D01*
X177858830Y-111362132D01*
X177869866Y-111343719D01*
X177882654Y-111326476D01*
X177897070Y-111310570D01*
X177912976Y-111296154D01*
X177930219Y-111283366D01*
X177948632Y-111272330D01*
X177968038Y-111263151D01*
X177988250Y-111255919D01*
X178009074Y-111250703D01*
X178030309Y-111247553D01*
X178051750Y-111246500D01*
X178564250Y-111246500D01*
X178585691Y-111247553D01*
X178585691Y-111247553D01*
G37*
D11*
X178308000Y-111684000D03*
D10*
G36*
X215073191Y-86648053D02*
G01*
X215094426Y-86651203D01*
X215115250Y-86656419D01*
X215135462Y-86663651D01*
X215154868Y-86672830D01*
X215173281Y-86683866D01*
X215190524Y-86696654D01*
X215206430Y-86711070D01*
X215220846Y-86726976D01*
X215233634Y-86744219D01*
X215244670Y-86762632D01*
X215253849Y-86782038D01*
X215261081Y-86802250D01*
X215266297Y-86823074D01*
X215269447Y-86844309D01*
X215270500Y-86865750D01*
X215270500Y-87378250D01*
X215269447Y-87399691D01*
X215266297Y-87420926D01*
X215261081Y-87441750D01*
X215253849Y-87461962D01*
X215244670Y-87481368D01*
X215233634Y-87499781D01*
X215220846Y-87517024D01*
X215206430Y-87532930D01*
X215190524Y-87547346D01*
X215173281Y-87560134D01*
X215154868Y-87571170D01*
X215135462Y-87580349D01*
X215115250Y-87587581D01*
X215094426Y-87592797D01*
X215073191Y-87595947D01*
X215051750Y-87597000D01*
X214614250Y-87597000D01*
X214592809Y-87595947D01*
X214571574Y-87592797D01*
X214550750Y-87587581D01*
X214530538Y-87580349D01*
X214511132Y-87571170D01*
X214492719Y-87560134D01*
X214475476Y-87547346D01*
X214459570Y-87532930D01*
X214445154Y-87517024D01*
X214432366Y-87499781D01*
X214421330Y-87481368D01*
X214412151Y-87461962D01*
X214404919Y-87441750D01*
X214399703Y-87420926D01*
X214396553Y-87399691D01*
X214395500Y-87378250D01*
X214395500Y-86865750D01*
X214396553Y-86844309D01*
X214399703Y-86823074D01*
X214404919Y-86802250D01*
X214412151Y-86782038D01*
X214421330Y-86762632D01*
X214432366Y-86744219D01*
X214445154Y-86726976D01*
X214459570Y-86711070D01*
X214475476Y-86696654D01*
X214492719Y-86683866D01*
X214511132Y-86672830D01*
X214530538Y-86663651D01*
X214550750Y-86656419D01*
X214571574Y-86651203D01*
X214592809Y-86648053D01*
X214614250Y-86647000D01*
X215051750Y-86647000D01*
X215073191Y-86648053D01*
X215073191Y-86648053D01*
G37*
D11*
X214833000Y-87122000D03*
D10*
G36*
X216648191Y-86648053D02*
G01*
X216669426Y-86651203D01*
X216690250Y-86656419D01*
X216710462Y-86663651D01*
X216729868Y-86672830D01*
X216748281Y-86683866D01*
X216765524Y-86696654D01*
X216781430Y-86711070D01*
X216795846Y-86726976D01*
X216808634Y-86744219D01*
X216819670Y-86762632D01*
X216828849Y-86782038D01*
X216836081Y-86802250D01*
X216841297Y-86823074D01*
X216844447Y-86844309D01*
X216845500Y-86865750D01*
X216845500Y-87378250D01*
X216844447Y-87399691D01*
X216841297Y-87420926D01*
X216836081Y-87441750D01*
X216828849Y-87461962D01*
X216819670Y-87481368D01*
X216808634Y-87499781D01*
X216795846Y-87517024D01*
X216781430Y-87532930D01*
X216765524Y-87547346D01*
X216748281Y-87560134D01*
X216729868Y-87571170D01*
X216710462Y-87580349D01*
X216690250Y-87587581D01*
X216669426Y-87592797D01*
X216648191Y-87595947D01*
X216626750Y-87597000D01*
X216189250Y-87597000D01*
X216167809Y-87595947D01*
X216146574Y-87592797D01*
X216125750Y-87587581D01*
X216105538Y-87580349D01*
X216086132Y-87571170D01*
X216067719Y-87560134D01*
X216050476Y-87547346D01*
X216034570Y-87532930D01*
X216020154Y-87517024D01*
X216007366Y-87499781D01*
X215996330Y-87481368D01*
X215987151Y-87461962D01*
X215979919Y-87441750D01*
X215974703Y-87420926D01*
X215971553Y-87399691D01*
X215970500Y-87378250D01*
X215970500Y-86865750D01*
X215971553Y-86844309D01*
X215974703Y-86823074D01*
X215979919Y-86802250D01*
X215987151Y-86782038D01*
X215996330Y-86762632D01*
X216007366Y-86744219D01*
X216020154Y-86726976D01*
X216034570Y-86711070D01*
X216050476Y-86696654D01*
X216067719Y-86683866D01*
X216086132Y-86672830D01*
X216105538Y-86663651D01*
X216125750Y-86656419D01*
X216146574Y-86651203D01*
X216167809Y-86648053D01*
X216189250Y-86647000D01*
X216626750Y-86647000D01*
X216648191Y-86648053D01*
X216648191Y-86648053D01*
G37*
D11*
X216408000Y-87122000D03*
M02*
