G04 #@! TF.GenerationSoftware,KiCad,Pcbnew,5.1.4*
G04 #@! TF.CreationDate,2019-10-01T18:25:40-04:00*
G04 #@! TF.ProjectId,SolarCarECU,536f6c61-7243-4617-9245-43552e6b6963,rev?*
G04 #@! TF.SameCoordinates,Original*
G04 #@! TF.FileFunction,Legend,Bot*
G04 #@! TF.FilePolarity,Positive*
%FSLAX46Y46*%
G04 Gerber Fmt 4.6, Leading zero omitted, Abs format (unit mm)*
G04 Created by KiCad (PCBNEW 5.1.4) date 2019-10-01 18:25:40*
%MOMM*%
%LPD*%
G04 APERTURE LIST*
%ADD10C,0.120000*%
%ADD11C,0.150000*%
G04 APERTURE END LIST*
D10*
X219039221Y-84072000D02*
X219364779Y-84072000D01*
X219039221Y-85092000D02*
X219364779Y-85092000D01*
X219039221Y-81278000D02*
X219364779Y-81278000D01*
X219039221Y-82298000D02*
X219364779Y-82298000D01*
X219039221Y-78992000D02*
X219364779Y-78992000D01*
X219039221Y-80012000D02*
X219364779Y-80012000D01*
X219039221Y-76198000D02*
X219364779Y-76198000D01*
X219039221Y-77218000D02*
X219364779Y-77218000D01*
X219039221Y-73658000D02*
X219364779Y-73658000D01*
X219039221Y-74678000D02*
X219364779Y-74678000D01*
X79918779Y-107444000D02*
X79593221Y-107444000D01*
X79918779Y-106424000D02*
X79593221Y-106424000D01*
X88140000Y-127599221D02*
X88140000Y-127924779D01*
X87120000Y-127599221D02*
X87120000Y-127924779D01*
X79918779Y-108968000D02*
X79593221Y-108968000D01*
X79918779Y-107948000D02*
X79593221Y-107948000D01*
X84584000Y-127599221D02*
X84584000Y-127924779D01*
X83564000Y-127599221D02*
X83564000Y-127924779D01*
X79918779Y-102872000D02*
X79593221Y-102872000D01*
X79918779Y-101852000D02*
X79593221Y-101852000D01*
X86108000Y-127599221D02*
X86108000Y-127924779D01*
X85088000Y-127599221D02*
X85088000Y-127924779D01*
X79918779Y-105920000D02*
X79593221Y-105920000D01*
X79918779Y-104900000D02*
X79593221Y-104900000D01*
X89664000Y-127599221D02*
X89664000Y-127924779D01*
X88644000Y-127599221D02*
X88644000Y-127924779D01*
X79918779Y-104396000D02*
X79593221Y-104396000D01*
X79918779Y-103376000D02*
X79593221Y-103376000D01*
X181091721Y-109599000D02*
X181417279Y-109599000D01*
X181091721Y-110619000D02*
X181417279Y-110619000D01*
X86142000Y-48752000D02*
X90042000Y-48752000D01*
X86142000Y-46752000D02*
X90042000Y-46752000D01*
X86142000Y-48752000D02*
X86142000Y-46752000D01*
X90642000Y-44212000D02*
X86742000Y-44212000D01*
X90642000Y-46212000D02*
X86742000Y-46212000D01*
X90642000Y-44212000D02*
X90642000Y-46212000D01*
X86142000Y-63484000D02*
X90042000Y-63484000D01*
X86142000Y-61484000D02*
X90042000Y-61484000D01*
X86142000Y-63484000D02*
X86142000Y-61484000D01*
X90642000Y-58944000D02*
X86742000Y-58944000D01*
X90642000Y-60944000D02*
X86742000Y-60944000D01*
X90642000Y-58944000D02*
X90642000Y-60944000D01*
X85888000Y-78216000D02*
X89788000Y-78216000D01*
X85888000Y-76216000D02*
X89788000Y-76216000D01*
X85888000Y-78216000D02*
X85888000Y-76216000D01*
X90388000Y-73676000D02*
X86488000Y-73676000D01*
X90388000Y-75676000D02*
X86488000Y-75676000D01*
X90388000Y-73676000D02*
X90388000Y-75676000D01*
X86142000Y-56118000D02*
X90042000Y-56118000D01*
X86142000Y-54118000D02*
X90042000Y-54118000D01*
X86142000Y-56118000D02*
X86142000Y-54118000D01*
X90642000Y-51578000D02*
X86742000Y-51578000D01*
X90642000Y-53578000D02*
X86742000Y-53578000D01*
X90642000Y-51578000D02*
X90642000Y-53578000D01*
X86142000Y-70850000D02*
X90042000Y-70850000D01*
X86142000Y-68850000D02*
X90042000Y-68850000D01*
X86142000Y-70850000D02*
X86142000Y-68850000D01*
X90642000Y-66310000D02*
X86742000Y-66310000D01*
X90642000Y-68310000D02*
X86742000Y-68310000D01*
X90642000Y-66310000D02*
X90642000Y-68310000D01*
X85888000Y-85582000D02*
X89788000Y-85582000D01*
X85888000Y-83582000D02*
X89788000Y-83582000D01*
X85888000Y-85582000D02*
X85888000Y-83582000D01*
X90388000Y-81042000D02*
X86488000Y-81042000D01*
X90388000Y-83042000D02*
X86488000Y-83042000D01*
X90388000Y-81042000D02*
X90388000Y-83042000D01*
X103472064Y-55774000D02*
X102267936Y-55774000D01*
X103472064Y-53954000D02*
X102267936Y-53954000D01*
X103472064Y-82698000D02*
X102267936Y-82698000D01*
X103472064Y-80878000D02*
X102267936Y-80878000D01*
X103472064Y-65426000D02*
X102267936Y-65426000D01*
X103472064Y-63606000D02*
X102267936Y-63606000D01*
X103472064Y-53234000D02*
X102267936Y-53234000D01*
X103472064Y-51414000D02*
X102267936Y-51414000D01*
X103472064Y-50694000D02*
X102267936Y-50694000D01*
X103472064Y-48874000D02*
X102267936Y-48874000D01*
X103472064Y-80158000D02*
X102267936Y-80158000D01*
X103472064Y-78338000D02*
X102267936Y-78338000D01*
X103472064Y-85238000D02*
X102267936Y-85238000D01*
X103472064Y-83418000D02*
X102267936Y-83418000D01*
X103472064Y-70506000D02*
X102267936Y-70506000D01*
X103472064Y-68686000D02*
X102267936Y-68686000D01*
X103472064Y-67966000D02*
X102267936Y-67966000D01*
X103472064Y-66146000D02*
X102267936Y-66146000D01*
X165098000Y-106969779D02*
X165098000Y-106644221D01*
X166118000Y-106969779D02*
X166118000Y-106644221D01*
X155704000Y-107452279D02*
X155704000Y-107126721D01*
X154684000Y-107452279D02*
X154684000Y-107126721D01*
X155319000Y-129885221D02*
X155319000Y-130210779D01*
X156339000Y-129885221D02*
X156339000Y-130210779D01*
X151894000Y-115254721D02*
X151894000Y-115580279D01*
X150874000Y-115254721D02*
X150874000Y-115580279D01*
X135384000Y-107350779D02*
X135384000Y-107025221D01*
X134364000Y-107350779D02*
X134364000Y-107025221D01*
X131824000Y-107325279D02*
X131824000Y-106999721D01*
X132844000Y-107325279D02*
X132844000Y-106999721D01*
X130304000Y-107350779D02*
X130304000Y-107025221D01*
X129284000Y-107350779D02*
X129284000Y-107025221D01*
X126744000Y-107325279D02*
X126744000Y-106999721D01*
X127764000Y-107325279D02*
X127764000Y-106999721D01*
X125224000Y-107325279D02*
X125224000Y-106999721D01*
X124204000Y-107325279D02*
X124204000Y-106999721D01*
X156081000Y-101792721D02*
X156081000Y-102118279D01*
X157101000Y-101792721D02*
X157101000Y-102118279D01*
X152021000Y-107152221D02*
X152021000Y-107477779D01*
X151001000Y-107152221D02*
X151001000Y-107477779D01*
X153541000Y-129169279D02*
X153541000Y-128843721D01*
X154561000Y-129169279D02*
X154561000Y-128843721D01*
X146623721Y-120648000D02*
X146949279Y-120648000D01*
X146623721Y-121668000D02*
X146949279Y-121668000D01*
X123954000Y-102681721D02*
X123954000Y-103007279D01*
X122934000Y-102681721D02*
X122934000Y-103007279D01*
X125474000Y-102681721D02*
X125474000Y-103007279D01*
X126494000Y-102681721D02*
X126494000Y-103007279D01*
X125474000Y-129982279D02*
X125474000Y-129656721D01*
X126494000Y-129982279D02*
X126494000Y-129656721D01*
X123954000Y-129982279D02*
X123954000Y-129656721D01*
X122934000Y-129982279D02*
X122934000Y-129656721D01*
X120394000Y-130058279D02*
X120394000Y-129732721D01*
X121414000Y-130058279D02*
X121414000Y-129732721D01*
X118874000Y-130058279D02*
X118874000Y-129732721D01*
X117854000Y-130058279D02*
X117854000Y-129732721D01*
X129161000Y-102681721D02*
X129161000Y-103007279D01*
X128141000Y-102681721D02*
X128141000Y-103007279D01*
X130554000Y-102681721D02*
X130554000Y-103007279D01*
X131574000Y-102681721D02*
X131574000Y-103007279D01*
X134241000Y-102681721D02*
X134241000Y-103007279D01*
X133221000Y-102681721D02*
X133221000Y-103007279D01*
X177798000Y-110733721D02*
X177798000Y-111059279D01*
X178818000Y-110733721D02*
X178818000Y-111059279D01*
X215457721Y-87632000D02*
X215783279Y-87632000D01*
X215457721Y-86612000D02*
X215783279Y-86612000D01*
D11*
X216796857Y-85034380D02*
X217130190Y-84558190D01*
X217368285Y-85034380D02*
X217368285Y-84034380D01*
X216987333Y-84034380D01*
X216892095Y-84082000D01*
X216844476Y-84129619D01*
X216796857Y-84224857D01*
X216796857Y-84367714D01*
X216844476Y-84462952D01*
X216892095Y-84510571D01*
X216987333Y-84558190D01*
X217368285Y-84558190D01*
X215892095Y-84034380D02*
X216368285Y-84034380D01*
X216415904Y-84510571D01*
X216368285Y-84462952D01*
X216273047Y-84415333D01*
X216034952Y-84415333D01*
X215939714Y-84462952D01*
X215892095Y-84510571D01*
X215844476Y-84605809D01*
X215844476Y-84843904D01*
X215892095Y-84939142D01*
X215939714Y-84986761D01*
X216034952Y-85034380D01*
X216273047Y-85034380D01*
X216368285Y-84986761D01*
X216415904Y-84939142D01*
X214987333Y-84034380D02*
X215177809Y-84034380D01*
X215273047Y-84082000D01*
X215320666Y-84129619D01*
X215415904Y-84272476D01*
X215463523Y-84462952D01*
X215463523Y-84843904D01*
X215415904Y-84939142D01*
X215368285Y-84986761D01*
X215273047Y-85034380D01*
X215082571Y-85034380D01*
X214987333Y-84986761D01*
X214939714Y-84939142D01*
X214892095Y-84843904D01*
X214892095Y-84605809D01*
X214939714Y-84510571D01*
X214987333Y-84462952D01*
X215082571Y-84415333D01*
X215273047Y-84415333D01*
X215368285Y-84462952D01*
X215415904Y-84510571D01*
X215463523Y-84605809D01*
X216796857Y-82240380D02*
X217130190Y-81764190D01*
X217368285Y-82240380D02*
X217368285Y-81240380D01*
X216987333Y-81240380D01*
X216892095Y-81288000D01*
X216844476Y-81335619D01*
X216796857Y-81430857D01*
X216796857Y-81573714D01*
X216844476Y-81668952D01*
X216892095Y-81716571D01*
X216987333Y-81764190D01*
X217368285Y-81764190D01*
X215892095Y-81240380D02*
X216368285Y-81240380D01*
X216415904Y-81716571D01*
X216368285Y-81668952D01*
X216273047Y-81621333D01*
X216034952Y-81621333D01*
X215939714Y-81668952D01*
X215892095Y-81716571D01*
X215844476Y-81811809D01*
X215844476Y-82049904D01*
X215892095Y-82145142D01*
X215939714Y-82192761D01*
X216034952Y-82240380D01*
X216273047Y-82240380D01*
X216368285Y-82192761D01*
X216415904Y-82145142D01*
X214987333Y-81573714D02*
X214987333Y-82240380D01*
X215225428Y-81192761D02*
X215463523Y-81907047D01*
X214844476Y-81907047D01*
X216796857Y-79954380D02*
X217130190Y-79478190D01*
X217368285Y-79954380D02*
X217368285Y-78954380D01*
X216987333Y-78954380D01*
X216892095Y-79002000D01*
X216844476Y-79049619D01*
X216796857Y-79144857D01*
X216796857Y-79287714D01*
X216844476Y-79382952D01*
X216892095Y-79430571D01*
X216987333Y-79478190D01*
X217368285Y-79478190D01*
X215892095Y-78954380D02*
X216368285Y-78954380D01*
X216415904Y-79430571D01*
X216368285Y-79382952D01*
X216273047Y-79335333D01*
X216034952Y-79335333D01*
X215939714Y-79382952D01*
X215892095Y-79430571D01*
X215844476Y-79525809D01*
X215844476Y-79763904D01*
X215892095Y-79859142D01*
X215939714Y-79906761D01*
X216034952Y-79954380D01*
X216273047Y-79954380D01*
X216368285Y-79906761D01*
X216415904Y-79859142D01*
X214892095Y-79954380D02*
X215463523Y-79954380D01*
X215177809Y-79954380D02*
X215177809Y-78954380D01*
X215273047Y-79097238D01*
X215368285Y-79192476D01*
X215463523Y-79240095D01*
X216796857Y-77160380D02*
X217130190Y-76684190D01*
X217368285Y-77160380D02*
X217368285Y-76160380D01*
X216987333Y-76160380D01*
X216892095Y-76208000D01*
X216844476Y-76255619D01*
X216796857Y-76350857D01*
X216796857Y-76493714D01*
X216844476Y-76588952D01*
X216892095Y-76636571D01*
X216987333Y-76684190D01*
X217368285Y-76684190D01*
X215892095Y-76160380D02*
X216368285Y-76160380D01*
X216415904Y-76636571D01*
X216368285Y-76588952D01*
X216273047Y-76541333D01*
X216034952Y-76541333D01*
X215939714Y-76588952D01*
X215892095Y-76636571D01*
X215844476Y-76731809D01*
X215844476Y-76969904D01*
X215892095Y-77065142D01*
X215939714Y-77112761D01*
X216034952Y-77160380D01*
X216273047Y-77160380D01*
X216368285Y-77112761D01*
X216415904Y-77065142D01*
X215225428Y-76160380D02*
X215130190Y-76160380D01*
X215034952Y-76208000D01*
X214987333Y-76255619D01*
X214939714Y-76350857D01*
X214892095Y-76541333D01*
X214892095Y-76779428D01*
X214939714Y-76969904D01*
X214987333Y-77065142D01*
X215034952Y-77112761D01*
X215130190Y-77160380D01*
X215225428Y-77160380D01*
X215320666Y-77112761D01*
X215368285Y-77065142D01*
X215415904Y-76969904D01*
X215463523Y-76779428D01*
X215463523Y-76541333D01*
X215415904Y-76350857D01*
X215368285Y-76255619D01*
X215320666Y-76208000D01*
X215225428Y-76160380D01*
X216796857Y-74620380D02*
X217130190Y-74144190D01*
X217368285Y-74620380D02*
X217368285Y-73620380D01*
X216987333Y-73620380D01*
X216892095Y-73668000D01*
X216844476Y-73715619D01*
X216796857Y-73810857D01*
X216796857Y-73953714D01*
X216844476Y-74048952D01*
X216892095Y-74096571D01*
X216987333Y-74144190D01*
X217368285Y-74144190D01*
X215939714Y-73953714D02*
X215939714Y-74620380D01*
X216177809Y-73572761D02*
X216415904Y-74287047D01*
X215796857Y-74287047D01*
X215368285Y-74620380D02*
X215177809Y-74620380D01*
X215082571Y-74572761D01*
X215034952Y-74525142D01*
X214939714Y-74382285D01*
X214892095Y-74191809D01*
X214892095Y-73810857D01*
X214939714Y-73715619D01*
X214987333Y-73668000D01*
X215082571Y-73620380D01*
X215273047Y-73620380D01*
X215368285Y-73668000D01*
X215415904Y-73715619D01*
X215463523Y-73810857D01*
X215463523Y-74048952D01*
X215415904Y-74144190D01*
X215368285Y-74191809D01*
X215273047Y-74239428D01*
X215082571Y-74239428D01*
X214987333Y-74191809D01*
X214939714Y-74144190D01*
X214892095Y-74048952D01*
X77350857Y-107386380D02*
X77684190Y-106910190D01*
X77922285Y-107386380D02*
X77922285Y-106386380D01*
X77541333Y-106386380D01*
X77446095Y-106434000D01*
X77398476Y-106481619D01*
X77350857Y-106576857D01*
X77350857Y-106719714D01*
X77398476Y-106814952D01*
X77446095Y-106862571D01*
X77541333Y-106910190D01*
X77922285Y-106910190D01*
X76493714Y-106719714D02*
X76493714Y-107386380D01*
X76731809Y-106338761D02*
X76969904Y-107053047D01*
X76350857Y-107053047D01*
X75827047Y-106814952D02*
X75922285Y-106767333D01*
X75969904Y-106719714D01*
X76017523Y-106624476D01*
X76017523Y-106576857D01*
X75969904Y-106481619D01*
X75922285Y-106434000D01*
X75827047Y-106386380D01*
X75636571Y-106386380D01*
X75541333Y-106434000D01*
X75493714Y-106481619D01*
X75446095Y-106576857D01*
X75446095Y-106624476D01*
X75493714Y-106719714D01*
X75541333Y-106767333D01*
X75636571Y-106814952D01*
X75827047Y-106814952D01*
X75922285Y-106862571D01*
X75969904Y-106910190D01*
X76017523Y-107005428D01*
X76017523Y-107195904D01*
X75969904Y-107291142D01*
X75922285Y-107338761D01*
X75827047Y-107386380D01*
X75636571Y-107386380D01*
X75541333Y-107338761D01*
X75493714Y-107291142D01*
X75446095Y-107195904D01*
X75446095Y-107005428D01*
X75493714Y-106910190D01*
X75541333Y-106862571D01*
X75636571Y-106814952D01*
X88082380Y-130167142D02*
X87606190Y-129833809D01*
X88082380Y-129595714D02*
X87082380Y-129595714D01*
X87082380Y-129976666D01*
X87130000Y-130071904D01*
X87177619Y-130119523D01*
X87272857Y-130167142D01*
X87415714Y-130167142D01*
X87510952Y-130119523D01*
X87558571Y-130071904D01*
X87606190Y-129976666D01*
X87606190Y-129595714D01*
X87415714Y-131024285D02*
X88082380Y-131024285D01*
X87034761Y-130786190D02*
X87749047Y-130548095D01*
X87749047Y-131167142D01*
X87082380Y-131452857D02*
X87082380Y-132119523D01*
X88082380Y-131690952D01*
X77350857Y-108910380D02*
X77684190Y-108434190D01*
X77922285Y-108910380D02*
X77922285Y-107910380D01*
X77541333Y-107910380D01*
X77446095Y-107958000D01*
X77398476Y-108005619D01*
X77350857Y-108100857D01*
X77350857Y-108243714D01*
X77398476Y-108338952D01*
X77446095Y-108386571D01*
X77541333Y-108434190D01*
X77922285Y-108434190D01*
X76493714Y-108243714D02*
X76493714Y-108910380D01*
X76731809Y-107862761D02*
X76969904Y-108577047D01*
X76350857Y-108577047D01*
X75541333Y-107910380D02*
X75731809Y-107910380D01*
X75827047Y-107958000D01*
X75874666Y-108005619D01*
X75969904Y-108148476D01*
X76017523Y-108338952D01*
X76017523Y-108719904D01*
X75969904Y-108815142D01*
X75922285Y-108862761D01*
X75827047Y-108910380D01*
X75636571Y-108910380D01*
X75541333Y-108862761D01*
X75493714Y-108815142D01*
X75446095Y-108719904D01*
X75446095Y-108481809D01*
X75493714Y-108386571D01*
X75541333Y-108338952D01*
X75636571Y-108291333D01*
X75827047Y-108291333D01*
X75922285Y-108338952D01*
X75969904Y-108386571D01*
X76017523Y-108481809D01*
X84526380Y-130167142D02*
X84050190Y-129833809D01*
X84526380Y-129595714D02*
X83526380Y-129595714D01*
X83526380Y-129976666D01*
X83574000Y-130071904D01*
X83621619Y-130119523D01*
X83716857Y-130167142D01*
X83859714Y-130167142D01*
X83954952Y-130119523D01*
X84002571Y-130071904D01*
X84050190Y-129976666D01*
X84050190Y-129595714D01*
X83859714Y-131024285D02*
X84526380Y-131024285D01*
X83478761Y-130786190D02*
X84193047Y-130548095D01*
X84193047Y-131167142D01*
X83526380Y-132024285D02*
X83526380Y-131548095D01*
X84002571Y-131500476D01*
X83954952Y-131548095D01*
X83907333Y-131643333D01*
X83907333Y-131881428D01*
X83954952Y-131976666D01*
X84002571Y-132024285D01*
X84097809Y-132071904D01*
X84335904Y-132071904D01*
X84431142Y-132024285D01*
X84478761Y-131976666D01*
X84526380Y-131881428D01*
X84526380Y-131643333D01*
X84478761Y-131548095D01*
X84431142Y-131500476D01*
X77350857Y-102814380D02*
X77684190Y-102338190D01*
X77922285Y-102814380D02*
X77922285Y-101814380D01*
X77541333Y-101814380D01*
X77446095Y-101862000D01*
X77398476Y-101909619D01*
X77350857Y-102004857D01*
X77350857Y-102147714D01*
X77398476Y-102242952D01*
X77446095Y-102290571D01*
X77541333Y-102338190D01*
X77922285Y-102338190D01*
X76493714Y-102147714D02*
X76493714Y-102814380D01*
X76731809Y-101766761D02*
X76969904Y-102481047D01*
X76350857Y-102481047D01*
X75541333Y-102147714D02*
X75541333Y-102814380D01*
X75779428Y-101766761D02*
X76017523Y-102481047D01*
X75398476Y-102481047D01*
X86050380Y-130167142D02*
X85574190Y-129833809D01*
X86050380Y-129595714D02*
X85050380Y-129595714D01*
X85050380Y-129976666D01*
X85098000Y-130071904D01*
X85145619Y-130119523D01*
X85240857Y-130167142D01*
X85383714Y-130167142D01*
X85478952Y-130119523D01*
X85526571Y-130071904D01*
X85574190Y-129976666D01*
X85574190Y-129595714D01*
X85383714Y-131024285D02*
X86050380Y-131024285D01*
X85002761Y-130786190D02*
X85717047Y-130548095D01*
X85717047Y-131167142D01*
X85050380Y-131452857D02*
X85050380Y-132071904D01*
X85431333Y-131738571D01*
X85431333Y-131881428D01*
X85478952Y-131976666D01*
X85526571Y-132024285D01*
X85621809Y-132071904D01*
X85859904Y-132071904D01*
X85955142Y-132024285D01*
X86002761Y-131976666D01*
X86050380Y-131881428D01*
X86050380Y-131595714D01*
X86002761Y-131500476D01*
X85955142Y-131452857D01*
X77350857Y-105862380D02*
X77684190Y-105386190D01*
X77922285Y-105862380D02*
X77922285Y-104862380D01*
X77541333Y-104862380D01*
X77446095Y-104910000D01*
X77398476Y-104957619D01*
X77350857Y-105052857D01*
X77350857Y-105195714D01*
X77398476Y-105290952D01*
X77446095Y-105338571D01*
X77541333Y-105386190D01*
X77922285Y-105386190D01*
X76493714Y-105195714D02*
X76493714Y-105862380D01*
X76731809Y-104814761D02*
X76969904Y-105529047D01*
X76350857Y-105529047D01*
X75779428Y-104862380D02*
X75684190Y-104862380D01*
X75588952Y-104910000D01*
X75541333Y-104957619D01*
X75493714Y-105052857D01*
X75446095Y-105243333D01*
X75446095Y-105481428D01*
X75493714Y-105671904D01*
X75541333Y-105767142D01*
X75588952Y-105814761D01*
X75684190Y-105862380D01*
X75779428Y-105862380D01*
X75874666Y-105814761D01*
X75922285Y-105767142D01*
X75969904Y-105671904D01*
X76017523Y-105481428D01*
X76017523Y-105243333D01*
X75969904Y-105052857D01*
X75922285Y-104957619D01*
X75874666Y-104910000D01*
X75779428Y-104862380D01*
X89606380Y-130167142D02*
X89130190Y-129833809D01*
X89606380Y-129595714D02*
X88606380Y-129595714D01*
X88606380Y-129976666D01*
X88654000Y-130071904D01*
X88701619Y-130119523D01*
X88796857Y-130167142D01*
X88939714Y-130167142D01*
X89034952Y-130119523D01*
X89082571Y-130071904D01*
X89130190Y-129976666D01*
X89130190Y-129595714D01*
X88606380Y-130500476D02*
X88606380Y-131119523D01*
X88987333Y-130786190D01*
X88987333Y-130929047D01*
X89034952Y-131024285D01*
X89082571Y-131071904D01*
X89177809Y-131119523D01*
X89415904Y-131119523D01*
X89511142Y-131071904D01*
X89558761Y-131024285D01*
X89606380Y-130929047D01*
X89606380Y-130643333D01*
X89558761Y-130548095D01*
X89511142Y-130500476D01*
X89606380Y-132071904D02*
X89606380Y-131500476D01*
X89606380Y-131786190D02*
X88606380Y-131786190D01*
X88749238Y-131690952D01*
X88844476Y-131595714D01*
X88892095Y-131500476D01*
X77350857Y-104338380D02*
X77684190Y-103862190D01*
X77922285Y-104338380D02*
X77922285Y-103338380D01*
X77541333Y-103338380D01*
X77446095Y-103386000D01*
X77398476Y-103433619D01*
X77350857Y-103528857D01*
X77350857Y-103671714D01*
X77398476Y-103766952D01*
X77446095Y-103814571D01*
X77541333Y-103862190D01*
X77922285Y-103862190D01*
X76969904Y-103433619D02*
X76922285Y-103386000D01*
X76827047Y-103338380D01*
X76588952Y-103338380D01*
X76493714Y-103386000D01*
X76446095Y-103433619D01*
X76398476Y-103528857D01*
X76398476Y-103624095D01*
X76446095Y-103766952D01*
X77017523Y-104338380D01*
X76398476Y-104338380D01*
X75922285Y-104338380D02*
X75731809Y-104338380D01*
X75636571Y-104290761D01*
X75588952Y-104243142D01*
X75493714Y-104100285D01*
X75446095Y-103909809D01*
X75446095Y-103528857D01*
X75493714Y-103433619D01*
X75541333Y-103386000D01*
X75636571Y-103338380D01*
X75827047Y-103338380D01*
X75922285Y-103386000D01*
X75969904Y-103433619D01*
X76017523Y-103528857D01*
X76017523Y-103766952D01*
X75969904Y-103862190D01*
X75922285Y-103909809D01*
X75827047Y-103957428D01*
X75636571Y-103957428D01*
X75541333Y-103909809D01*
X75493714Y-103862190D01*
X75446095Y-103766952D01*
X184945357Y-110466142D02*
X184992976Y-110513761D01*
X185135833Y-110561380D01*
X185231071Y-110561380D01*
X185373928Y-110513761D01*
X185469166Y-110418523D01*
X185516785Y-110323285D01*
X185564404Y-110132809D01*
X185564404Y-109989952D01*
X185516785Y-109799476D01*
X185469166Y-109704238D01*
X185373928Y-109609000D01*
X185231071Y-109561380D01*
X185135833Y-109561380D01*
X184992976Y-109609000D01*
X184945357Y-109656619D01*
X184088214Y-109894714D02*
X184088214Y-110561380D01*
X184326309Y-109513761D02*
X184564404Y-110228047D01*
X183945357Y-110228047D01*
X183135833Y-109894714D02*
X183135833Y-110561380D01*
X183373928Y-109513761D02*
X183612023Y-110228047D01*
X182992976Y-110228047D01*
X85542285Y-48204380D02*
X85542285Y-47204380D01*
X85304190Y-47204380D01*
X85161333Y-47252000D01*
X85066095Y-47347238D01*
X85018476Y-47442476D01*
X84970857Y-47632952D01*
X84970857Y-47775809D01*
X85018476Y-47966285D01*
X85066095Y-48061523D01*
X85161333Y-48156761D01*
X85304190Y-48204380D01*
X85542285Y-48204380D01*
X84018476Y-48204380D02*
X84589904Y-48204380D01*
X84304190Y-48204380D02*
X84304190Y-47204380D01*
X84399428Y-47347238D01*
X84494666Y-47442476D01*
X84589904Y-47490095D01*
X83113714Y-47204380D02*
X83589904Y-47204380D01*
X83637523Y-47680571D01*
X83589904Y-47632952D01*
X83494666Y-47585333D01*
X83256571Y-47585333D01*
X83161333Y-47632952D01*
X83113714Y-47680571D01*
X83066095Y-47775809D01*
X83066095Y-48013904D01*
X83113714Y-48109142D01*
X83161333Y-48156761D01*
X83256571Y-48204380D01*
X83494666Y-48204380D01*
X83589904Y-48156761D01*
X83637523Y-48109142D01*
X85542285Y-45664380D02*
X85542285Y-44664380D01*
X85304190Y-44664380D01*
X85161333Y-44712000D01*
X85066095Y-44807238D01*
X85018476Y-44902476D01*
X84970857Y-45092952D01*
X84970857Y-45235809D01*
X85018476Y-45426285D01*
X85066095Y-45521523D01*
X85161333Y-45616761D01*
X85304190Y-45664380D01*
X85542285Y-45664380D01*
X84018476Y-45664380D02*
X84589904Y-45664380D01*
X84304190Y-45664380D02*
X84304190Y-44664380D01*
X84399428Y-44807238D01*
X84494666Y-44902476D01*
X84589904Y-44950095D01*
X83161333Y-44997714D02*
X83161333Y-45664380D01*
X83399428Y-44616761D02*
X83637523Y-45331047D01*
X83018476Y-45331047D01*
X85542285Y-62936380D02*
X85542285Y-61936380D01*
X85304190Y-61936380D01*
X85161333Y-61984000D01*
X85066095Y-62079238D01*
X85018476Y-62174476D01*
X84970857Y-62364952D01*
X84970857Y-62507809D01*
X85018476Y-62698285D01*
X85066095Y-62793523D01*
X85161333Y-62888761D01*
X85304190Y-62936380D01*
X85542285Y-62936380D01*
X84018476Y-62936380D02*
X84589904Y-62936380D01*
X84304190Y-62936380D02*
X84304190Y-61936380D01*
X84399428Y-62079238D01*
X84494666Y-62174476D01*
X84589904Y-62222095D01*
X83685142Y-61936380D02*
X83066095Y-61936380D01*
X83399428Y-62317333D01*
X83256571Y-62317333D01*
X83161333Y-62364952D01*
X83113714Y-62412571D01*
X83066095Y-62507809D01*
X83066095Y-62745904D01*
X83113714Y-62841142D01*
X83161333Y-62888761D01*
X83256571Y-62936380D01*
X83542285Y-62936380D01*
X83637523Y-62888761D01*
X83685142Y-62841142D01*
X85542285Y-60396380D02*
X85542285Y-59396380D01*
X85304190Y-59396380D01*
X85161333Y-59444000D01*
X85066095Y-59539238D01*
X85018476Y-59634476D01*
X84970857Y-59824952D01*
X84970857Y-59967809D01*
X85018476Y-60158285D01*
X85066095Y-60253523D01*
X85161333Y-60348761D01*
X85304190Y-60396380D01*
X85542285Y-60396380D01*
X84018476Y-60396380D02*
X84589904Y-60396380D01*
X84304190Y-60396380D02*
X84304190Y-59396380D01*
X84399428Y-59539238D01*
X84494666Y-59634476D01*
X84589904Y-59682095D01*
X83637523Y-59491619D02*
X83589904Y-59444000D01*
X83494666Y-59396380D01*
X83256571Y-59396380D01*
X83161333Y-59444000D01*
X83113714Y-59491619D01*
X83066095Y-59586857D01*
X83066095Y-59682095D01*
X83113714Y-59824952D01*
X83685142Y-60396380D01*
X83066095Y-60396380D01*
X85288285Y-77668380D02*
X85288285Y-76668380D01*
X85050190Y-76668380D01*
X84907333Y-76716000D01*
X84812095Y-76811238D01*
X84764476Y-76906476D01*
X84716857Y-77096952D01*
X84716857Y-77239809D01*
X84764476Y-77430285D01*
X84812095Y-77525523D01*
X84907333Y-77620761D01*
X85050190Y-77668380D01*
X85288285Y-77668380D01*
X83764476Y-77668380D02*
X84335904Y-77668380D01*
X84050190Y-77668380D02*
X84050190Y-76668380D01*
X84145428Y-76811238D01*
X84240666Y-76906476D01*
X84335904Y-76954095D01*
X82812095Y-77668380D02*
X83383523Y-77668380D01*
X83097809Y-77668380D02*
X83097809Y-76668380D01*
X83193047Y-76811238D01*
X83288285Y-76906476D01*
X83383523Y-76954095D01*
X85542285Y-75128380D02*
X85542285Y-74128380D01*
X85304190Y-74128380D01*
X85161333Y-74176000D01*
X85066095Y-74271238D01*
X85018476Y-74366476D01*
X84970857Y-74556952D01*
X84970857Y-74699809D01*
X85018476Y-74890285D01*
X85066095Y-74985523D01*
X85161333Y-75080761D01*
X85304190Y-75128380D01*
X85542285Y-75128380D01*
X84018476Y-75128380D02*
X84589904Y-75128380D01*
X84304190Y-75128380D02*
X84304190Y-74128380D01*
X84399428Y-74271238D01*
X84494666Y-74366476D01*
X84589904Y-74414095D01*
X83399428Y-74128380D02*
X83304190Y-74128380D01*
X83208952Y-74176000D01*
X83161333Y-74223619D01*
X83113714Y-74318857D01*
X83066095Y-74509333D01*
X83066095Y-74747428D01*
X83113714Y-74937904D01*
X83161333Y-75033142D01*
X83208952Y-75080761D01*
X83304190Y-75128380D01*
X83399428Y-75128380D01*
X83494666Y-75080761D01*
X83542285Y-75033142D01*
X83589904Y-74937904D01*
X83637523Y-74747428D01*
X83637523Y-74509333D01*
X83589904Y-74318857D01*
X83542285Y-74223619D01*
X83494666Y-74176000D01*
X83399428Y-74128380D01*
X85574095Y-55570380D02*
X85574095Y-54570380D01*
X85336000Y-54570380D01*
X85193142Y-54618000D01*
X85097904Y-54713238D01*
X85050285Y-54808476D01*
X85002666Y-54998952D01*
X85002666Y-55141809D01*
X85050285Y-55332285D01*
X85097904Y-55427523D01*
X85193142Y-55522761D01*
X85336000Y-55570380D01*
X85574095Y-55570380D01*
X84526476Y-55570380D02*
X84336000Y-55570380D01*
X84240761Y-55522761D01*
X84193142Y-55475142D01*
X84097904Y-55332285D01*
X84050285Y-55141809D01*
X84050285Y-54760857D01*
X84097904Y-54665619D01*
X84145523Y-54618000D01*
X84240761Y-54570380D01*
X84431238Y-54570380D01*
X84526476Y-54618000D01*
X84574095Y-54665619D01*
X84621714Y-54760857D01*
X84621714Y-54998952D01*
X84574095Y-55094190D01*
X84526476Y-55141809D01*
X84431238Y-55189428D01*
X84240761Y-55189428D01*
X84145523Y-55141809D01*
X84097904Y-55094190D01*
X84050285Y-54998952D01*
X85574095Y-53030380D02*
X85574095Y-52030380D01*
X85336000Y-52030380D01*
X85193142Y-52078000D01*
X85097904Y-52173238D01*
X85050285Y-52268476D01*
X85002666Y-52458952D01*
X85002666Y-52601809D01*
X85050285Y-52792285D01*
X85097904Y-52887523D01*
X85193142Y-52982761D01*
X85336000Y-53030380D01*
X85574095Y-53030380D01*
X84431238Y-52458952D02*
X84526476Y-52411333D01*
X84574095Y-52363714D01*
X84621714Y-52268476D01*
X84621714Y-52220857D01*
X84574095Y-52125619D01*
X84526476Y-52078000D01*
X84431238Y-52030380D01*
X84240761Y-52030380D01*
X84145523Y-52078000D01*
X84097904Y-52125619D01*
X84050285Y-52220857D01*
X84050285Y-52268476D01*
X84097904Y-52363714D01*
X84145523Y-52411333D01*
X84240761Y-52458952D01*
X84431238Y-52458952D01*
X84526476Y-52506571D01*
X84574095Y-52554190D01*
X84621714Y-52649428D01*
X84621714Y-52839904D01*
X84574095Y-52935142D01*
X84526476Y-52982761D01*
X84431238Y-53030380D01*
X84240761Y-53030380D01*
X84145523Y-52982761D01*
X84097904Y-52935142D01*
X84050285Y-52839904D01*
X84050285Y-52649428D01*
X84097904Y-52554190D01*
X84145523Y-52506571D01*
X84240761Y-52458952D01*
X85574095Y-70302380D02*
X85574095Y-69302380D01*
X85336000Y-69302380D01*
X85193142Y-69350000D01*
X85097904Y-69445238D01*
X85050285Y-69540476D01*
X85002666Y-69730952D01*
X85002666Y-69873809D01*
X85050285Y-70064285D01*
X85097904Y-70159523D01*
X85193142Y-70254761D01*
X85336000Y-70302380D01*
X85574095Y-70302380D01*
X84669333Y-69302380D02*
X84002666Y-69302380D01*
X84431238Y-70302380D01*
X85574095Y-67762380D02*
X85574095Y-66762380D01*
X85336000Y-66762380D01*
X85193142Y-66810000D01*
X85097904Y-66905238D01*
X85050285Y-67000476D01*
X85002666Y-67190952D01*
X85002666Y-67333809D01*
X85050285Y-67524285D01*
X85097904Y-67619523D01*
X85193142Y-67714761D01*
X85336000Y-67762380D01*
X85574095Y-67762380D01*
X84145523Y-66762380D02*
X84336000Y-66762380D01*
X84431238Y-66810000D01*
X84478857Y-66857619D01*
X84574095Y-67000476D01*
X84621714Y-67190952D01*
X84621714Y-67571904D01*
X84574095Y-67667142D01*
X84526476Y-67714761D01*
X84431238Y-67762380D01*
X84240761Y-67762380D01*
X84145523Y-67714761D01*
X84097904Y-67667142D01*
X84050285Y-67571904D01*
X84050285Y-67333809D01*
X84097904Y-67238571D01*
X84145523Y-67190952D01*
X84240761Y-67143333D01*
X84431238Y-67143333D01*
X84526476Y-67190952D01*
X84574095Y-67238571D01*
X84621714Y-67333809D01*
X85320095Y-85034380D02*
X85320095Y-84034380D01*
X85082000Y-84034380D01*
X84939142Y-84082000D01*
X84843904Y-84177238D01*
X84796285Y-84272476D01*
X84748666Y-84462952D01*
X84748666Y-84605809D01*
X84796285Y-84796285D01*
X84843904Y-84891523D01*
X84939142Y-84986761D01*
X85082000Y-85034380D01*
X85320095Y-85034380D01*
X83843904Y-84034380D02*
X84320095Y-84034380D01*
X84367714Y-84510571D01*
X84320095Y-84462952D01*
X84224857Y-84415333D01*
X83986761Y-84415333D01*
X83891523Y-84462952D01*
X83843904Y-84510571D01*
X83796285Y-84605809D01*
X83796285Y-84843904D01*
X83843904Y-84939142D01*
X83891523Y-84986761D01*
X83986761Y-85034380D01*
X84224857Y-85034380D01*
X84320095Y-84986761D01*
X84367714Y-84939142D01*
X85320095Y-82494380D02*
X85320095Y-81494380D01*
X85082000Y-81494380D01*
X84939142Y-81542000D01*
X84843904Y-81637238D01*
X84796285Y-81732476D01*
X84748666Y-81922952D01*
X84748666Y-82065809D01*
X84796285Y-82256285D01*
X84843904Y-82351523D01*
X84939142Y-82446761D01*
X85082000Y-82494380D01*
X85320095Y-82494380D01*
X83891523Y-81827714D02*
X83891523Y-82494380D01*
X84129619Y-81446761D02*
X84367714Y-82161047D01*
X83748666Y-82161047D01*
X97162857Y-55209142D02*
X97210476Y-55256761D01*
X97353333Y-55304380D01*
X97448571Y-55304380D01*
X97591428Y-55256761D01*
X97686666Y-55161523D01*
X97734285Y-55066285D01*
X97781904Y-54875809D01*
X97781904Y-54732952D01*
X97734285Y-54542476D01*
X97686666Y-54447238D01*
X97591428Y-54352000D01*
X97448571Y-54304380D01*
X97353333Y-54304380D01*
X97210476Y-54352000D01*
X97162857Y-54399619D01*
X96210476Y-55304380D02*
X96781904Y-55304380D01*
X96496190Y-55304380D02*
X96496190Y-54304380D01*
X96591428Y-54447238D01*
X96686666Y-54542476D01*
X96781904Y-54590095D01*
X95829523Y-54399619D02*
X95781904Y-54352000D01*
X95686666Y-54304380D01*
X95448571Y-54304380D01*
X95353333Y-54352000D01*
X95305714Y-54399619D01*
X95258095Y-54494857D01*
X95258095Y-54590095D01*
X95305714Y-54732952D01*
X95877142Y-55304380D01*
X95258095Y-55304380D01*
X96940666Y-82145142D02*
X96988285Y-82192761D01*
X97131142Y-82240380D01*
X97226380Y-82240380D01*
X97369238Y-82192761D01*
X97464476Y-82097523D01*
X97512095Y-82002285D01*
X97559714Y-81811809D01*
X97559714Y-81668952D01*
X97512095Y-81478476D01*
X97464476Y-81383238D01*
X97369238Y-81288000D01*
X97226380Y-81240380D01*
X97131142Y-81240380D01*
X96988285Y-81288000D01*
X96940666Y-81335619D01*
X96083523Y-81240380D02*
X96274000Y-81240380D01*
X96369238Y-81288000D01*
X96416857Y-81335619D01*
X96512095Y-81478476D01*
X96559714Y-81668952D01*
X96559714Y-82049904D01*
X96512095Y-82145142D01*
X96464476Y-82192761D01*
X96369238Y-82240380D01*
X96178761Y-82240380D01*
X96083523Y-82192761D01*
X96035904Y-82145142D01*
X95988285Y-82049904D01*
X95988285Y-81811809D01*
X96035904Y-81716571D01*
X96083523Y-81668952D01*
X96178761Y-81621333D01*
X96369238Y-81621333D01*
X96464476Y-81668952D01*
X96512095Y-81716571D01*
X96559714Y-81811809D01*
X96940666Y-64873142D02*
X96988285Y-64920761D01*
X97131142Y-64968380D01*
X97226380Y-64968380D01*
X97369238Y-64920761D01*
X97464476Y-64825523D01*
X97512095Y-64730285D01*
X97559714Y-64539809D01*
X97559714Y-64396952D01*
X97512095Y-64206476D01*
X97464476Y-64111238D01*
X97369238Y-64016000D01*
X97226380Y-63968380D01*
X97131142Y-63968380D01*
X96988285Y-64016000D01*
X96940666Y-64063619D01*
X96607333Y-63968380D02*
X95940666Y-63968380D01*
X96369238Y-64968380D01*
X97162857Y-52681142D02*
X97210476Y-52728761D01*
X97353333Y-52776380D01*
X97448571Y-52776380D01*
X97591428Y-52728761D01*
X97686666Y-52633523D01*
X97734285Y-52538285D01*
X97781904Y-52347809D01*
X97781904Y-52204952D01*
X97734285Y-52014476D01*
X97686666Y-51919238D01*
X97591428Y-51824000D01*
X97448571Y-51776380D01*
X97353333Y-51776380D01*
X97210476Y-51824000D01*
X97162857Y-51871619D01*
X96210476Y-52776380D02*
X96781904Y-52776380D01*
X96496190Y-52776380D02*
X96496190Y-51776380D01*
X96591428Y-51919238D01*
X96686666Y-52014476D01*
X96781904Y-52062095D01*
X95258095Y-52776380D02*
X95829523Y-52776380D01*
X95543809Y-52776380D02*
X95543809Y-51776380D01*
X95639047Y-51919238D01*
X95734285Y-52014476D01*
X95829523Y-52062095D01*
X97162857Y-50141142D02*
X97210476Y-50188761D01*
X97353333Y-50236380D01*
X97448571Y-50236380D01*
X97591428Y-50188761D01*
X97686666Y-50093523D01*
X97734285Y-49998285D01*
X97781904Y-49807809D01*
X97781904Y-49664952D01*
X97734285Y-49474476D01*
X97686666Y-49379238D01*
X97591428Y-49284000D01*
X97448571Y-49236380D01*
X97353333Y-49236380D01*
X97210476Y-49284000D01*
X97162857Y-49331619D01*
X96210476Y-50236380D02*
X96781904Y-50236380D01*
X96496190Y-50236380D02*
X96496190Y-49236380D01*
X96591428Y-49379238D01*
X96686666Y-49474476D01*
X96781904Y-49522095D01*
X95591428Y-49236380D02*
X95496190Y-49236380D01*
X95400952Y-49284000D01*
X95353333Y-49331619D01*
X95305714Y-49426857D01*
X95258095Y-49617333D01*
X95258095Y-49855428D01*
X95305714Y-50045904D01*
X95353333Y-50141142D01*
X95400952Y-50188761D01*
X95496190Y-50236380D01*
X95591428Y-50236380D01*
X95686666Y-50188761D01*
X95734285Y-50141142D01*
X95781904Y-50045904D01*
X95829523Y-49855428D01*
X95829523Y-49617333D01*
X95781904Y-49426857D01*
X95734285Y-49331619D01*
X95686666Y-49284000D01*
X95591428Y-49236380D01*
X96940666Y-79605142D02*
X96988285Y-79652761D01*
X97131142Y-79700380D01*
X97226380Y-79700380D01*
X97369238Y-79652761D01*
X97464476Y-79557523D01*
X97512095Y-79462285D01*
X97559714Y-79271809D01*
X97559714Y-79128952D01*
X97512095Y-78938476D01*
X97464476Y-78843238D01*
X97369238Y-78748000D01*
X97226380Y-78700380D01*
X97131142Y-78700380D01*
X96988285Y-78748000D01*
X96940666Y-78795619D01*
X96035904Y-78700380D02*
X96512095Y-78700380D01*
X96559714Y-79176571D01*
X96512095Y-79128952D01*
X96416857Y-79081333D01*
X96178761Y-79081333D01*
X96083523Y-79128952D01*
X96035904Y-79176571D01*
X95988285Y-79271809D01*
X95988285Y-79509904D01*
X96035904Y-79605142D01*
X96083523Y-79652761D01*
X96178761Y-79700380D01*
X96416857Y-79700380D01*
X96512095Y-79652761D01*
X96559714Y-79605142D01*
X96940666Y-84685142D02*
X96988285Y-84732761D01*
X97131142Y-84780380D01*
X97226380Y-84780380D01*
X97369238Y-84732761D01*
X97464476Y-84637523D01*
X97512095Y-84542285D01*
X97559714Y-84351809D01*
X97559714Y-84208952D01*
X97512095Y-84018476D01*
X97464476Y-83923238D01*
X97369238Y-83828000D01*
X97226380Y-83780380D01*
X97131142Y-83780380D01*
X96988285Y-83828000D01*
X96940666Y-83875619D01*
X96083523Y-84113714D02*
X96083523Y-84780380D01*
X96321619Y-83732761D02*
X96559714Y-84447047D01*
X95940666Y-84447047D01*
X96940666Y-69953142D02*
X96988285Y-70000761D01*
X97131142Y-70048380D01*
X97226380Y-70048380D01*
X97369238Y-70000761D01*
X97464476Y-69905523D01*
X97512095Y-69810285D01*
X97559714Y-69619809D01*
X97559714Y-69476952D01*
X97512095Y-69286476D01*
X97464476Y-69191238D01*
X97369238Y-69096000D01*
X97226380Y-69048380D01*
X97131142Y-69048380D01*
X96988285Y-69096000D01*
X96940666Y-69143619D01*
X96464476Y-70048380D02*
X96274000Y-70048380D01*
X96178761Y-70000761D01*
X96131142Y-69953142D01*
X96035904Y-69810285D01*
X95988285Y-69619809D01*
X95988285Y-69238857D01*
X96035904Y-69143619D01*
X96083523Y-69096000D01*
X96178761Y-69048380D01*
X96369238Y-69048380D01*
X96464476Y-69096000D01*
X96512095Y-69143619D01*
X96559714Y-69238857D01*
X96559714Y-69476952D01*
X96512095Y-69572190D01*
X96464476Y-69619809D01*
X96369238Y-69667428D01*
X96178761Y-69667428D01*
X96083523Y-69619809D01*
X96035904Y-69572190D01*
X95988285Y-69476952D01*
X96940666Y-67413142D02*
X96988285Y-67460761D01*
X97131142Y-67508380D01*
X97226380Y-67508380D01*
X97369238Y-67460761D01*
X97464476Y-67365523D01*
X97512095Y-67270285D01*
X97559714Y-67079809D01*
X97559714Y-66936952D01*
X97512095Y-66746476D01*
X97464476Y-66651238D01*
X97369238Y-66556000D01*
X97226380Y-66508380D01*
X97131142Y-66508380D01*
X96988285Y-66556000D01*
X96940666Y-66603619D01*
X96369238Y-66936952D02*
X96464476Y-66889333D01*
X96512095Y-66841714D01*
X96559714Y-66746476D01*
X96559714Y-66698857D01*
X96512095Y-66603619D01*
X96464476Y-66556000D01*
X96369238Y-66508380D01*
X96178761Y-66508380D01*
X96083523Y-66556000D01*
X96035904Y-66603619D01*
X95988285Y-66698857D01*
X95988285Y-66746476D01*
X96035904Y-66841714D01*
X96083523Y-66889333D01*
X96178761Y-66936952D01*
X96369238Y-66936952D01*
X96464476Y-66984571D01*
X96512095Y-67032190D01*
X96559714Y-67127428D01*
X96559714Y-67317904D01*
X96512095Y-67413142D01*
X96464476Y-67460761D01*
X96369238Y-67508380D01*
X96178761Y-67508380D01*
X96083523Y-67460761D01*
X96035904Y-67413142D01*
X95988285Y-67317904D01*
X95988285Y-67127428D01*
X96035904Y-67032190D01*
X96083523Y-66984571D01*
X96178761Y-66936952D01*
X166966571Y-106473666D02*
X166966571Y-106140333D01*
X167490380Y-106140333D02*
X166490380Y-106140333D01*
X166490380Y-106616523D01*
X166490380Y-106902238D02*
X166490380Y-107521285D01*
X166871333Y-107187952D01*
X166871333Y-107330809D01*
X166918952Y-107426047D01*
X166966571Y-107473666D01*
X167061809Y-107521285D01*
X167299904Y-107521285D01*
X167395142Y-107473666D01*
X167442761Y-107426047D01*
X167490380Y-107330809D01*
X167490380Y-107045095D01*
X167442761Y-106949857D01*
X167395142Y-106902238D01*
X156552571Y-106956166D02*
X156552571Y-106622833D01*
X157076380Y-106622833D02*
X156076380Y-106622833D01*
X156076380Y-107099023D01*
X156409714Y-107908547D02*
X157076380Y-107908547D01*
X156028761Y-107670452D02*
X156743047Y-107432357D01*
X156743047Y-108051404D01*
X154327571Y-129714666D02*
X154327571Y-129381333D01*
X154851380Y-129381333D02*
X153851380Y-129381333D01*
X153851380Y-129857523D01*
X153851380Y-130714666D02*
X153851380Y-130238476D01*
X154327571Y-130190857D01*
X154279952Y-130238476D01*
X154232333Y-130333714D01*
X154232333Y-130571809D01*
X154279952Y-130667047D01*
X154327571Y-130714666D01*
X154422809Y-130762285D01*
X154660904Y-130762285D01*
X154756142Y-130714666D01*
X154803761Y-130667047D01*
X154851380Y-130571809D01*
X154851380Y-130333714D01*
X154803761Y-130238476D01*
X154756142Y-130190857D01*
X149882571Y-115084166D02*
X149882571Y-114750833D01*
X150406380Y-114750833D02*
X149406380Y-114750833D01*
X149406380Y-115227023D01*
X149406380Y-116036547D02*
X149406380Y-115846071D01*
X149454000Y-115750833D01*
X149501619Y-115703214D01*
X149644476Y-115607976D01*
X149834952Y-115560357D01*
X150215904Y-115560357D01*
X150311142Y-115607976D01*
X150358761Y-115655595D01*
X150406380Y-115750833D01*
X150406380Y-115941309D01*
X150358761Y-116036547D01*
X150311142Y-116084166D01*
X150215904Y-116131785D01*
X149977809Y-116131785D01*
X149882571Y-116084166D01*
X149834952Y-116036547D01*
X149787333Y-115941309D01*
X149787333Y-115750833D01*
X149834952Y-115655595D01*
X149882571Y-115607976D01*
X149977809Y-115560357D01*
X136232571Y-106854666D02*
X136232571Y-106521333D01*
X136756380Y-106521333D02*
X135756380Y-106521333D01*
X135756380Y-106997523D01*
X135756380Y-107283238D02*
X135756380Y-107949904D01*
X136756380Y-107521333D01*
X133692571Y-106829166D02*
X133692571Y-106495833D01*
X134216380Y-106495833D02*
X133216380Y-106495833D01*
X133216380Y-106972023D01*
X133644952Y-107495833D02*
X133597333Y-107400595D01*
X133549714Y-107352976D01*
X133454476Y-107305357D01*
X133406857Y-107305357D01*
X133311619Y-107352976D01*
X133264000Y-107400595D01*
X133216380Y-107495833D01*
X133216380Y-107686309D01*
X133264000Y-107781547D01*
X133311619Y-107829166D01*
X133406857Y-107876785D01*
X133454476Y-107876785D01*
X133549714Y-107829166D01*
X133597333Y-107781547D01*
X133644952Y-107686309D01*
X133644952Y-107495833D01*
X133692571Y-107400595D01*
X133740190Y-107352976D01*
X133835428Y-107305357D01*
X134025904Y-107305357D01*
X134121142Y-107352976D01*
X134168761Y-107400595D01*
X134216380Y-107495833D01*
X134216380Y-107686309D01*
X134168761Y-107781547D01*
X134121142Y-107829166D01*
X134025904Y-107876785D01*
X133835428Y-107876785D01*
X133740190Y-107829166D01*
X133692571Y-107781547D01*
X133644952Y-107686309D01*
X131152571Y-106854666D02*
X131152571Y-106521333D01*
X131676380Y-106521333D02*
X130676380Y-106521333D01*
X130676380Y-106997523D01*
X131676380Y-107426095D02*
X131676380Y-107616571D01*
X131628761Y-107711809D01*
X131581142Y-107759428D01*
X131438285Y-107854666D01*
X131247809Y-107902285D01*
X130866857Y-107902285D01*
X130771619Y-107854666D01*
X130724000Y-107807047D01*
X130676380Y-107711809D01*
X130676380Y-107521333D01*
X130724000Y-107426095D01*
X130771619Y-107378476D01*
X130866857Y-107330857D01*
X131104952Y-107330857D01*
X131200190Y-107378476D01*
X131247809Y-107426095D01*
X131295428Y-107521333D01*
X131295428Y-107711809D01*
X131247809Y-107807047D01*
X131200190Y-107854666D01*
X131104952Y-107902285D01*
X128612571Y-106352976D02*
X128612571Y-106019642D01*
X129136380Y-106019642D02*
X128136380Y-106019642D01*
X128136380Y-106495833D01*
X129136380Y-107400595D02*
X129136380Y-106829166D01*
X129136380Y-107114880D02*
X128136380Y-107114880D01*
X128279238Y-107019642D01*
X128374476Y-106924404D01*
X128422095Y-106829166D01*
X128136380Y-108019642D02*
X128136380Y-108114880D01*
X128184000Y-108210119D01*
X128231619Y-108257738D01*
X128326857Y-108305357D01*
X128517333Y-108352976D01*
X128755428Y-108352976D01*
X128945904Y-108305357D01*
X129041142Y-108257738D01*
X129088761Y-108210119D01*
X129136380Y-108114880D01*
X129136380Y-108019642D01*
X129088761Y-107924404D01*
X129041142Y-107876785D01*
X128945904Y-107829166D01*
X128755428Y-107781547D01*
X128517333Y-107781547D01*
X128326857Y-107829166D01*
X128231619Y-107876785D01*
X128184000Y-107924404D01*
X128136380Y-108019642D01*
X126072571Y-106352976D02*
X126072571Y-106019642D01*
X126596380Y-106019642D02*
X125596380Y-106019642D01*
X125596380Y-106495833D01*
X126596380Y-107400595D02*
X126596380Y-106829166D01*
X126596380Y-107114880D02*
X125596380Y-107114880D01*
X125739238Y-107019642D01*
X125834476Y-106924404D01*
X125882095Y-106829166D01*
X126596380Y-108352976D02*
X126596380Y-107781547D01*
X126596380Y-108067261D02*
X125596380Y-108067261D01*
X125739238Y-107972023D01*
X125834476Y-107876785D01*
X125882095Y-107781547D01*
X155089571Y-101145976D02*
X155089571Y-100812642D01*
X155613380Y-100812642D02*
X154613380Y-100812642D01*
X154613380Y-101288833D01*
X154708619Y-101622166D02*
X154661000Y-101669785D01*
X154613380Y-101765023D01*
X154613380Y-102003119D01*
X154661000Y-102098357D01*
X154708619Y-102145976D01*
X154803857Y-102193595D01*
X154899095Y-102193595D01*
X155041952Y-102145976D01*
X155613380Y-101574547D01*
X155613380Y-102193595D01*
X154708619Y-102574547D02*
X154661000Y-102622166D01*
X154613380Y-102717404D01*
X154613380Y-102955500D01*
X154661000Y-103050738D01*
X154708619Y-103098357D01*
X154803857Y-103145976D01*
X154899095Y-103145976D01*
X155041952Y-103098357D01*
X155613380Y-102526928D01*
X155613380Y-103145976D01*
X150009571Y-106505476D02*
X150009571Y-106172142D01*
X150533380Y-106172142D02*
X149533380Y-106172142D01*
X149533380Y-106648333D01*
X149628619Y-106981666D02*
X149581000Y-107029285D01*
X149533380Y-107124523D01*
X149533380Y-107362619D01*
X149581000Y-107457857D01*
X149628619Y-107505476D01*
X149723857Y-107553095D01*
X149819095Y-107553095D01*
X149961952Y-107505476D01*
X150533380Y-106934047D01*
X150533380Y-107553095D01*
X149533380Y-107886428D02*
X149533380Y-108505476D01*
X149914333Y-108172142D01*
X149914333Y-108315000D01*
X149961952Y-108410238D01*
X150009571Y-108457857D01*
X150104809Y-108505476D01*
X150342904Y-108505476D01*
X150438142Y-108457857D01*
X150485761Y-108410238D01*
X150533380Y-108315000D01*
X150533380Y-108029285D01*
X150485761Y-107934047D01*
X150438142Y-107886428D01*
X155409571Y-128196976D02*
X155409571Y-127863642D01*
X155933380Y-127863642D02*
X154933380Y-127863642D01*
X154933380Y-128339833D01*
X155028619Y-128673166D02*
X154981000Y-128720785D01*
X154933380Y-128816023D01*
X154933380Y-129054119D01*
X154981000Y-129149357D01*
X155028619Y-129196976D01*
X155123857Y-129244595D01*
X155219095Y-129244595D01*
X155361952Y-129196976D01*
X155933380Y-128625547D01*
X155933380Y-129244595D01*
X155266714Y-130101738D02*
X155933380Y-130101738D01*
X154885761Y-129863642D02*
X155600047Y-129625547D01*
X155600047Y-130244595D01*
X147596023Y-122516571D02*
X147929357Y-122516571D01*
X147929357Y-123040380D02*
X147929357Y-122040380D01*
X147453166Y-122040380D01*
X147119833Y-122135619D02*
X147072214Y-122088000D01*
X146976976Y-122040380D01*
X146738880Y-122040380D01*
X146643642Y-122088000D01*
X146596023Y-122135619D01*
X146548404Y-122230857D01*
X146548404Y-122326095D01*
X146596023Y-122468952D01*
X147167452Y-123040380D01*
X146548404Y-123040380D01*
X145643642Y-122040380D02*
X146119833Y-122040380D01*
X146167452Y-122516571D01*
X146119833Y-122468952D01*
X146024595Y-122421333D01*
X145786500Y-122421333D01*
X145691261Y-122468952D01*
X145643642Y-122516571D01*
X145596023Y-122611809D01*
X145596023Y-122849904D01*
X145643642Y-122945142D01*
X145691261Y-122992761D01*
X145786500Y-123040380D01*
X146024595Y-123040380D01*
X146119833Y-122992761D01*
X146167452Y-122945142D01*
X121942571Y-102034976D02*
X121942571Y-101701642D01*
X122466380Y-101701642D02*
X121466380Y-101701642D01*
X121466380Y-102177833D01*
X121561619Y-102511166D02*
X121514000Y-102558785D01*
X121466380Y-102654023D01*
X121466380Y-102892119D01*
X121514000Y-102987357D01*
X121561619Y-103034976D01*
X121656857Y-103082595D01*
X121752095Y-103082595D01*
X121894952Y-103034976D01*
X122466380Y-102463547D01*
X122466380Y-103082595D01*
X121466380Y-103415928D02*
X121466380Y-104082595D01*
X122466380Y-103654023D01*
X124482571Y-102034976D02*
X124482571Y-101701642D01*
X125006380Y-101701642D02*
X124006380Y-101701642D01*
X124006380Y-102177833D01*
X124101619Y-102511166D02*
X124054000Y-102558785D01*
X124006380Y-102654023D01*
X124006380Y-102892119D01*
X124054000Y-102987357D01*
X124101619Y-103034976D01*
X124196857Y-103082595D01*
X124292095Y-103082595D01*
X124434952Y-103034976D01*
X125006380Y-102463547D01*
X125006380Y-103082595D01*
X124434952Y-103654023D02*
X124387333Y-103558785D01*
X124339714Y-103511166D01*
X124244476Y-103463547D01*
X124196857Y-103463547D01*
X124101619Y-103511166D01*
X124054000Y-103558785D01*
X124006380Y-103654023D01*
X124006380Y-103844500D01*
X124054000Y-103939738D01*
X124101619Y-103987357D01*
X124196857Y-104034976D01*
X124244476Y-104034976D01*
X124339714Y-103987357D01*
X124387333Y-103939738D01*
X124434952Y-103844500D01*
X124434952Y-103654023D01*
X124482571Y-103558785D01*
X124530190Y-103511166D01*
X124625428Y-103463547D01*
X124815904Y-103463547D01*
X124911142Y-103511166D01*
X124958761Y-103558785D01*
X125006380Y-103654023D01*
X125006380Y-103844500D01*
X124958761Y-103939738D01*
X124911142Y-103987357D01*
X124815904Y-104034976D01*
X124625428Y-104034976D01*
X124530190Y-103987357D01*
X124482571Y-103939738D01*
X124434952Y-103844500D01*
X127342571Y-129009976D02*
X127342571Y-128676642D01*
X127866380Y-128676642D02*
X126866380Y-128676642D01*
X126866380Y-129152833D01*
X126961619Y-129486166D02*
X126914000Y-129533785D01*
X126866380Y-129629023D01*
X126866380Y-129867119D01*
X126914000Y-129962357D01*
X126961619Y-130009976D01*
X127056857Y-130057595D01*
X127152095Y-130057595D01*
X127294952Y-130009976D01*
X127866380Y-129438547D01*
X127866380Y-130057595D01*
X127866380Y-130533785D02*
X127866380Y-130724261D01*
X127818761Y-130819500D01*
X127771142Y-130867119D01*
X127628285Y-130962357D01*
X127437809Y-131009976D01*
X127056857Y-131009976D01*
X126961619Y-130962357D01*
X126914000Y-130914738D01*
X126866380Y-130819500D01*
X126866380Y-130629023D01*
X126914000Y-130533785D01*
X126961619Y-130486166D01*
X127056857Y-130438547D01*
X127294952Y-130438547D01*
X127390190Y-130486166D01*
X127437809Y-130533785D01*
X127485428Y-130629023D01*
X127485428Y-130819500D01*
X127437809Y-130914738D01*
X127390190Y-130962357D01*
X127294952Y-131009976D01*
X124802571Y-129009976D02*
X124802571Y-128676642D01*
X125326380Y-128676642D02*
X124326380Y-128676642D01*
X124326380Y-129152833D01*
X124326380Y-129438547D02*
X124326380Y-130057595D01*
X124707333Y-129724261D01*
X124707333Y-129867119D01*
X124754952Y-129962357D01*
X124802571Y-130009976D01*
X124897809Y-130057595D01*
X125135904Y-130057595D01*
X125231142Y-130009976D01*
X125278761Y-129962357D01*
X125326380Y-129867119D01*
X125326380Y-129581404D01*
X125278761Y-129486166D01*
X125231142Y-129438547D01*
X124326380Y-130676642D02*
X124326380Y-130771880D01*
X124374000Y-130867119D01*
X124421619Y-130914738D01*
X124516857Y-130962357D01*
X124707333Y-131009976D01*
X124945428Y-131009976D01*
X125135904Y-130962357D01*
X125231142Y-130914738D01*
X125278761Y-130867119D01*
X125326380Y-130771880D01*
X125326380Y-130676642D01*
X125278761Y-130581404D01*
X125231142Y-130533785D01*
X125135904Y-130486166D01*
X124945428Y-130438547D01*
X124707333Y-130438547D01*
X124516857Y-130486166D01*
X124421619Y-130533785D01*
X124374000Y-130581404D01*
X124326380Y-130676642D01*
X122262571Y-129085976D02*
X122262571Y-128752642D01*
X122786380Y-128752642D02*
X121786380Y-128752642D01*
X121786380Y-129228833D01*
X121786380Y-129514547D02*
X121786380Y-130133595D01*
X122167333Y-129800261D01*
X122167333Y-129943119D01*
X122214952Y-130038357D01*
X122262571Y-130085976D01*
X122357809Y-130133595D01*
X122595904Y-130133595D01*
X122691142Y-130085976D01*
X122738761Y-130038357D01*
X122786380Y-129943119D01*
X122786380Y-129657404D01*
X122738761Y-129562166D01*
X122691142Y-129514547D01*
X122786380Y-131085976D02*
X122786380Y-130514547D01*
X122786380Y-130800261D02*
X121786380Y-130800261D01*
X121929238Y-130705023D01*
X122024476Y-130609785D01*
X122072095Y-130514547D01*
X119722571Y-129085976D02*
X119722571Y-128752642D01*
X120246380Y-128752642D02*
X119246380Y-128752642D01*
X119246380Y-129228833D01*
X119246380Y-129514547D02*
X119246380Y-130133595D01*
X119627333Y-129800261D01*
X119627333Y-129943119D01*
X119674952Y-130038357D01*
X119722571Y-130085976D01*
X119817809Y-130133595D01*
X120055904Y-130133595D01*
X120151142Y-130085976D01*
X120198761Y-130038357D01*
X120246380Y-129943119D01*
X120246380Y-129657404D01*
X120198761Y-129562166D01*
X120151142Y-129514547D01*
X119341619Y-130514547D02*
X119294000Y-130562166D01*
X119246380Y-130657404D01*
X119246380Y-130895500D01*
X119294000Y-130990738D01*
X119341619Y-131038357D01*
X119436857Y-131085976D01*
X119532095Y-131085976D01*
X119674952Y-131038357D01*
X120246380Y-130466928D01*
X120246380Y-131085976D01*
X127149571Y-102034976D02*
X127149571Y-101701642D01*
X127673380Y-101701642D02*
X126673380Y-101701642D01*
X126673380Y-102177833D01*
X126673380Y-102463547D02*
X126673380Y-103082595D01*
X127054333Y-102749261D01*
X127054333Y-102892119D01*
X127101952Y-102987357D01*
X127149571Y-103034976D01*
X127244809Y-103082595D01*
X127482904Y-103082595D01*
X127578142Y-103034976D01*
X127625761Y-102987357D01*
X127673380Y-102892119D01*
X127673380Y-102606404D01*
X127625761Y-102511166D01*
X127578142Y-102463547D01*
X126673380Y-103415928D02*
X126673380Y-104034976D01*
X127054333Y-103701642D01*
X127054333Y-103844500D01*
X127101952Y-103939738D01*
X127149571Y-103987357D01*
X127244809Y-104034976D01*
X127482904Y-104034976D01*
X127578142Y-103987357D01*
X127625761Y-103939738D01*
X127673380Y-103844500D01*
X127673380Y-103558785D01*
X127625761Y-103463547D01*
X127578142Y-103415928D01*
X129562571Y-102034976D02*
X129562571Y-101701642D01*
X130086380Y-101701642D02*
X129086380Y-101701642D01*
X129086380Y-102177833D01*
X129086380Y-102463547D02*
X129086380Y-103082595D01*
X129467333Y-102749261D01*
X129467333Y-102892119D01*
X129514952Y-102987357D01*
X129562571Y-103034976D01*
X129657809Y-103082595D01*
X129895904Y-103082595D01*
X129991142Y-103034976D01*
X130038761Y-102987357D01*
X130086380Y-102892119D01*
X130086380Y-102606404D01*
X130038761Y-102511166D01*
X129991142Y-102463547D01*
X129419714Y-103939738D02*
X130086380Y-103939738D01*
X129038761Y-103701642D02*
X129753047Y-103463547D01*
X129753047Y-104082595D01*
X132229571Y-102034976D02*
X132229571Y-101701642D01*
X132753380Y-101701642D02*
X131753380Y-101701642D01*
X131753380Y-102177833D01*
X131753380Y-102463547D02*
X131753380Y-103082595D01*
X132134333Y-102749261D01*
X132134333Y-102892119D01*
X132181952Y-102987357D01*
X132229571Y-103034976D01*
X132324809Y-103082595D01*
X132562904Y-103082595D01*
X132658142Y-103034976D01*
X132705761Y-102987357D01*
X132753380Y-102892119D01*
X132753380Y-102606404D01*
X132705761Y-102511166D01*
X132658142Y-102463547D01*
X131753380Y-103987357D02*
X131753380Y-103511166D01*
X132229571Y-103463547D01*
X132181952Y-103511166D01*
X132134333Y-103606404D01*
X132134333Y-103844500D01*
X132181952Y-103939738D01*
X132229571Y-103987357D01*
X132324809Y-104034976D01*
X132562904Y-104034976D01*
X132658142Y-103987357D01*
X132705761Y-103939738D01*
X132753380Y-103844500D01*
X132753380Y-103606404D01*
X132705761Y-103511166D01*
X132658142Y-103463547D01*
X176806571Y-110086976D02*
X176806571Y-109753642D01*
X177330380Y-109753642D02*
X176330380Y-109753642D01*
X176330380Y-110229833D01*
X176330380Y-110515547D02*
X176330380Y-111134595D01*
X176711333Y-110801261D01*
X176711333Y-110944119D01*
X176758952Y-111039357D01*
X176806571Y-111086976D01*
X176901809Y-111134595D01*
X177139904Y-111134595D01*
X177235142Y-111086976D01*
X177282761Y-111039357D01*
X177330380Y-110944119D01*
X177330380Y-110658404D01*
X177282761Y-110563166D01*
X177235142Y-110515547D01*
X176758952Y-111706023D02*
X176711333Y-111610785D01*
X176663714Y-111563166D01*
X176568476Y-111515547D01*
X176520857Y-111515547D01*
X176425619Y-111563166D01*
X176378000Y-111610785D01*
X176330380Y-111706023D01*
X176330380Y-111896500D01*
X176378000Y-111991738D01*
X176425619Y-112039357D01*
X176520857Y-112086976D01*
X176568476Y-112086976D01*
X176663714Y-112039357D01*
X176711333Y-111991738D01*
X176758952Y-111896500D01*
X176758952Y-111706023D01*
X176806571Y-111610785D01*
X176854190Y-111563166D01*
X176949428Y-111515547D01*
X177139904Y-111515547D01*
X177235142Y-111563166D01*
X177282761Y-111610785D01*
X177330380Y-111706023D01*
X177330380Y-111896500D01*
X177282761Y-111991738D01*
X177235142Y-112039357D01*
X177139904Y-112086976D01*
X176949428Y-112086976D01*
X176854190Y-112039357D01*
X176806571Y-111991738D01*
X176758952Y-111896500D01*
X216263357Y-89004380D02*
X216596690Y-88528190D01*
X216834785Y-89004380D02*
X216834785Y-88004380D01*
X216453833Y-88004380D01*
X216358595Y-88052000D01*
X216310976Y-88099619D01*
X216263357Y-88194857D01*
X216263357Y-88337714D01*
X216310976Y-88432952D01*
X216358595Y-88480571D01*
X216453833Y-88528190D01*
X216834785Y-88528190D01*
X215358595Y-88004380D02*
X215834785Y-88004380D01*
X215882404Y-88480571D01*
X215834785Y-88432952D01*
X215739547Y-88385333D01*
X215501452Y-88385333D01*
X215406214Y-88432952D01*
X215358595Y-88480571D01*
X215310976Y-88575809D01*
X215310976Y-88813904D01*
X215358595Y-88909142D01*
X215406214Y-88956761D01*
X215501452Y-89004380D01*
X215739547Y-89004380D01*
X215834785Y-88956761D01*
X215882404Y-88909142D01*
X214406214Y-88004380D02*
X214882404Y-88004380D01*
X214930023Y-88480571D01*
X214882404Y-88432952D01*
X214787166Y-88385333D01*
X214549071Y-88385333D01*
X214453833Y-88432952D01*
X214406214Y-88480571D01*
X214358595Y-88575809D01*
X214358595Y-88813904D01*
X214406214Y-88909142D01*
X214453833Y-88956761D01*
X214549071Y-89004380D01*
X214787166Y-89004380D01*
X214882404Y-88956761D01*
X214930023Y-88909142D01*
M02*
