G04 #@! TF.GenerationSoftware,KiCad,Pcbnew,(5.0.2)-1*
G04 #@! TF.CreationDate,2019-03-31T18:50:53-04:00*
G04 #@! TF.ProjectId,SolarCarECU,536f6c61-7243-4617-9245-43552e6b6963,rev?*
G04 #@! TF.SameCoordinates,Original*
G04 #@! TF.FileFunction,Legend,Bot*
G04 #@! TF.FilePolarity,Positive*
%FSLAX46Y46*%
G04 Gerber Fmt 4.6, Leading zero omitted, Abs format (unit mm)*
G04 Created by KiCad (PCBNEW (5.0.2)-1) date 3/31/2019 6:50:53 PM*
%MOMM*%
%LPD*%
G01*
G04 APERTURE LIST*
%ADD10C,0.120000*%
%ADD11C,0.150000*%
G04 APERTURE END LIST*
D10*
G04 #@! TO.C,D6*
X102834000Y-57674000D02*
X98934000Y-57674000D01*
X102834000Y-59674000D02*
X98934000Y-59674000D01*
X102834000Y-57674000D02*
X102834000Y-59674000D01*
G04 #@! TO.C,D10*
X102834000Y-48276000D02*
X102834000Y-50276000D01*
X102834000Y-50276000D02*
X98934000Y-50276000D01*
X102834000Y-48276000D02*
X98934000Y-48276000D01*
G04 #@! TO.C,D9*
X98334000Y-52816000D02*
X102234000Y-52816000D01*
X98334000Y-50816000D02*
X102234000Y-50816000D01*
X98334000Y-52816000D02*
X98334000Y-50816000D01*
G04 #@! TO.C,D7*
X98080000Y-70850000D02*
X98080000Y-68850000D01*
X98080000Y-68850000D02*
X101980000Y-68850000D01*
X98080000Y-70850000D02*
X101980000Y-70850000D01*
G04 #@! TO.C,D5*
X98334000Y-61960000D02*
X102234000Y-61960000D01*
X98334000Y-59960000D02*
X102234000Y-59960000D01*
X98334000Y-61960000D02*
X98334000Y-59960000D01*
G04 #@! TO.C,D4*
X102580000Y-75708000D02*
X102580000Y-77708000D01*
X102580000Y-77708000D02*
X98680000Y-77708000D01*
X102580000Y-75708000D02*
X98680000Y-75708000D01*
G04 #@! TO.C,D8*
X102580000Y-66564000D02*
X98680000Y-66564000D01*
X102580000Y-68564000D02*
X98680000Y-68564000D01*
X102580000Y-66564000D02*
X102580000Y-68564000D01*
G04 #@! TO.C,D3*
X98080000Y-79994000D02*
X98080000Y-77994000D01*
X98080000Y-77994000D02*
X101980000Y-77994000D01*
X98080000Y-79994000D02*
X101980000Y-79994000D01*
G04 #@! TO.C,D6*
D11*
X97766095Y-59126380D02*
X97766095Y-58126380D01*
X97528000Y-58126380D01*
X97385142Y-58174000D01*
X97289904Y-58269238D01*
X97242285Y-58364476D01*
X97194666Y-58554952D01*
X97194666Y-58697809D01*
X97242285Y-58888285D01*
X97289904Y-58983523D01*
X97385142Y-59078761D01*
X97528000Y-59126380D01*
X97766095Y-59126380D01*
X96337523Y-58126380D02*
X96528000Y-58126380D01*
X96623238Y-58174000D01*
X96670857Y-58221619D01*
X96766095Y-58364476D01*
X96813714Y-58554952D01*
X96813714Y-58935904D01*
X96766095Y-59031142D01*
X96718476Y-59078761D01*
X96623238Y-59126380D01*
X96432761Y-59126380D01*
X96337523Y-59078761D01*
X96289904Y-59031142D01*
X96242285Y-58935904D01*
X96242285Y-58697809D01*
X96289904Y-58602571D01*
X96337523Y-58554952D01*
X96432761Y-58507333D01*
X96623238Y-58507333D01*
X96718476Y-58554952D01*
X96766095Y-58602571D01*
X96813714Y-58697809D01*
G04 #@! TO.C,D10*
X97734285Y-49728380D02*
X97734285Y-48728380D01*
X97496190Y-48728380D01*
X97353333Y-48776000D01*
X97258095Y-48871238D01*
X97210476Y-48966476D01*
X97162857Y-49156952D01*
X97162857Y-49299809D01*
X97210476Y-49490285D01*
X97258095Y-49585523D01*
X97353333Y-49680761D01*
X97496190Y-49728380D01*
X97734285Y-49728380D01*
X96210476Y-49728380D02*
X96781904Y-49728380D01*
X96496190Y-49728380D02*
X96496190Y-48728380D01*
X96591428Y-48871238D01*
X96686666Y-48966476D01*
X96781904Y-49014095D01*
X95591428Y-48728380D02*
X95496190Y-48728380D01*
X95400952Y-48776000D01*
X95353333Y-48823619D01*
X95305714Y-48918857D01*
X95258095Y-49109333D01*
X95258095Y-49347428D01*
X95305714Y-49537904D01*
X95353333Y-49633142D01*
X95400952Y-49680761D01*
X95496190Y-49728380D01*
X95591428Y-49728380D01*
X95686666Y-49680761D01*
X95734285Y-49633142D01*
X95781904Y-49537904D01*
X95829523Y-49347428D01*
X95829523Y-49109333D01*
X95781904Y-48918857D01*
X95734285Y-48823619D01*
X95686666Y-48776000D01*
X95591428Y-48728380D01*
G04 #@! TO.C,D9*
X97766095Y-52268380D02*
X97766095Y-51268380D01*
X97528000Y-51268380D01*
X97385142Y-51316000D01*
X97289904Y-51411238D01*
X97242285Y-51506476D01*
X97194666Y-51696952D01*
X97194666Y-51839809D01*
X97242285Y-52030285D01*
X97289904Y-52125523D01*
X97385142Y-52220761D01*
X97528000Y-52268380D01*
X97766095Y-52268380D01*
X96718476Y-52268380D02*
X96528000Y-52268380D01*
X96432761Y-52220761D01*
X96385142Y-52173142D01*
X96289904Y-52030285D01*
X96242285Y-51839809D01*
X96242285Y-51458857D01*
X96289904Y-51363619D01*
X96337523Y-51316000D01*
X96432761Y-51268380D01*
X96623238Y-51268380D01*
X96718476Y-51316000D01*
X96766095Y-51363619D01*
X96813714Y-51458857D01*
X96813714Y-51696952D01*
X96766095Y-51792190D01*
X96718476Y-51839809D01*
X96623238Y-51887428D01*
X96432761Y-51887428D01*
X96337523Y-51839809D01*
X96289904Y-51792190D01*
X96242285Y-51696952D01*
G04 #@! TO.C,D7*
X97512095Y-70302380D02*
X97512095Y-69302380D01*
X97274000Y-69302380D01*
X97131142Y-69350000D01*
X97035904Y-69445238D01*
X96988285Y-69540476D01*
X96940666Y-69730952D01*
X96940666Y-69873809D01*
X96988285Y-70064285D01*
X97035904Y-70159523D01*
X97131142Y-70254761D01*
X97274000Y-70302380D01*
X97512095Y-70302380D01*
X96607333Y-69302380D02*
X95940666Y-69302380D01*
X96369238Y-70302380D01*
G04 #@! TO.C,D5*
X97766095Y-61412380D02*
X97766095Y-60412380D01*
X97528000Y-60412380D01*
X97385142Y-60460000D01*
X97289904Y-60555238D01*
X97242285Y-60650476D01*
X97194666Y-60840952D01*
X97194666Y-60983809D01*
X97242285Y-61174285D01*
X97289904Y-61269523D01*
X97385142Y-61364761D01*
X97528000Y-61412380D01*
X97766095Y-61412380D01*
X96289904Y-60412380D02*
X96766095Y-60412380D01*
X96813714Y-60888571D01*
X96766095Y-60840952D01*
X96670857Y-60793333D01*
X96432761Y-60793333D01*
X96337523Y-60840952D01*
X96289904Y-60888571D01*
X96242285Y-60983809D01*
X96242285Y-61221904D01*
X96289904Y-61317142D01*
X96337523Y-61364761D01*
X96432761Y-61412380D01*
X96670857Y-61412380D01*
X96766095Y-61364761D01*
X96813714Y-61317142D01*
G04 #@! TO.C,D4*
X97512095Y-77160380D02*
X97512095Y-76160380D01*
X97274000Y-76160380D01*
X97131142Y-76208000D01*
X97035904Y-76303238D01*
X96988285Y-76398476D01*
X96940666Y-76588952D01*
X96940666Y-76731809D01*
X96988285Y-76922285D01*
X97035904Y-77017523D01*
X97131142Y-77112761D01*
X97274000Y-77160380D01*
X97512095Y-77160380D01*
X96083523Y-76493714D02*
X96083523Y-77160380D01*
X96321619Y-76112761D02*
X96559714Y-76827047D01*
X95940666Y-76827047D01*
G04 #@! TO.C,D8*
X97512095Y-68016380D02*
X97512095Y-67016380D01*
X97274000Y-67016380D01*
X97131142Y-67064000D01*
X97035904Y-67159238D01*
X96988285Y-67254476D01*
X96940666Y-67444952D01*
X96940666Y-67587809D01*
X96988285Y-67778285D01*
X97035904Y-67873523D01*
X97131142Y-67968761D01*
X97274000Y-68016380D01*
X97512095Y-68016380D01*
X96369238Y-67444952D02*
X96464476Y-67397333D01*
X96512095Y-67349714D01*
X96559714Y-67254476D01*
X96559714Y-67206857D01*
X96512095Y-67111619D01*
X96464476Y-67064000D01*
X96369238Y-67016380D01*
X96178761Y-67016380D01*
X96083523Y-67064000D01*
X96035904Y-67111619D01*
X95988285Y-67206857D01*
X95988285Y-67254476D01*
X96035904Y-67349714D01*
X96083523Y-67397333D01*
X96178761Y-67444952D01*
X96369238Y-67444952D01*
X96464476Y-67492571D01*
X96512095Y-67540190D01*
X96559714Y-67635428D01*
X96559714Y-67825904D01*
X96512095Y-67921142D01*
X96464476Y-67968761D01*
X96369238Y-68016380D01*
X96178761Y-68016380D01*
X96083523Y-67968761D01*
X96035904Y-67921142D01*
X95988285Y-67825904D01*
X95988285Y-67635428D01*
X96035904Y-67540190D01*
X96083523Y-67492571D01*
X96178761Y-67444952D01*
G04 #@! TO.C,D3*
X97512095Y-79446380D02*
X97512095Y-78446380D01*
X97274000Y-78446380D01*
X97131142Y-78494000D01*
X97035904Y-78589238D01*
X96988285Y-78684476D01*
X96940666Y-78874952D01*
X96940666Y-79017809D01*
X96988285Y-79208285D01*
X97035904Y-79303523D01*
X97131142Y-79398761D01*
X97274000Y-79446380D01*
X97512095Y-79446380D01*
X96607333Y-78446380D02*
X95988285Y-78446380D01*
X96321619Y-78827333D01*
X96178761Y-78827333D01*
X96083523Y-78874952D01*
X96035904Y-78922571D01*
X95988285Y-79017809D01*
X95988285Y-79255904D01*
X96035904Y-79351142D01*
X96083523Y-79398761D01*
X96178761Y-79446380D01*
X96464476Y-79446380D01*
X96559714Y-79398761D01*
X96607333Y-79351142D01*
G04 #@! TD*
M02*
